<svg width="23" height="26" viewBox="0 0 23 26" fill="none" xmlns="http://www.w3.org/2000/svg">
<path d="M22.4342 20.2197C22.069 17.6546 20.9421 15.4711 19.1082 13.634C17.9915 12.5158 16.4417 12.3417 15.1657 13.1783C14.2191 13.7987 13.15 14.1163 12.0263 14.2131C10.3118 14.3614 8.71041 14.0094 7.23392 13.0956C6.04774 12.3605 4.66335 12.5134 3.63948 13.4655C2.05609 14.9388 0.989307 16.7251 0.408703 18.808C0.00524541 20.2525 -0.0454794 21.729 0.0286569 23.2078C0.0864052 24.3573 0.687299 25.2009 1.72287 25.7253C1.96947 25.8501 2.24728 25.8775 2.4931 26H19.9627C19.9791 25.9852 19.9947 25.9594 20.0135 25.9563C21.3245 25.776 22.3569 24.7529 22.4982 23.4333C22.6129 22.3626 22.5864 21.2841 22.4342 20.2197ZM20.8875 22.873C20.836 23.7025 20.0088 24.3315 19.0567 24.337C17.9088 24.3432 16.7608 24.3385 15.6129 24.3385H11.2841C8.70885 24.3385 6.13359 24.3401 3.55911 24.3378C2.42677 24.337 1.65575 23.6276 1.63859 22.5757C1.63312 22.2495 1.63702 21.9233 1.6378 21.5971C1.64015 19.6789 2.21295 17.9254 3.38976 16.3459C3.80024 15.7957 4.27706 15.2986 4.80928 14.8483C5.41017 14.3403 6.25533 14.2732 6.9725 14.6891C7.85355 15.1987 8.79703 15.5468 9.82011 15.7083C11.8616 16.0298 13.772 15.7161 15.5442 14.7055C16.3035 14.2732 17.1409 14.3333 17.7667 14.8694C18.0126 15.0793 18.249 15.3025 18.4706 15.5351C19.7177 16.8477 20.4872 18.3749 20.7946 20.0995C20.9593 21.0188 20.9452 21.9498 20.8875 22.873Z" fill="#BFBFBF"/>
<path d="M11.3044 7.65773e-06C7.66938 -0.00545502 4.73046 2.91239 4.72734 6.52947C4.72421 10.1606 7.64596 13.0979 11.2646 13.1018C14.8785 13.1057 17.8229 10.1824 17.83 6.58331C17.837 2.94829 14.9191 0.00547033 11.3044 7.65773e-06ZM11.2677 11.2531C8.68855 11.2516 6.57372 9.13048 6.57762 6.54976C6.58152 3.96747 8.69558 1.85576 11.2779 1.85498C13.8664 1.85498 15.9906 3.98542 15.9797 6.57083C15.9687 9.15701 13.8578 11.2539 11.2677 11.2531Z" fill="#BFBFBF"/>
</svg>
