<svg width="22" height="18" viewBox="0 0 22 18" fill="none" xmlns="http://www.w3.org/2000/svg">
<path d="M3.83101 7.84773C3.9444 7.91182 4.04885 7.88294 4.14781 7.88294C9.66057 7.88505 15.1727 7.88435 20.6854 7.88646C20.8565 7.88646 21.0331 7.88717 21.1967 7.92802C21.6991 8.05479 22.0378 8.56401 21.9966 9.09858C21.9547 9.64653 21.5644 10.067 21.0352 10.1283C20.9074 10.1431 20.7782 10.1452 20.6497 10.1452C15.1459 10.1459 9.64202 10.1459 4.13819 10.1459C4.0461 10.1459 3.95333 10.1459 3.79733 10.1459C3.8956 10.2522 3.95402 10.3177 4.01586 10.3811C5.84315 12.2504 7.66905 14.121 9.49977 15.9874C9.84612 16.3403 9.99387 16.7439 9.83994 17.227C9.59667 17.9905 8.68818 18.2469 8.08069 17.7299C8.00853 17.6686 7.94393 17.5968 7.87728 17.5285C5.41089 15.0084 2.94589 12.487 0.480877 9.96559C-0.162347 9.30776 -0.160286 8.72107 0.487062 8.05832C2.97612 5.51223 5.46724 2.96756 7.95356 0.418666C8.26692 0.0975004 8.62289 -0.0757599 9.06477 0.0319996C9.90385 0.236954 10.2048 1.23426 9.63446 1.89701C9.57193 1.96956 9.50321 2.03576 9.43655 2.10408C7.63332 3.94867 5.83009 5.79255 4.02686 7.63714C3.96226 7.70405 3.90041 7.77307 3.83101 7.84773Z" fill="#1C1C1C"/>
</svg>
