<svg width="17" height="15" viewBox="0 0 17 15" fill="none" xmlns="http://www.w3.org/2000/svg">
<path d="M8.50517 14.2606C6.38089 14.2606 4.25613 14.2606 2.13185 14.2606C0.899317 14.2606 0 13.3929 0 12.204C0 9.5478 0 6.89155 0 4.23577C0 3.06982 0.904997 2.19479 2.1115 2.19433C2.86077 2.19388 3.61052 2.19204 4.35979 2.19663C4.46487 2.19708 4.51268 2.17143 4.54344 2.06789C4.6116 1.83882 4.69775 1.61526 4.77821 1.38986C5.09108 0.519406 5.84035 0.00080173 6.78653 0.000343598C7.9315 -0.000114533 9.076 -0.000114533 10.221 0.000343598C11.1572 0.00080173 11.9093 0.520781 12.2189 1.38069C12.2998 1.60564 12.386 1.82966 12.4532 2.05873C12.4854 2.16776 12.5351 2.19754 12.6477 2.19663C13.397 2.19159 14.1467 2.19342 14.896 2.19433C16.0911 2.19525 16.999 3.07166 16.9995 4.22615C16.9999 6.89934 17.0004 9.57254 16.9995 12.2457C16.999 13.3755 16.0836 14.2601 14.9135 14.2606C12.7774 14.2615 10.6413 14.2606 8.50517 14.2606ZM8.49712 13.1638C10.6044 13.1638 12.7116 13.1638 14.8188 13.1638C15.4782 13.1638 15.8668 12.7914 15.8668 12.1587C15.8673 9.53635 15.8673 6.914 15.8668 4.29166C15.8668 3.66723 15.4782 3.29202 14.8316 3.29156C13.9404 3.2911 13.0491 3.29156 12.1578 3.2911C11.8151 3.2911 11.6362 3.1697 11.5255 2.8545C11.3991 2.49441 11.2798 2.13203 11.1548 1.77148C11.0015 1.32801 10.6711 1.09803 10.1855 1.09757C9.06417 1.09665 7.94239 1.09665 6.82108 1.09757C6.32409 1.09803 6.00081 1.32572 5.84319 1.78247C5.71871 2.14348 5.59659 2.50495 5.46927 2.86504C5.35993 3.17382 5.18527 3.2911 4.84874 3.2911C3.96315 3.29156 3.07803 3.2911 2.19244 3.2911C1.5118 3.2911 1.13361 3.65852 1.13361 4.31961C1.13361 6.925 1.13361 9.52993 1.13361 12.1353C1.13361 12.7955 1.51275 13.1638 2.19291 13.1638C4.294 13.1638 6.39556 13.1638 8.49712 13.1638Z" fill="white"/>
<path d="M12.7504 7.94266C12.7537 10.22 10.8623 12.064 8.52032 12.0672C6.16364 12.0704 4.25283 10.242 4.25046 7.9816C4.24809 5.68636 6.13145 3.84192 8.47962 3.84009C10.8434 3.83734 12.7466 5.6662 12.7504 7.94266ZM8.4853 10.9695C10.1642 10.9906 11.587 9.64141 11.6159 8.0013C11.6447 6.35019 10.2536 4.95885 8.55061 4.93686C6.82913 4.91441 5.40727 6.25536 5.38549 7.92158C5.36325 9.57956 6.75482 10.948 8.4853 10.9695Z" fill="white"/>
<path d="M13.6 4.92515C13.6038 4.61729 13.8575 4.38318 14.1822 4.38776C14.4908 4.39234 14.7341 4.63561 14.7336 4.93844C14.7327 5.24722 14.4814 5.48682 14.16 5.48499C13.8419 5.4827 13.5967 5.2376 13.6 4.92515Z" fill="white"/>
</svg>
