<svg width="26" height="26" viewBox="0 0 26 26" fill="none" xmlns="http://www.w3.org/2000/svg">
<path d="M12.9693 25.0608C10.5089 25.0608 8.04843 25.0303 5.58881 25.0699C3.49732 25.1037 1.98523 23.6808 1.67737 21.7659C1.19617 18.7698 0.613459 15.7894 0.0563319 12.8057C-0.334895 10.7142 1.36538 8.60452 3.49071 8.58059C4.11882 8.57316 4.74693 8.56408 5.37422 8.58637C5.61853 8.59462 5.70684 8.5063 5.77287 8.29006C6.34321 6.40985 6.92014 4.53213 7.50121 2.65523C8.01129 1.00696 9.36573 0.00742837 11.0908 0.00247612C12.3775 -0.000825374 13.6643 -0.000825374 14.951 0.00247612C16.6364 0.00660299 17.9603 0.939276 18.5043 2.53472C19.1547 4.44299 19.7861 6.35786 20.4167 8.27355C20.4909 8.49805 20.5809 8.58802 20.8401 8.58884C21.5689 8.59049 22.301 8.51373 23.0273 8.63919C24.924 8.96686 26.2842 10.8487 25.9491 12.7438C25.397 15.8645 24.8266 18.9811 24.2398 22.0953C23.9063 23.864 22.4388 25.0526 20.628 25.0584C18.0751 25.0666 15.5222 25.0608 12.9693 25.0608ZM13.0023 10.5549C10.8621 10.5549 8.72111 10.5549 6.58091 10.5549C5.61358 10.5549 4.64624 10.5458 3.6789 10.5574C2.60096 10.5706 1.83997 11.4892 2.02732 12.5127C2.56052 15.4271 3.11022 18.3398 3.60544 21.2608C3.84067 22.6466 4.54884 23.1129 5.74398 23.0725C6.92592 23.0321 8.11033 23.0634 9.29392 23.0634C13.0296 23.0634 16.7652 23.0643 20.5008 23.0626C21.5202 23.0626 22.1532 22.5443 22.3249 21.5951C22.8342 18.7806 23.3509 15.9677 23.856 13.1523C23.9278 12.7512 24.0582 12.3501 23.9806 11.9333C23.823 11.0856 23.1528 10.5565 22.2333 10.5557C19.1563 10.5541 16.0793 10.5549 13.0023 10.5549ZM18.4102 8.57316C18.4003 8.52859 18.3961 8.49888 18.3862 8.47081C17.7887 6.67562 17.2002 4.87796 16.5877 3.08855C16.355 2.41009 15.8391 2.02547 15.1227 2.01309C13.7237 1.98915 12.3239 1.9875 10.9249 2.01391C10.1713 2.02794 9.63975 2.47942 9.4136 3.20163C9.12389 4.12935 8.83914 5.05872 8.55273 5.98809C8.28944 6.84483 8.02779 7.70322 7.76037 8.57399C11.321 8.57316 14.8495 8.57316 18.4102 8.57316Z" fill="#BFBFBF"/>
<path d="M10.0359 16.8335C10.0359 17.4814 10.0392 18.1293 10.0351 18.7773C10.0318 19.3484 9.60426 19.7793 9.04961 19.7809C8.49578 19.7817 8.06246 19.3484 8.06081 18.7806C8.05751 17.4641 8.05668 16.1476 8.06081 14.8311C8.06246 14.2707 8.51559 13.8275 9.06116 13.8366C9.59683 13.8456 10.0302 14.2814 10.0351 14.8278C10.0401 15.4964 10.0359 16.1649 10.0359 16.8335Z" fill="#BFBFBF"/>
<path d="M13.9887 16.7922C13.9887 17.45 13.9911 18.1087 13.9878 18.7665C13.9854 19.3426 13.5669 19.7726 13.0122 19.7801C12.4485 19.7875 12.0144 19.3476 12.0127 18.7591C12.0102 17.4633 12.0102 16.1674 12.0127 14.8716C12.0135 14.2814 12.4452 13.8341 13.0032 13.8366C13.5619 13.839 13.9854 14.2856 13.9878 14.8798C13.9903 15.517 13.9887 16.1542 13.9887 16.7922Z" fill="#BFBFBF"/>
<path d="M17.9414 16.8327C17.9414 17.4806 17.9447 18.1285 17.9405 18.7765C17.9372 19.3484 17.5105 19.7793 16.9559 19.7809C16.4029 19.7826 15.9679 19.3484 15.9662 18.7814C15.9629 17.4649 15.9621 16.1485 15.9662 14.832C15.9679 14.2707 16.4202 13.8283 16.9658 13.8374C17.5014 13.8457 17.9356 14.2815 17.9405 14.8279C17.9455 15.4956 17.9414 16.1641 17.9414 16.8327Z" fill="#BFBFBF"/>
</svg>
