<svg width="12" height="2" viewBox="0 0 12 2" fill="none" xmlns="http://www.w3.org/2000/svg">
<path d="M11.9997 1.22119C11.959 1.23848 11.9681 1.28316 11.9577 1.31415C11.818 1.73263 11.4714 1.99715 11.0451 1.99878C10.4204 2.00107 9.79591 1.99944 9.17114 1.99944C6.44217 1.99944 3.7129 1.99976 0.983933 1.99911C0.51637 1.99911 0.126473 1.69055 0.0271983 1.24565C-0.114041 0.612882 0.310617 0.0322978 0.934452 0.00587794C0.977356 0.00392091 1.02026 0.00489942 1.06316 0.00489942C4.34675 0.00457325 7.63003 0.00946582 10.9136 6.85763e-06C11.4626 -0.001624 11.8763 0.28769 11.9894 0.802062C11.9897 0.804019 11.9962 0.804671 12 0.806302C11.9997 0.944598 11.9997 1.08289 11.9997 1.22119Z" fill="white"/>
</svg>
