<svg width="18" height="13" viewBox="0 0 18 13" fill="none" xmlns="http://www.w3.org/2000/svg">
<path d="M9.01045 0C11.3407 0 13.6704 0 16.0006 0C17.1684 0 17.9991 0.826403 17.9996 1.98937C18.0001 4.94931 18.0001 7.90925 17.9996 10.8687C17.9991 12.0311 17.1678 12.858 16 12.858C11.3332 12.8586 6.66629 12.8586 1.99942 12.858C0.832701 12.858 0.000401947 12.03 0.000401947 10.8681C-0.000133982 7.90871 -0.000133982 4.94877 0.000401947 1.98937C0.000401947 0.828011 0.832701 0.00053593 1.99996 0C4.33661 0 6.6738 0 9.01045 0ZM2.2438 1.29105C2.23308 1.30606 2.22237 1.32107 2.21165 1.33607C2.25399 1.36716 2.30168 1.39342 2.33866 1.4304C4.37948 3.48033 6.41923 5.53133 8.45952 7.58233C8.82395 7.94837 9.17605 7.94944 9.53834 7.58501C11.5738 5.53883 13.6087 3.49212 15.6437 1.44594C15.6876 1.40199 15.7283 1.35429 15.7862 1.29159C11.2517 1.29105 6.74776 1.29105 2.2438 1.29105ZM8.99277 11.5729C9.60855 11.5729 10.2249 11.5729 10.8406 11.5729C12.5481 11.5729 14.2556 11.5718 15.9631 11.5739C16.1946 11.5739 16.3972 11.5193 16.5553 11.3376C16.6528 11.2256 16.6651 11.1436 16.5429 11.0219C15.1409 9.63012 13.7449 8.23295 12.3514 6.83257C12.2539 6.73449 12.2078 6.72913 12.1087 6.83096C11.5567 7.39637 10.9982 7.95534 10.4387 8.51324C9.57854 9.37127 8.41503 9.36912 7.55701 8.50949C6.99857 7.95052 6.4396 7.39208 5.88598 6.82828C5.79755 6.73771 5.752 6.72967 5.65821 6.82399C4.25515 8.23349 2.8494 9.6403 1.43937 11.0428C1.33862 11.143 1.34666 11.2143 1.42276 11.3119C1.58139 11.5155 1.79469 11.5745 2.04176 11.5745C4.35912 11.5718 6.67594 11.5729 8.99277 11.5729ZM1.29467 2.25734C1.29467 4.61114 1.29467 6.96977 1.29467 9.34286C1.32254 9.32518 1.33969 9.31821 1.35148 9.30642C2.49194 8.16703 3.63079 7.0255 4.77446 5.88933C4.872 5.79286 4.81573 5.75428 4.75195 5.6905C4.27498 5.21299 3.80229 4.73011 3.32263 4.25421C2.6495 3.58698 1.97209 2.92403 1.29467 2.25734ZM16.7005 9.3225C16.7005 6.9628 16.7005 4.60417 16.7005 2.29378C15.5257 3.44817 14.3333 4.62025 13.1559 5.77732C14.3456 6.96709 15.5225 8.14399 16.7005 9.3225Z" fill="#1C1C1C"/>
</svg>
