<svg width="27" height="26" viewBox="0 0 27 26" fill="none" xmlns="http://www.w3.org/2000/svg">
<path d="M20.71 15.3584C21.1835 15.1405 21.6363 14.979 22.1298 14.9427C23.9217 14.8093 25.4712 15.8579 25.9129 17.8654C26.213 19.229 25.9003 20.4636 25.0192 21.544C23.938 22.8705 22.8057 24.1488 21.4503 25.21C21.1887 25.4153 20.9086 25.5917 20.621 25.7592C20.0756 26.0771 19.525 26.0889 19.0033 25.7429C18.6372 25.4998 18.2585 25.4442 17.8309 25.4449C12.6376 25.4546 7.44355 25.4516 2.25022 25.4509C1.19644 25.4509 0.412398 24.9247 0.107824 24.0251C0.0211201 23.7679 0.000370529 23.5019 0.000370529 23.2344C0.000370529 16.2299 -0.00111159 9.22543 0.00185264 2.22096C0.0025937 0.876679 0.877041 0.00741937 2.22428 0.00667831C7.64882 0.00371409 13.0734 0.0140889 18.4979 8.79925e-06C19.9615 -0.00369649 20.73 1.16347 20.7226 2.2254C20.6922 6.49389 20.71 10.7631 20.71 15.0324C20.71 15.1302 20.71 15.2287 20.71 15.3584ZM18.9196 15.4251C18.9285 15.3584 18.9344 15.3317 18.9344 15.3058C18.9351 10.9358 18.9351 6.56652 18.9344 2.1965C18.9344 1.88452 18.8403 1.7993 18.512 1.7993C13.0793 1.79855 7.6466 1.79855 2.21391 1.7993C1.85375 1.7993 1.79373 1.85858 1.79373 2.21651C1.79299 9.22839 1.79299 16.2403 1.79373 23.2522C1.79373 23.5893 1.86191 23.6583 2.19686 23.6583C6.86256 23.659 11.5283 23.659 16.194 23.656C16.2569 23.656 16.3422 23.7012 16.3896 23.6012C15.7271 22.9313 15.1009 22.2265 14.5118 21.4914C13.5047 20.2331 13.2764 18.8236 13.7863 17.3052C14.2724 15.8564 15.4907 14.976 17.0173 14.9316C17.6872 14.9108 18.3097 15.0827 18.9196 15.4251ZM24.2648 18.7554C24.2893 18.608 24.2455 18.4064 24.1937 18.2122C24.0128 17.5364 23.6683 16.991 22.9472 16.7916C22.2321 16.5945 21.6215 16.7983 21.1072 17.3185C20.9197 17.509 20.7263 17.695 20.5528 17.8973C20.1371 18.3804 19.5628 18.4145 19.1048 17.9699C18.8395 17.7128 18.5868 17.4423 18.3134 17.1948C17.4011 16.3677 16.045 16.6508 15.5633 17.7795C15.1772 18.6828 15.2765 19.5565 15.8768 20.3339C16.9713 21.7508 18.2489 22.9876 19.668 24.0799C19.7836 24.1688 19.8614 24.1711 19.9785 24.0814C21.3902 22.995 22.6567 21.7612 23.752 20.3561C24.1018 19.907 24.27 19.3868 24.2648 18.7554Z" fill="#BFBFBF"/>
<path d="M10.3685 7.70763C8.82636 7.70763 7.28348 7.70986 5.74134 7.70615C5.14257 7.70467 4.74684 7.35415 4.73943 6.83467C4.73202 6.30852 5.11663 5.9202 5.66649 5.91576C6.44238 5.90909 7.21827 5.91428 7.99415 5.91428C10.3218 5.91428 12.6487 5.91353 14.9764 5.91428C15.4929 5.91428 15.8301 6.15364 15.9516 6.59975C16.0828 7.07996 15.7604 7.59648 15.2706 7.68096C15.1439 7.70245 15.0134 7.70615 14.8845 7.70615C13.3794 7.70837 11.8736 7.70763 10.3685 7.70763Z" fill="#BFBFBF"/>
<path d="M10.3967 11.2373C11.9388 11.2373 13.4817 11.2343 15.0238 11.2388C15.7026 11.2403 16.1502 11.8272 15.9316 12.4289C15.813 12.7535 15.5781 12.964 15.2239 13.0114C15.1142 13.0262 15.0031 13.0307 14.8927 13.0307C11.8728 13.0314 8.85229 13.0314 5.83249 13.0307C5.6487 13.0307 5.46418 13.0358 5.28855 12.9595C4.88393 12.7839 4.66162 12.3667 4.75054 11.9457C4.83651 11.5367 5.20481 11.2425 5.65908 11.2403C6.54538 11.2343 7.43243 11.2388 8.31873 11.2388C9.01162 11.2373 9.70451 11.2373 10.3967 11.2373Z" fill="#BFBFBF"/>
<path d="M8.01713 16.5604C8.79376 16.5604 9.56964 16.5545 10.3463 16.5627C10.782 16.5671 11.1496 16.8709 11.2266 17.2637C11.3089 17.6802 11.1199 18.0774 10.7531 18.2612C10.6005 18.3375 10.4352 18.353 10.2685 18.353C8.753 18.3538 7.23679 18.3434 5.72133 18.3582C4.99213 18.3656 4.54972 17.7128 4.80613 17.111C4.96694 16.7331 5.28114 16.5612 5.68799 16.5604C6.46461 16.5597 7.24124 16.5604 8.01713 16.5604Z" fill="#BFBFBF"/>
</svg>
