<svg width="22" height="20" viewBox="0 0 22 20" fill="none" xmlns="http://www.w3.org/2000/svg">
<path d="M0.809347 0.000607377C0.986219 -0.00817349 1.15619 0.0790079 1.31111 0.21323C3.63428 2.23534 5.9587 4.25619 8.28312 6.27767C11.4354 9.01918 14.5878 11.7613 17.7395 14.5035C19.0503 15.6437 20.3624 16.7833 21.6708 17.9261C22.0515 18.2585 22.1004 18.7151 21.8025 19.0513C21.5121 19.3793 21.0574 19.4069 20.7036 19.1021C19.7409 18.2717 18.7831 17.4356 17.8229 16.6015C17.4773 16.301 17.1267 16.0056 16.7886 15.697C16.6739 15.5923 16.598 15.5948 16.4675 15.6751C15.3272 16.3763 14.1193 16.9169 12.804 17.2017C11.0039 17.5906 9.26155 17.3779 7.56246 16.7075C5.92169 16.0602 4.48414 15.0893 3.16011 13.9409C2.07755 13.0013 1.09284 11.967 0.222284 10.8274C-0.0699936 10.4454 -0.0768928 10.135 0.21852 9.75552C1.4861 8.12479 2.94686 6.69225 4.63279 5.49241C4.86422 5.32746 4.86297 5.32934 4.65662 5.14933C3.20213 3.88426 1.74827 2.61919 0.295667 1.35223C0.0184422 1.11076 -0.0649759 0.792767 0.0560745 0.479792C0.168971 0.18626 0.449332 -0.000647032 0.809347 0.000607377ZM15.4307 14.5216C14.8186 13.9885 14.2271 13.4786 13.6426 12.9605C13.5234 12.8552 13.4795 12.9612 13.4124 13.0113C12.1404 13.9672 10.7656 14.1591 9.32302 13.4761C7.27645 12.5071 6.54576 9.98884 7.72051 8.05266C7.79452 7.93035 7.79076 7.86701 7.67661 7.77042C7.21122 7.37904 6.7496 6.98202 6.3024 6.57057C6.13118 6.41252 6.01326 6.39057 5.80879 6.53106C4.31354 7.55779 3.01272 8.79339 1.83734 10.1676C1.74639 10.2736 1.77148 10.33 1.84862 10.4204C2.2124 10.8475 2.5881 11.2639 2.98261 11.6622C4.40762 13.101 5.9681 14.3548 7.8447 15.1689C8.94231 15.6456 10.0863 15.9191 11.2899 15.862C12.7802 15.7924 14.1312 15.2781 15.4307 14.5216ZM12.3706 11.8755C12.3556 11.8573 12.343 11.8366 12.3254 11.8209C11.2548 10.8882 10.1817 9.95748 9.11416 9.02106C8.99311 8.91506 8.96175 8.96336 8.90656 9.07688C8.46187 9.99511 8.72341 11.1554 9.52749 11.8115C10.361 12.4908 11.5289 12.5171 12.3706 11.8755Z" fill="#BFBFBF"/>
<path d="M11.0115 3.18179C12.8912 3.19371 14.5984 3.79269 16.1984 4.73036C18.4156 6.02993 20.237 7.7723 21.8069 9.78876C22.0647 10.1199 22.0634 10.4523 21.8088 10.7866C21.0216 11.8197 20.1341 12.7611 19.1739 13.6335C18.8151 13.9597 18.3541 13.9434 18.0562 13.616C17.7633 13.2942 17.7972 12.832 18.1528 12.5033C18.8615 11.8485 19.5283 11.1548 20.1523 10.4191C20.2339 10.3231 20.2452 10.2686 20.1586 10.1676C18.775 8.55003 17.2365 7.11185 15.3881 6.02993C14.2848 5.38391 13.1113 4.92291 11.835 4.75921C10.7606 4.62123 9.71252 4.76925 8.68327 5.08661C8.17837 5.24216 7.74623 4.97999 7.65717 4.47822C7.59319 4.11821 7.82463 3.76446 8.22291 3.63651C9.12859 3.34486 10.0562 3.17866 11.0115 3.18179Z" fill="#BFBFBF"/>
</svg>
