<svg width="28" height="26" viewBox="0 0 28 26" fill="none" xmlns="http://www.w3.org/2000/svg">
<path d="M13.9948 25.9992C11.8782 25.9992 9.76155 26.0015 7.64492 25.9984C5.00031 25.9953 2.92962 23.9215 2.92573 21.2737C2.92262 18.992 2.92028 16.7103 2.93118 14.4278C2.93274 14.1794 2.86577 14.1155 2.62747 14.1327C2.31831 14.1552 2.0037 14.156 1.70077 14.0797C0.856608 13.8679 0.306814 13.3267 0.0840932 12.4973C-0.144079 11.6477 0.0965531 10.904 0.751477 10.3129C3.18116 8.1223 5.61396 5.93559 8.04597 3.74732C8.94075 2.9421 9.83787 2.13999 10.7303 1.33165C12.6935 -0.447776 15.3078 -0.439989 17.2686 1.33165C20.5892 4.33216 23.9246 7.31553 27.2444 10.316C28.372 11.3354 28.1757 13.1117 26.8807 13.8539C26.4134 14.121 25.9065 14.1654 25.3894 14.1334C25.1277 14.1179 25.0576 14.1911 25.0592 14.4589C25.0709 16.7212 25.067 18.9842 25.0654 21.2465C25.0639 23.9324 23.0025 25.9953 20.3159 25.9984C18.2086 26.0015 16.1021 25.9992 13.9948 25.9992ZM13.98 24.1348C16.0476 24.1348 18.1151 24.1341 20.1835 24.1356C20.4662 24.1356 20.7457 24.1154 21.0191 24.0461C22.3554 23.7097 23.1972 22.6108 23.1988 21.1912C23.2019 18.5505 23.1988 15.9097 23.2003 13.269C23.2003 12.6406 23.5827 12.259 24.215 12.2543C24.7002 12.2504 25.1861 12.2512 25.6713 12.2551C25.8434 12.2567 25.9984 12.2496 26.0786 12.0557C26.1619 11.8548 26.0373 11.7474 25.9127 11.636C22.5859 8.64406 19.2622 5.64823 15.9308 2.66175C14.7471 1.6011 13.2207 1.61901 12.044 2.6781C10.6228 3.95758 9.20007 5.23394 7.77887 6.51264C5.88107 8.21965 3.98404 9.92743 2.0878 11.636C1.96632 11.745 1.82614 11.8447 1.91414 12.0503C1.99513 12.2403 2.14465 12.2567 2.31909 12.2543C2.76531 12.2496 3.21231 12.2528 3.65853 12.2528C4.44895 12.2535 4.79472 12.5962 4.7955 13.3812C4.79628 15.9541 4.79627 18.5263 4.79472 21.0993C4.79472 21.3812 4.80951 21.6623 4.87726 21.9365C5.20901 23.2868 6.31015 24.1302 7.74849 24.1325C9.82541 24.1372 11.9023 24.1348 13.98 24.1348Z" fill="#BFBFBF"/>
</svg>
