<svg width="209" height="255" viewBox="0 0 209 255" fill="none" xmlns="http://www.w3.org/2000/svg">
<path d="M3.84128 236.642C3.84128 236.642 0.0531101 240.146 0.793104 242.635C1.53094 245.124 4.94912 246.783 5.41162 249.827C5.87411 252.871 7.71978 254.53 9.38262 254.53C11.0454 254.53 17.3096 254.53 17.3096 254.53C17.3096 254.53 18.5336 252.389 15.5779 251.744C12.6222 251.099 11.508 247.523 11.693 244.204C11.878 240.885 11.4154 236.458 11.4154 236.458L5.13411 234.983L3.84128 236.642Z" fill="#284663"/>
<path d="M50.3082 246.197C50.3082 246.197 49.3853 253.573 51.0482 254.403C52.711 255.233 72.5725 254.955 72.5725 254.955C72.5725 254.955 72.5725 252.466 69.1544 251.912C65.7362 251.359 59.7323 249.33 58.7149 244.812C57.6995 240.294 50.3082 246.197 50.3082 246.197Z" fill="#284663"/>
<path d="M68.2744 133.55C68.2744 133.55 67.1515 147.527 65.8329 164.331C64.0388 187.156 61.8834 215.193 61.6704 220.505C61.3026 229.728 59.8226 244.481 59.8226 244.481C59.8226 244.481 56.3141 247.987 49.2906 246.508C49.2906 246.508 43.0329 225.448 41.2453 203.165C41.2173 202.8 41.1894 202.432 41.1614 202.065C39.4986 179.38 36.9129 131.613 36.9129 131.613L68.2744 133.55Z" fill="#117C93"/>
<path d="M68.2744 133.55C68.2744 133.55 67.1515 147.527 65.8329 164.331L41.2453 203.165C41.2173 202.8 41.1894 202.432 41.1614 202.065C39.4986 179.38 36.9129 131.613 36.9129 131.613L68.2744 133.55Z" fill="#284663"/>
<path d="M63.1484 135.209C63.1484 135.209 42.917 185.832 29.6143 209.624C16.3116 233.414 12.1556 240.054 12.1556 240.054C12.1556 240.054 4.53411 237.01 3.84144 234.936C3.84144 234.936 8.92889 189.007 17.8368 177.811C22.8704 171.485 28.7839 152.499 29.0614 145.859C29.3389 139.22 30.8619 126.08 30.8619 126.08L63.1484 135.209Z" fill="#117C93"/>
<path d="M82.7216 121.549L84.5135 124.109C84.5135 124.109 90.9562 124.786 90.7411 131.798C90.7411 131.798 90.4334 134.691 88.5168 133.859C86.6001 133.025 87.4649 133.068 84.7351 131.953C82.0053 130.837 80.0714 128.559 80.1596 126.392L79.2733 124.137L82.7216 121.549Z" fill="#FFB48D"/>
<path d="M36.528 57.1785C36.528 57.1785 50.2049 63.9018 58.1125 61.4128C58.1125 61.4128 56.1658 58.9281 52.7713 57.0667C52.9627 55.9361 53.1154 54.9022 53.2359 53.978C53.6833 50.5668 53.7006 48.6238 53.7006 48.6238L50.4609 46.0165L43.4374 40.3657C43.4977 42.2099 43.36 43.8993 43.0782 45.4362V45.4383C43.0782 45.4405 43.0782 45.4405 43.0782 45.4426C43.0782 45.4426 43.0782 45.4426 43.0782 45.4448C41.6369 53.3546 36.528 57.1785 36.528 57.1785Z" fill="#FFB48D"/>
<path d="M82.2376 124.432C83.9843 122.643 85.2793 120.316 85.2793 120.316C85.2793 120.316 70.4429 101.914 69.2361 100.008C68.0293 98.0992 59.0182 67.4935 59.0182 67.4935L36.2311 62.8852C36.2311 62.8852 55.2515 102.054 58.4029 106.828C63.6108 114.719 79.1873 126.463 79.1873 126.463C79.1873 126.463 80.8673 125.835 82.2376 124.432Z" fill="#008175"/>
<path d="M69.1478 134.715C68.909 134.912 68.6337 135.031 68.3175 135.031C65.3489 134.99 56.6905 136.636 49.3659 135.886C43.1899 135.295 37.7239 133.468 31.8556 130.841C31.0769 130.493 29.2828 129.537 29.3237 128.666C29.3495 127.714 29.4441 126.332 29.5646 124.593C29.9798 118.544 30.7047 108.143 29.9991 96.1432C29.8722 93.9078 29.8055 91.6917 29.7969 89.5101C29.7367 73.2454 32.9677 58.941 39.4599 54.0983C40.0149 53.7028 43.418 55.3622 46.5479 56.9033C49.4369 58.3262 52.328 58.4831 55.06 57.9329L57.7919 60.3424C61.1176 63.4247 64.7595 67.6139 66.3427 73.9762C67.6893 79.3906 68.4809 89.1511 68.9155 99.2684C69.1134 103.853 69.2726 108.477 69.3134 112.864V113.02C69.3522 113.455 69.3522 113.93 69.3522 114.366C69.5049 125.625 69.3457 134.556 69.1478 134.715Z" fill="#00AF8D"/>
<path d="M29.5603 124.593C29.9755 118.544 30.7004 108.143 29.9949 96.1432C29.8679 93.9078 29.8013 91.6917 29.7927 89.5101C32.4988 82.9608 34.708 78.2127 34.708 78.2127H41.525C41.525 78.2127 46.5221 112.288 29.5603 124.593Z" fill="#008175"/>
<path d="M16.2986 126.712L15.0036 128.939C15.0036 128.939 17.5398 134.298 11.5252 136.301C11.5252 136.301 8.93737 136.952 8.71581 135.162C8.49424 133.371 8.87499 134.076 8.50069 131.546C8.12639 129.019 9.11376 126.766 10.9831 126.166L12.4566 124.758L16.2986 126.712Z" fill="#FFB48D"/>
<path d="M12.8676 127.321C15.3221 127.798 17.983 127.604 17.983 127.604C17.983 127.604 25.2711 105.132 26.209 103.079C27.1469 101.027 47.856 76.7296 47.856 76.7296L39.2277 55.1795C39.2277 55.1795 16.8279 92.5257 14.5541 97.7725C10.7961 106.443 9.49032 125.887 9.49032 125.887C9.49032 125.887 10.9402 126.944 12.8676 127.321Z" fill="#00AF8D"/>
<path d="M43.0762 45.4383C43.0762 45.4383 43.0762 45.4404 43.0783 45.4426C43.0783 45.4426 43.0783 45.4426 43.0783 45.4447C43.216 45.6876 47.2838 52.9591 53.236 53.9779C53.6835 50.5668 53.7007 48.6237 53.7007 48.6237L50.4611 46.0165C48.5272 44.9074 46.7912 44.183 46.1373 44.3227C44.0076 44.7784 43.13 45.3996 43.0783 45.4361L43.0762 45.4383Z" fill="#F6A071"/>
<path d="M41.4368 40.0884C41.4368 40.0948 41.439 40.1013 41.439 40.1056C41.525 40.5742 41.6068 41.0513 41.6885 41.5393C41.738 41.8423 41.7875 42.1497 41.8348 42.4614C42.0155 43.6672 42.4565 44.6452 43.0781 45.4383V45.4405C45.5003 48.5399 50.6459 48.8086 53.7005 48.6667C55.1439 48.5958 56.1205 48.4346 56.1205 48.4346C57.5919 48.095 58.3082 45.2513 58.5599 41.9348C58.5642 41.866 58.5707 41.7972 58.575 41.7263C58.7707 38.9234 58.6395 35.8175 58.3556 33.6229C58.2136 32.5117 58.0307 31.6347 57.8307 31.1468C56.7616 28.5288 54.6685 25.6658 46.3823 27.3939C38.9329 28.9479 40.2107 33.3113 41.4368 40.0884Z" fill="#FFB48D"/>
<path d="M41.8241 41.679C41.8241 41.679 43.1642 41.4554 42.947 39.6134C42.7318 37.7713 42.734 35.3618 44.2355 35.811C45.737 36.2603 45.8101 37.4597 46.4275 36.7589C47.0449 36.0582 47.0556 33.1071 51.5193 32.9029C55.985 32.6965 57.7985 34.2484 59.8765 33.3371C61.9523 32.4257 62.062 29.2897 62.062 29.2897C62.062 29.2897 61.4704 30.4095 60.5799 30.7663C60.5799 30.7663 64.0454 26.0376 60.0335 22.7941C56.0216 19.5507 51.9323 21.6743 49.6112 21.814C44.4979 22.1235 41.1938 22.4287 39.5223 25.784C37.8531 29.1371 38.5414 38.4505 41.8241 41.679Z" fill="#4A2009"/>
<path d="M188.661 193.933L184.445 196.22C184.445 196.22 181.831 192.958 179.478 188.998C177.83 186.226 176.305 183.113 175.896 180.545C174.904 174.309 168.072 164.164 168.728 162.399C169.384 160.637 182.474 157.354 182.474 157.354C182.474 157.354 185.389 174.87 187.319 186.193C187.882 189.497 188.36 192.274 188.661 193.933Z" fill="#FFB48D"/>
<path d="M184.937 169.473C182.526 170.698 180.278 171.42 178.346 171.837C175.466 172.458 173.289 172.405 172.325 172.33C171.968 172.302 171.779 172.271 171.779 172.271C171.779 172.271 169.378 170.616 166.56 166.704C163.974 163.119 162.006 157.958 162.006 157.894L182.046 155.551L184.937 169.473Z" fill="#117C93"/>
<path d="M178.346 171.835C175.466 172.456 173.289 172.403 172.325 172.327L174.41 163.532C174.41 163.534 177.421 168.035 178.346 171.835Z" fill="#284663"/>
<path d="M188.661 193.933L184.445 196.22C184.445 196.22 181.831 192.958 179.478 188.998C181.248 188.831 184.176 187.403 187.177 185.357C187.74 188.663 188.36 192.274 188.661 193.933Z" fill="white"/>
<path d="M176.995 163.113C176.995 163.113 173.218 170.799 170.165 181.516C169.447 184.042 166.893 187.219 164.306 190.045C161.793 192.79 159.25 195.206 158.315 196.39L153.935 194.391C153.935 194.391 155.374 189.996 157.553 185.989C158.362 184.5 159.27 183.064 160.246 181.929C161.597 180.358 158.859 173.125 161.696 159.558C163.049 158.244 176.995 163.113 176.995 163.113Z" fill="#FFB48D"/>
<path d="M180.818 156.886L173.188 173.163C173.143 173.17 167.268 173.462 163.049 171.21C160.629 169.92 159.526 168.36 159.526 168.36L161.787 157.256L180.818 156.886Z" fill="#117C93"/>
<path d="M165.449 126.914L165.472 126.926C165.454 126.937 165.449 126.914 165.449 126.914Z" fill="#FFB48D"/>
<path d="M176.707 133.397L165.472 126.925C165.532 126.899 165.751 126.56 166.534 124.148C166.868 123.118 167.038 122.229 167.117 121.524C167.126 121.453 167.132 121.386 167.139 121.317C167.233 120.294 167.139 119.705 167.139 119.705L169.589 120.535L174.119 122.074C174.089 123.213 174.265 124.013 174.517 124.556C175.13 125.88 176.225 125.868 176.255 125.868L176.707 133.397Z" fill="#FFB48D"/>
<path d="M174.515 124.559C170.174 125.012 167.672 122.229 167.117 121.526C167.035 121.423 166.994 121.365 166.994 121.365C166.994 121.365 167.046 121.347 167.139 121.319C167.489 121.208 168.444 120.9 169.587 120.537L174.117 122.076C174.087 123.215 174.261 124.013 174.515 124.559Z" fill="#F6A071"/>
<path d="M174.702 122.996C174.702 122.996 165.063 124.243 164.738 117.728C164.413 111.213 162.927 108.257 169.6 107.546C176.273 106.834 177.897 109.207 178.335 111.406C179.699 118.269 177.419 122.65 174.702 122.996Z" fill="#FFB48D"/>
<path d="M156.254 101.214C156.114 100.915 156.013 100.721 156.013 100.721C156.118 100.857 156.196 101.025 156.254 101.214Z" fill="#D35C2B"/>
<path d="M199.354 98.9568C199.049 98.6623 198.623 98.2668 197.801 98.4968C197.194 98.6924 196.497 98.9804 195.773 99.391C195.71 99.3931 195.682 99.4232 195.62 99.4555C193.91 100.427 194.043 104.82 194.045 104.881C192.955 105.803 188.885 114.469 187.942 116.836C187 119.207 177.875 126.491 177.875 126.491L180.355 134.252C183.094 132.795 191.326 122.966 193.028 120.081C194.729 117.197 197.068 107.703 196.706 106.119C196.704 106.112 196.702 106.108 196.702 106.101C196.734 106.043 196.93 105.7 197.229 105.248C197.732 104.446 198.535 103.211 199.04 102.589C199.427 102.125 199.703 101.745 199.84 100.919C200.008 100.001 199.782 99.3738 199.354 98.9568Z" fill="#FFB48D"/>
<path d="M170.18 110.718C166.745 109.921 168.171 115.942 167.298 115.544C166.323 115.099 164.663 115.14 164.947 116.298C165.231 117.457 165.618 117.867 165.829 118.59C166.039 119.314 165.87 120.756 165.069 120.481C164.269 120.206 156.712 111.924 161.804 105.261C166.896 98.5957 182.537 102.336 177.77 109.296C176.933 110.521 172.626 111.286 170.18 110.718Z" fill="#4A2009"/>
<path d="M183.539 159.212C183.539 159.212 180.667 160.804 176.096 160.821C173.183 160.834 166.977 159.691 162.974 158.337C160.694 157.567 159.128 156.727 159.3 155.994C159.547 154.936 161.331 146.816 162.976 139.304C164.482 132.434 165.874 126.07 165.874 126.07C165.874 126.07 170.46 129.191 173.074 128.006C175.687 126.822 175.324 125.549 175.324 125.549C175.324 125.549 177.036 124.821 177.849 125.062C178.662 125.3 180.934 123.957 180.934 123.957C180.934 123.957 183.507 125.863 183.685 130.061C183.713 130.682 183.689 131.355 183.593 132.079L181.803 134.22C181.803 134.222 185.925 146.364 183.539 159.212Z" fill="#FBAE25"/>
<path d="M196.188 198.776L183.515 199.67C183.515 199.67 183.098 197.611 183.244 195.829C183.262 195.612 183.358 195.41 183.509 195.227C184.273 195.419 185.378 195.505 186.555 194.969C187.521 194.531 188.211 193.929 188.682 193.394C188.824 193.51 191.649 195.786 192.86 195.687C194.101 195.582 196.048 196.19 196.188 198.776Z" fill="#117C93"/>
<path d="M165.209 189.082C162.697 191.827 159.251 195.208 158.315 196.39L153.935 194.391C153.935 194.391 155.198 189.286 158.02 185.155C158.82 186.346 161.341 188.657 165.209 189.082Z" fill="white"/>
<path d="M159.233 195.253C159.233 195.253 159.128 198.013 160.057 198.361C160.984 198.709 162.718 199.425 162.752 201.175L156.604 201.622C156.604 201.622 151.943 199.38 151.341 198.475C150.736 197.57 154.174 193.589 154.174 193.589C154.174 193.589 156.376 195.928 159.233 195.253Z" fill="#117C93"/>
<path d="M162.974 158.339C160.694 157.569 159.128 156.729 159.3 155.996C159.547 154.939 161.331 146.818 162.976 139.306C163.486 138.326 163.811 137.741 163.811 137.741C163.811 137.741 167.515 153.195 162.974 158.339Z" fill="#EA911B"/>
<path d="M106.797 235.146C112.113 235.146 116.421 239.447 116.421 244.754C116.421 250.061 112.113 254.362 106.797 254.362C101.482 254.362 97.173 250.061 97.173 244.754C97.173 239.447 101.482 235.146 106.797 235.146Z" fill="#117C93"/>
<path d="M106.797 240.333C109.243 240.333 111.224 242.313 111.224 244.752C111.224 247.194 109.241 249.171 106.797 249.171C104.351 249.171 102.368 247.192 102.368 244.752C102.37 242.313 104.351 240.333 106.797 240.333Z" fill="#6BDBAD"/>
<path d="M183.556 235.146C188.871 235.146 193.182 239.447 193.182 244.754C193.182 250.061 188.874 254.362 183.556 254.362C178.241 254.362 173.932 250.061 173.932 244.754C173.932 239.447 178.241 235.146 183.556 235.146Z" fill="#117C93"/>
<path d="M183.556 240.333C186.002 240.333 187.986 242.313 187.986 244.752C187.986 247.194 186.002 249.171 183.556 249.171C181.111 249.171 179.129 247.192 179.129 244.752C179.129 242.313 181.113 240.333 183.556 240.333Z" fill="#6BDBAD"/>
<path d="M162.522 158.18C162.595 158.208 162.671 158.234 162.746 158.259C162.821 158.287 162.899 158.313 162.976 158.339C163.144 158.148 163.301 157.943 163.447 157.726L164.559 157.595L164.755 158.887L164.86 159.596C164.807 159.586 164.753 159.575 164.699 159.566C164.6 159.547 164.501 159.532 164.407 159.515C164.312 159.497 164.215 159.48 164.123 159.469C164.099 159.465 164.077 159.463 164.056 159.459C163.903 159.433 163.757 159.416 163.615 159.399C163.57 159.392 163.525 159.388 163.482 159.381C163.447 159.377 163.413 159.375 163.38 159.371C163.322 159.364 163.264 159.36 163.208 159.356C163.146 159.349 163.084 159.345 163.023 159.341C162.976 159.338 162.927 159.336 162.881 159.334C162.849 159.334 162.819 159.332 162.789 159.332C162.759 159.33 162.731 159.33 162.701 159.33C162.66 159.33 162.619 159.332 162.58 159.332C162.55 159.332 162.522 159.332 162.492 159.334C162.458 159.334 162.421 159.336 162.389 159.341C162.357 159.343 162.322 159.345 162.292 159.349L162.12 158.206V158.203L162.092 158.021C162.227 158.077 162.374 158.128 162.522 158.18ZM154.524 192.734H155.83L156.247 194.972C156.099 194.909 155.957 194.845 155.826 194.776C155.819 194.774 155.813 194.769 155.808 194.767C155.761 194.739 155.712 194.718 155.669 194.692C155.441 194.567 155.234 194.438 155.053 194.314C155.015 194.286 154.974 194.258 154.937 194.23C154.901 194.202 154.864 194.178 154.83 194.15C154.759 194.099 154.694 194.049 154.636 193.998C154.458 193.854 154.326 193.733 154.251 193.66C154.238 193.647 154.227 193.635 154.219 193.628C154.212 193.622 154.208 193.617 154.204 193.613C154.29 193.372 154.397 193.076 154.524 192.734ZM154.524 192.734H155.83L156.247 194.972C156.099 194.909 155.957 194.845 155.826 194.776C155.819 194.774 155.813 194.769 155.808 194.767C155.761 194.739 155.712 194.718 155.669 194.692C155.441 194.567 155.234 194.438 155.053 194.314C155.015 194.286 154.974 194.258 154.937 194.23C154.901 194.202 154.864 194.178 154.83 194.15C154.759 194.099 154.694 194.049 154.636 193.998C154.458 193.854 154.326 193.733 154.251 193.66C154.238 193.647 154.227 193.635 154.219 193.628C154.212 193.622 154.208 193.617 154.204 193.613C154.29 193.372 154.397 193.076 154.524 192.734ZM162.522 158.18C162.595 158.208 162.671 158.234 162.746 158.259C162.821 158.287 162.899 158.313 162.976 158.339C163.144 158.148 163.301 157.943 163.447 157.726L164.559 157.595L164.755 158.887L164.86 159.596C164.807 159.586 164.753 159.575 164.699 159.566C164.6 159.547 164.501 159.532 164.407 159.515C164.312 159.497 164.215 159.48 164.123 159.469C164.099 159.465 164.077 159.463 164.056 159.459C163.903 159.433 163.757 159.416 163.615 159.399C163.57 159.392 163.525 159.388 163.482 159.381C163.447 159.377 163.413 159.375 163.38 159.371C163.322 159.364 163.264 159.36 163.208 159.356C163.146 159.349 163.084 159.345 163.023 159.341C162.976 159.338 162.927 159.336 162.881 159.334C162.849 159.334 162.819 159.332 162.789 159.332C162.759 159.33 162.731 159.33 162.701 159.33C162.66 159.33 162.619 159.332 162.58 159.332C162.55 159.332 162.522 159.332 162.492 159.334C162.458 159.334 162.421 159.336 162.389 159.341C162.357 159.343 162.322 159.345 162.292 159.349L162.12 158.206V158.203L162.092 158.021C162.227 158.077 162.374 158.128 162.522 158.18ZM154.524 192.734H155.83L156.247 194.972C156.099 194.909 155.957 194.845 155.826 194.776C155.819 194.774 155.813 194.769 155.808 194.767C155.761 194.739 155.712 194.718 155.669 194.692C155.441 194.567 155.234 194.438 155.053 194.314C155.015 194.286 154.974 194.258 154.937 194.23C154.901 194.202 154.864 194.178 154.83 194.15C154.759 194.099 154.694 194.049 154.636 193.998C154.458 193.854 154.326 193.733 154.251 193.66C154.238 193.647 154.227 193.635 154.219 193.628C154.212 193.622 154.208 193.617 154.204 193.613C154.29 193.372 154.397 193.076 154.524 192.734ZM162.522 158.18C162.595 158.208 162.671 158.234 162.746 158.259C162.821 158.287 162.899 158.313 162.976 158.339C163.144 158.148 163.301 157.943 163.447 157.726L164.559 157.595L164.755 158.887L164.86 159.596C164.807 159.586 164.753 159.575 164.699 159.566C164.6 159.547 164.501 159.532 164.407 159.515C164.312 159.497 164.215 159.48 164.123 159.469C164.099 159.465 164.077 159.463 164.056 159.459C163.903 159.433 163.757 159.416 163.615 159.399C163.57 159.392 163.525 159.388 163.482 159.381C163.447 159.377 163.413 159.375 163.38 159.371C163.322 159.364 163.264 159.36 163.208 159.356C163.146 159.349 163.084 159.345 163.023 159.341C162.976 159.338 162.927 159.336 162.881 159.334C162.849 159.334 162.819 159.332 162.789 159.332C162.759 159.33 162.731 159.33 162.701 159.33C162.66 159.33 162.619 159.332 162.58 159.332C162.55 159.332 162.522 159.332 162.492 159.334C162.458 159.334 162.421 159.336 162.389 159.341C162.357 159.343 162.322 159.345 162.292 159.349L162.12 158.206V158.203L162.092 158.021C162.227 158.077 162.374 158.128 162.522 158.18ZM154.524 192.734H155.83L156.247 194.972C156.099 194.909 155.957 194.845 155.826 194.776C155.819 194.774 155.813 194.769 155.808 194.767C155.761 194.739 155.712 194.718 155.669 194.692C155.441 194.567 155.234 194.438 155.053 194.314C155.015 194.286 154.974 194.258 154.937 194.23C154.901 194.202 154.864 194.178 154.83 194.15C154.759 194.099 154.694 194.049 154.636 193.998C154.458 193.854 154.326 193.733 154.251 193.66C154.238 193.647 154.227 193.635 154.219 193.628C154.212 193.622 154.208 193.617 154.204 193.613C154.29 193.372 154.397 193.076 154.524 192.734ZM162.522 158.18C162.595 158.208 162.671 158.234 162.746 158.259C162.821 158.287 162.899 158.313 162.976 158.339C163.144 158.148 163.301 157.943 163.447 157.726L164.559 157.595L164.755 158.887L164.86 159.596C164.807 159.586 164.753 159.575 164.699 159.566C164.6 159.547 164.501 159.532 164.407 159.515C164.312 159.497 164.215 159.48 164.123 159.469C164.099 159.465 164.077 159.463 164.056 159.459C163.903 159.433 163.757 159.416 163.615 159.399C163.57 159.392 163.525 159.388 163.482 159.381C163.447 159.377 163.413 159.375 163.38 159.371C163.322 159.364 163.264 159.36 163.208 159.356C163.146 159.349 163.084 159.345 163.023 159.341C162.976 159.338 162.927 159.336 162.881 159.334C162.849 159.334 162.819 159.332 162.789 159.332C162.759 159.33 162.731 159.33 162.701 159.33C162.66 159.33 162.619 159.332 162.58 159.332C162.55 159.332 162.522 159.332 162.492 159.334C162.458 159.334 162.421 159.336 162.389 159.341C162.357 159.343 162.322 159.345 162.292 159.349L162.12 158.206V158.203L162.092 158.021C162.227 158.077 162.374 158.128 162.522 158.18ZM154.524 192.734H155.83L156.247 194.972C156.099 194.909 155.957 194.845 155.826 194.776C155.819 194.774 155.813 194.769 155.808 194.767C155.761 194.739 155.712 194.718 155.669 194.692C155.441 194.567 155.234 194.438 155.053 194.314C155.015 194.286 154.974 194.258 154.937 194.23C154.901 194.202 154.864 194.178 154.83 194.15C154.759 194.099 154.694 194.049 154.636 193.998C154.458 193.854 154.326 193.733 154.251 193.66C154.238 193.647 154.227 193.635 154.219 193.628C154.212 193.622 154.208 193.617 154.204 193.613C154.29 193.372 154.397 193.076 154.524 192.734ZM162.522 158.18C162.595 158.208 162.671 158.234 162.746 158.259C162.821 158.287 162.899 158.313 162.976 158.339C163.144 158.148 163.301 157.943 163.447 157.726L164.559 157.595L164.755 158.887L164.86 159.596C164.807 159.586 164.753 159.575 164.699 159.566C164.6 159.547 164.501 159.532 164.407 159.515C164.312 159.497 164.215 159.48 164.123 159.469C164.099 159.465 164.077 159.463 164.056 159.459C163.903 159.433 163.757 159.416 163.615 159.399C163.57 159.392 163.525 159.388 163.482 159.381C163.447 159.377 163.413 159.375 163.38 159.371C163.322 159.364 163.264 159.36 163.208 159.356C163.146 159.349 163.084 159.345 163.023 159.341C162.976 159.338 162.927 159.336 162.881 159.334C162.849 159.334 162.819 159.332 162.789 159.332C162.759 159.33 162.731 159.33 162.701 159.33C162.66 159.33 162.619 159.332 162.58 159.332C162.55 159.332 162.522 159.332 162.492 159.334C162.458 159.334 162.421 159.336 162.389 159.341C162.357 159.343 162.322 159.345 162.292 159.349L162.12 158.206V158.203L162.092 158.021C162.227 158.077 162.374 158.128 162.522 158.18ZM154.524 192.734H155.83L156.247 194.972C156.099 194.909 155.957 194.845 155.826 194.776C155.819 194.774 155.813 194.769 155.808 194.767C155.761 194.739 155.712 194.718 155.669 194.692C155.441 194.567 155.234 194.438 155.053 194.314C155.015 194.286 154.974 194.258 154.937 194.23C154.901 194.202 154.864 194.178 154.83 194.15C154.759 194.099 154.694 194.049 154.636 193.998C154.458 193.854 154.326 193.733 154.251 193.66C154.238 193.647 154.227 193.635 154.219 193.628C154.212 193.622 154.208 193.617 154.204 193.613C154.29 193.372 154.397 193.076 154.524 192.734ZM162.522 158.18C162.595 158.208 162.671 158.234 162.746 158.259C162.821 158.287 162.899 158.313 162.976 158.339C163.144 158.148 163.301 157.943 163.447 157.726L164.559 157.595L164.755 158.887L164.86 159.596C164.807 159.586 164.753 159.575 164.699 159.566C164.6 159.547 164.501 159.532 164.407 159.515C164.312 159.497 164.215 159.48 164.123 159.469C164.099 159.465 164.077 159.463 164.056 159.459C163.903 159.433 163.757 159.416 163.615 159.399C163.57 159.392 163.525 159.388 163.482 159.381C163.447 159.377 163.413 159.375 163.38 159.371C163.322 159.364 163.264 159.36 163.208 159.356C163.146 159.349 163.084 159.345 163.023 159.341C162.976 159.338 162.927 159.336 162.881 159.334C162.849 159.334 162.819 159.332 162.789 159.332C162.759 159.33 162.731 159.33 162.701 159.33C162.66 159.33 162.619 159.332 162.58 159.332C162.55 159.332 162.522 159.332 162.492 159.334C162.458 159.334 162.421 159.336 162.389 159.341C162.357 159.343 162.322 159.345 162.292 159.349L162.12 158.206V158.203L162.092 158.021C162.227 158.077 162.374 158.128 162.522 158.18ZM154.524 192.734H155.83L156.247 194.972C156.099 194.909 155.957 194.845 155.826 194.776C155.819 194.774 155.813 194.769 155.808 194.767C155.761 194.739 155.712 194.718 155.669 194.692C155.441 194.567 155.234 194.438 155.053 194.314C155.015 194.286 154.974 194.258 154.937 194.23C154.901 194.202 154.864 194.178 154.83 194.15C154.759 194.099 154.694 194.049 154.636 193.998C154.458 193.854 154.326 193.733 154.251 193.66C154.238 193.647 154.227 193.635 154.219 193.628C154.212 193.622 154.208 193.617 154.204 193.613C154.29 193.372 154.397 193.076 154.524 192.734ZM162.522 158.18C162.595 158.208 162.671 158.234 162.746 158.259C162.821 158.287 162.899 158.313 162.976 158.339C163.144 158.148 163.301 157.943 163.447 157.726L164.559 157.595L164.755 158.887L164.86 159.596C164.807 159.586 164.753 159.575 164.699 159.566C164.6 159.547 164.501 159.532 164.407 159.515C164.312 159.497 164.215 159.48 164.123 159.469C164.099 159.465 164.077 159.463 164.056 159.459C163.903 159.433 163.757 159.416 163.615 159.399C163.57 159.392 163.525 159.388 163.482 159.381C163.447 159.377 163.413 159.375 163.38 159.371C163.322 159.364 163.264 159.36 163.208 159.356C163.146 159.349 163.084 159.345 163.023 159.341C162.976 159.338 162.927 159.336 162.881 159.334C162.849 159.334 162.819 159.332 162.789 159.332C162.759 159.33 162.731 159.33 162.701 159.33C162.66 159.33 162.619 159.332 162.58 159.332C162.55 159.332 162.522 159.332 162.492 159.334C162.458 159.334 162.421 159.336 162.389 159.341C162.357 159.343 162.322 159.345 162.292 159.349L162.12 158.206V158.203L162.092 158.021C162.227 158.077 162.374 158.128 162.522 158.18ZM154.524 192.734H155.83L156.247 194.972C156.099 194.909 155.957 194.845 155.826 194.776C155.819 194.774 155.813 194.769 155.808 194.767C155.761 194.739 155.712 194.718 155.669 194.692C155.441 194.567 155.234 194.438 155.053 194.314C155.015 194.286 154.974 194.258 154.937 194.23C154.901 194.202 154.864 194.178 154.83 194.15C154.759 194.099 154.694 194.049 154.636 193.998C154.458 193.854 154.326 193.733 154.251 193.66C154.238 193.647 154.227 193.635 154.219 193.628C154.212 193.622 154.208 193.617 154.204 193.613C154.29 193.372 154.397 193.076 154.524 192.734ZM162.522 158.18C162.595 158.208 162.671 158.234 162.746 158.259C162.821 158.287 162.899 158.313 162.976 158.339C163.144 158.148 163.301 157.943 163.447 157.726L164.559 157.595L164.755 158.887L164.86 159.596C164.807 159.586 164.753 159.575 164.699 159.566C164.6 159.547 164.501 159.532 164.407 159.515C164.312 159.497 164.215 159.48 164.123 159.469C164.099 159.465 164.077 159.463 164.056 159.459C163.903 159.433 163.757 159.416 163.615 159.399C163.57 159.392 163.525 159.388 163.482 159.381C163.447 159.377 163.413 159.375 163.38 159.371C163.322 159.364 163.264 159.36 163.208 159.356C163.146 159.349 163.084 159.345 163.023 159.341C162.976 159.338 162.927 159.336 162.881 159.334C162.849 159.334 162.819 159.332 162.789 159.332C162.759 159.33 162.731 159.33 162.701 159.33C162.66 159.33 162.619 159.332 162.58 159.332C162.55 159.332 162.522 159.332 162.492 159.334C162.458 159.334 162.421 159.336 162.389 159.341C162.357 159.343 162.322 159.345 162.292 159.349L162.12 158.206V158.203L162.092 158.021C162.227 158.077 162.374 158.128 162.522 158.18ZM154.524 192.734H155.83L156.247 194.972C156.099 194.909 155.957 194.845 155.826 194.776C155.819 194.774 155.813 194.769 155.808 194.767C155.761 194.739 155.712 194.718 155.669 194.692C155.441 194.567 155.234 194.438 155.053 194.314C155.015 194.286 154.974 194.258 154.937 194.23C154.901 194.202 154.864 194.178 154.83 194.15C154.759 194.099 154.694 194.049 154.636 193.998C154.458 193.854 154.326 193.733 154.251 193.66C154.238 193.647 154.227 193.635 154.219 193.628C154.212 193.622 154.208 193.617 154.204 193.613C154.29 193.372 154.397 193.076 154.524 192.734ZM162.522 158.18C162.595 158.208 162.671 158.234 162.746 158.259C162.821 158.287 162.899 158.313 162.976 158.339C163.144 158.148 163.301 157.943 163.447 157.726L164.559 157.595L164.755 158.887L164.86 159.596C164.807 159.586 164.753 159.575 164.699 159.566C164.6 159.547 164.501 159.532 164.407 159.515C164.312 159.497 164.215 159.48 164.123 159.469C164.099 159.465 164.077 159.463 164.056 159.459C163.903 159.433 163.757 159.416 163.615 159.399C163.57 159.392 163.525 159.388 163.482 159.381C163.447 159.377 163.413 159.375 163.38 159.371C163.322 159.364 163.264 159.36 163.208 159.356C163.146 159.349 163.084 159.345 163.023 159.341C162.976 159.338 162.927 159.336 162.881 159.334C162.849 159.334 162.819 159.332 162.789 159.332C162.759 159.33 162.731 159.33 162.701 159.33C162.66 159.33 162.619 159.332 162.58 159.332C162.55 159.332 162.522 159.332 162.492 159.334C162.458 159.334 162.421 159.336 162.389 159.341C162.357 159.343 162.322 159.345 162.292 159.349L162.12 158.206V158.203L162.092 158.021C162.227 158.077 162.374 158.128 162.522 158.18ZM154.524 192.734H155.83L156.247 194.972C156.099 194.909 155.957 194.845 155.826 194.776C155.819 194.774 155.813 194.769 155.808 194.767C155.761 194.739 155.712 194.718 155.669 194.692C155.441 194.567 155.234 194.438 155.053 194.314C155.015 194.286 154.974 194.258 154.937 194.23C154.901 194.202 154.864 194.178 154.83 194.15C154.759 194.099 154.694 194.049 154.636 193.998C154.458 193.854 154.326 193.733 154.251 193.66C154.238 193.647 154.227 193.635 154.219 193.628C154.212 193.622 154.208 193.617 154.204 193.613C154.29 193.372 154.397 193.076 154.524 192.734ZM162.522 158.18C162.595 158.208 162.671 158.234 162.746 158.259C162.821 158.287 162.899 158.313 162.976 158.339C163.144 158.148 163.301 157.943 163.447 157.726L164.559 157.595L164.755 158.887L164.86 159.596C164.807 159.586 164.753 159.575 164.699 159.566C164.6 159.547 164.501 159.532 164.407 159.515C164.312 159.497 164.215 159.48 164.123 159.469C164.099 159.465 164.077 159.463 164.056 159.459C163.903 159.433 163.757 159.416 163.615 159.399C163.57 159.392 163.525 159.388 163.482 159.381C163.447 159.377 163.413 159.375 163.38 159.371C163.322 159.364 163.264 159.36 163.208 159.356C163.146 159.349 163.084 159.345 163.023 159.341C162.976 159.338 162.927 159.336 162.881 159.334C162.849 159.332 162.819 159.332 162.789 159.332C162.759 159.33 162.731 159.33 162.701 159.33C162.66 159.33 162.619 159.332 162.58 159.332C162.55 159.332 162.522 159.332 162.492 159.334C162.458 159.334 162.421 159.336 162.389 159.341C162.357 159.343 162.322 159.345 162.292 159.349L162.12 158.206V158.203L162.092 158.021C162.227 158.077 162.374 158.128 162.522 158.18ZM87.6258 132.879C88.0453 132.428 88.6842 132.305 89.2198 132.524C89.3811 132.587 89.5317 132.681 89.6651 132.806L93.6684 136.514L94.5482 137.33L101.985 144.217C102.165 144.385 102.301 144.6 102.378 144.836L103.942 149.746L160.096 152.404L161.182 152.454C161.184 152.454 161.184 152.456 161.186 152.454L165.056 152.636L165.297 152.649L172.925 153.01L184.201 153.544L206.377 154.588H206.38L207.335 154.633C207.718 154.653 208.079 154.822 208.337 155.106C208.595 155.388 208.729 155.762 208.709 156.144L206.593 199.571C206.558 200.298 205.982 200.887 205.257 200.938L204.302 201.007L165.304 203.834L131.363 206.293H131.361L121.792 206.985L120.818 207.056L120.362 207.088C120.327 207.09 120.291 207.092 120.259 207.092C119.635 207.09 119.073 206.688 118.882 206.086L118.585 205.155L114.625 192.734L111.538 183.047L106.999 168.811L102.488 154.663L101.514 151.605C101.505 151.581 101.499 151.562 101.492 151.538L99.7475 146.068L93.6748 140.443L92.5906 139.439L92.5885 139.437L87.7076 134.914C87.4107 134.639 87.2558 134.268 87.2472 133.891C87.2343 133.53 87.3612 133.165 87.6258 132.879ZM129.982 153.86L125.383 153.642L119.79 153.378L120.188 154.982L120.297 155.424L122.698 165.088L123.623 168.815L124.002 170.341L135.052 170.434L134.671 168.815L133.798 165.088L131.174 153.918L129.982 153.86ZM126.955 182.225L128.566 188.717L130.147 188.657L132.311 188.573L139.255 188.308L137.827 182.225L135.644 172.933L124.628 172.841L126.955 182.225ZM165.301 187.311L166.519 187.266L165.301 179.225L164.385 173.176L160.354 173.142L152.169 173.071L154.894 187.709L156.54 187.646L156.701 187.64L160.599 187.489L165.301 187.311ZM140.716 183.586L141.802 188.209L152.369 187.803L149.622 173.05L138.216 172.953L140.393 182.221L140.716 183.586ZM146.191 154.627L143.336 154.491L137.519 154.216L133.774 154.04L136.369 165.086L137.244 168.813L137.629 170.453L149.155 170.55L148.832 168.813L148.137 165.086L146.191 154.627ZM159.465 155.257L148.759 154.749L150.682 165.086L151.375 168.813L151.702 170.571L160.369 170.644L162.103 170.659H162.105L164.004 170.677L162.288 159.353L162.116 158.21V158.208L162.088 158.025L162.066 157.888L161.971 157.256L161.683 155.362L159.465 155.257ZM176.597 156.067L165.301 155.532L164.478 155.493L164.237 155.482L164.312 155.981V155.983L164.497 157.206L164.557 157.595L164.753 158.887L164.858 159.596L165.301 162.52L165.753 165.505V165.507L166.54 170.696L169.991 170.726L172.161 170.745L172.699 170.75L173.755 170.758L174.315 170.763L177.709 170.793L177.619 169.61V169.608L177.236 164.534L176.954 160.802L176.812 158.926L176.664 156.972L176.604 156.189L176.597 156.067ZM190.932 156.744L183.96 156.413L182.207 156.329L179.116 156.183L179.172 156.916L179.269 158.208L179.398 159.914V159.917L179.441 160.514L180.22 170.808L181.824 170.823H181.827L184.726 170.849L191.851 170.909L190.932 156.744ZM192.014 173.409L185.146 173.35L180.407 173.312L181.418 186.696L185.324 186.546L187.364 186.466H187.366L192.851 186.256L192.014 173.409ZM205.754 157.447L205.463 157.432L193.447 156.864L194.363 170.932L204.803 171.021L205.093 171.023L205.754 157.447ZM203.77 198.157L204.25 188.321L203.96 188.332L195.514 188.657L196.145 198.344L196.147 198.368L196.17 198.709H196.183L203.478 198.178L203.77 198.157ZM204.373 185.817L204.973 173.52L204.682 173.518L194.527 173.432L195.353 186.161L204.08 185.826L204.373 185.817ZM181.876 192.728L182.403 199.705L183.507 199.625L193.675 198.888L193.466 195.692L193.015 188.751L187.792 188.951L181.607 189.187L181.876 192.728ZM171.06 200.526L179.906 199.885L179.105 189.282L169.412 189.652L171.06 200.526ZM169.036 187.167L178.251 186.817L178.918 186.791L177.899 173.29L173.357 173.252H173.355L172.828 173.247L166.919 173.198L168.651 184.62V184.622L169.036 187.167ZM168.558 200.708L166.898 189.751L165.304 189.811L164.508 189.843H164.49L158.022 190.09L155.546 190.187L155.365 190.193H155.359L155.361 190.204L155.415 190.496L155.832 192.736L156.249 194.974L156.346 195.492V195.494L157.467 201.512L162.75 201.13L165.304 200.945L168.558 200.708ZM145.137 202.404L154.952 201.693L154.767 200.691H154.765V200.689L153.576 194.305L153.283 192.734L152.827 190.288L142.379 190.688L142.861 192.734L145.137 202.404ZM132.2 203.341L142.609 202.587L140.294 192.734L139.836 190.784L129.184 191.191L129.567 192.732L132.2 203.341ZM121.287 204.132L129.668 203.526L126.987 192.736L126.63 191.292L117.307 191.646L117.656 192.736L121.287 204.132ZM114.302 182.225L116.52 189.177L120.969 189.007L121.743 188.977L126.013 188.813L124.378 182.225L122.042 172.82L111.273 172.727L114.302 182.225ZM110.028 168.813L110.477 170.225L121.42 170.315L121.048 168.813L117.183 153.256L114.967 153.15L107.048 152.776L104.88 152.673L110.028 168.813ZM162.522 158.18C162.595 158.208 162.671 158.234 162.746 158.259C162.821 158.287 162.899 158.313 162.976 158.339C163.144 158.148 163.301 157.943 163.447 157.726L164.559 157.595L164.755 158.887L164.86 159.596C164.807 159.586 164.753 159.575 164.699 159.566C164.6 159.547 164.501 159.532 164.407 159.515C164.312 159.497 164.215 159.48 164.123 159.469C164.099 159.465 164.077 159.463 164.056 159.459C163.903 159.433 163.757 159.416 163.615 159.399C163.57 159.392 163.525 159.388 163.482 159.381C163.447 159.377 163.413 159.375 163.38 159.371C163.322 159.364 163.264 159.36 163.208 159.356C163.146 159.349 163.084 159.345 163.023 159.341C162.976 159.338 162.927 159.336 162.881 159.334C162.849 159.334 162.819 159.332 162.789 159.332C162.759 159.33 162.731 159.33 162.701 159.33C162.66 159.33 162.619 159.332 162.58 159.332C162.55 159.332 162.522 159.332 162.492 159.334C162.458 159.334 162.421 159.336 162.389 159.341C162.357 159.343 162.322 159.345 162.292 159.349L162.12 158.206V158.203L162.092 158.021C162.227 158.077 162.374 158.128 162.522 158.18ZM154.524 192.734H155.83L156.247 194.972C156.099 194.909 155.957 194.845 155.826 194.776C155.819 194.774 155.813 194.769 155.808 194.767C155.761 194.739 155.712 194.718 155.669 194.692C155.441 194.567 155.234 194.438 155.053 194.314C155.015 194.286 154.974 194.258 154.937 194.23C154.901 194.202 154.864 194.178 154.83 194.15C154.759 194.099 154.694 194.049 154.636 193.998C154.458 193.854 154.326 193.733 154.251 193.66C154.238 193.647 154.227 193.635 154.219 193.628C154.212 193.622 154.208 193.617 154.204 193.613C154.29 193.372 154.397 193.076 154.524 192.734ZM162.522 158.18C162.595 158.208 162.671 158.234 162.746 158.259C162.821 158.287 162.899 158.313 162.976 158.339C163.144 158.148 163.301 157.943 163.447 157.726L164.559 157.595L164.755 158.887L164.86 159.596C164.807 159.586 164.753 159.575 164.699 159.566C164.6 159.547 164.501 159.532 164.407 159.515C164.312 159.497 164.215 159.48 164.123 159.469C164.099 159.465 164.077 159.463 164.056 159.459C163.903 159.433 163.757 159.416 163.615 159.399C163.57 159.392 163.525 159.388 163.482 159.381C163.447 159.377 163.413 159.375 163.38 159.371C163.322 159.364 163.264 159.36 163.208 159.356C163.146 159.349 163.084 159.345 163.023 159.341C162.976 159.338 162.927 159.336 162.881 159.334C162.849 159.334 162.819 159.332 162.789 159.332C162.759 159.33 162.731 159.33 162.701 159.33C162.66 159.33 162.619 159.332 162.58 159.332C162.55 159.332 162.522 159.332 162.492 159.334C162.458 159.334 162.421 159.336 162.389 159.341C162.357 159.343 162.322 159.345 162.292 159.349L162.12 158.206V158.203L162.092 158.021C162.227 158.077 162.374 158.128 162.522 158.18ZM154.524 192.734H155.83L156.247 194.972C156.099 194.909 155.957 194.845 155.826 194.776C155.819 194.774 155.813 194.769 155.808 194.767C155.761 194.739 155.712 194.718 155.669 194.692C155.441 194.567 155.234 194.438 155.053 194.314C155.015 194.286 154.974 194.258 154.937 194.23C154.901 194.202 154.864 194.178 154.83 194.15C154.759 194.099 154.694 194.049 154.636 193.998C154.458 193.854 154.326 193.733 154.251 193.66C154.238 193.647 154.227 193.635 154.219 193.628C154.212 193.622 154.208 193.617 154.204 193.613C154.29 193.372 154.397 193.076 154.524 192.734ZM162.522 158.18C162.595 158.208 162.671 158.234 162.746 158.259C162.821 158.287 162.899 158.313 162.976 158.339C163.144 158.148 163.301 157.943 163.447 157.726L164.559 157.595L164.755 158.887L164.86 159.596C164.807 159.586 164.753 159.575 164.699 159.566C164.6 159.547 164.501 159.532 164.407 159.515C164.312 159.497 164.215 159.48 164.123 159.469C164.099 159.465 164.077 159.463 164.056 159.459C163.903 159.433 163.757 159.416 163.615 159.399C163.57 159.392 163.525 159.388 163.482 159.381C163.447 159.377 163.413 159.375 163.38 159.371C163.322 159.364 163.264 159.36 163.208 159.356C163.146 159.349 163.084 159.345 163.023 159.341C162.976 159.338 162.927 159.336 162.881 159.334C162.849 159.334 162.819 159.332 162.789 159.332C162.759 159.33 162.731 159.33 162.701 159.33C162.66 159.33 162.619 159.332 162.58 159.332C162.55 159.332 162.522 159.332 162.492 159.334C162.458 159.334 162.421 159.336 162.389 159.341C162.357 159.343 162.322 159.345 162.292 159.349L162.12 158.206V158.203L162.092 158.021C162.227 158.077 162.374 158.128 162.522 158.18ZM154.524 192.734H155.83L156.247 194.972C156.099 194.909 155.957 194.845 155.826 194.776C155.819 194.774 155.813 194.769 155.808 194.767C155.761 194.739 155.712 194.718 155.669 194.692C155.441 194.567 155.234 194.438 155.053 194.314C155.015 194.286 154.974 194.258 154.937 194.23C154.901 194.202 154.864 194.178 154.83 194.15C154.759 194.099 154.694 194.049 154.636 193.998C154.458 193.854 154.326 193.733 154.251 193.66C154.238 193.647 154.227 193.635 154.219 193.628C154.212 193.622 154.208 193.617 154.204 193.613C154.29 193.372 154.397 193.076 154.524 192.734ZM162.522 158.18C162.595 158.208 162.671 158.234 162.746 158.259C162.821 158.287 162.899 158.313 162.976 158.339C163.144 158.148 163.301 157.943 163.447 157.726L164.559 157.595L164.755 158.887L164.86 159.596C164.807 159.586 164.753 159.575 164.699 159.566C164.6 159.547 164.501 159.532 164.407 159.515C164.312 159.497 164.215 159.48 164.123 159.469C164.099 159.465 164.077 159.463 164.056 159.459C163.903 159.433 163.757 159.416 163.615 159.399C163.57 159.392 163.525 159.388 163.482 159.381C163.447 159.377 163.413 159.375 163.38 159.371C163.322 159.364 163.264 159.36 163.208 159.356C163.146 159.349 163.084 159.345 163.023 159.341C162.976 159.338 162.927 159.336 162.881 159.334C162.849 159.334 162.819 159.332 162.789 159.332C162.759 159.33 162.731 159.33 162.701 159.33C162.66 159.33 162.619 159.332 162.58 159.332C162.55 159.332 162.522 159.332 162.492 159.334C162.458 159.334 162.421 159.336 162.389 159.341C162.357 159.343 162.322 159.345 162.292 159.349L162.12 158.206V158.203L162.092 158.021C162.227 158.077 162.374 158.128 162.522 158.18ZM154.524 192.734H155.83L156.247 194.972C156.099 194.909 155.957 194.845 155.826 194.776C155.819 194.774 155.813 194.769 155.808 194.767C155.761 194.739 155.712 194.718 155.669 194.692C155.441 194.567 155.234 194.438 155.053 194.314C155.015 194.286 154.974 194.258 154.937 194.23C154.901 194.202 154.864 194.178 154.83 194.15C154.759 194.099 154.694 194.049 154.636 193.998C154.458 193.854 154.326 193.733 154.251 193.66C154.238 193.647 154.227 193.635 154.219 193.628C154.212 193.622 154.208 193.617 154.204 193.613C154.29 193.372 154.397 193.076 154.524 192.734ZM162.522 158.18C162.595 158.208 162.671 158.234 162.746 158.259C162.821 158.287 162.899 158.313 162.976 158.339C163.144 158.148 163.301 157.943 163.447 157.726L164.559 157.595L164.755 158.887L164.86 159.596C164.807 159.586 164.753 159.575 164.699 159.566C164.6 159.547 164.501 159.532 164.407 159.515C164.312 159.497 164.215 159.48 164.123 159.469C164.099 159.465 164.077 159.463 164.056 159.459C163.903 159.433 163.757 159.416 163.615 159.399C163.57 159.392 163.525 159.388 163.482 159.381C163.447 159.377 163.413 159.375 163.38 159.371C163.322 159.364 163.264 159.36 163.208 159.356C163.146 159.349 163.084 159.345 163.023 159.341C162.976 159.338 162.927 159.336 162.881 159.334C162.849 159.334 162.819 159.332 162.789 159.332C162.759 159.33 162.731 159.33 162.701 159.33C162.66 159.33 162.619 159.332 162.58 159.332C162.55 159.332 162.522 159.332 162.492 159.334C162.458 159.334 162.421 159.336 162.389 159.341C162.357 159.343 162.322 159.345 162.292 159.349L162.12 158.206V158.203L162.092 158.021C162.227 158.077 162.374 158.128 162.522 158.18ZM154.524 192.734H155.83L156.247 194.972C156.099 194.909 155.957 194.845 155.826 194.776C155.819 194.774 155.813 194.769 155.808 194.767C155.761 194.739 155.712 194.718 155.669 194.692C155.441 194.567 155.234 194.438 155.053 194.314C155.015 194.286 154.974 194.258 154.937 194.23C154.901 194.202 154.864 194.178 154.83 194.15C154.759 194.099 154.694 194.049 154.636 193.998C154.458 193.854 154.326 193.733 154.251 193.66C154.238 193.647 154.227 193.635 154.219 193.628C154.212 193.622 154.208 193.617 154.204 193.613C154.29 193.372 154.397 193.076 154.524 192.734ZM162.522 158.18C162.595 158.208 162.671 158.234 162.746 158.259C162.821 158.287 162.899 158.313 162.976 158.339C163.144 158.148 163.301 157.943 163.447 157.726L164.559 157.595L164.755 158.887L164.86 159.596C164.807 159.586 164.753 159.575 164.699 159.566C164.6 159.547 164.501 159.532 164.407 159.515C164.312 159.497 164.215 159.48 164.123 159.469C164.099 159.465 164.077 159.463 164.056 159.459C163.903 159.433 163.757 159.416 163.615 159.399C163.57 159.392 163.525 159.388 163.482 159.381C163.447 159.377 163.413 159.375 163.38 159.371C163.322 159.364 163.264 159.36 163.208 159.356C163.146 159.349 163.084 159.345 163.023 159.341C162.976 159.338 162.927 159.336 162.881 159.334C162.849 159.334 162.819 159.332 162.789 159.332C162.759 159.33 162.731 159.33 162.701 159.33C162.66 159.33 162.619 159.332 162.58 159.332C162.55 159.332 162.522 159.332 162.492 159.334C162.458 159.334 162.421 159.336 162.389 159.341C162.357 159.343 162.322 159.345 162.292 159.349L162.12 158.206V158.203L162.092 158.021C162.227 158.077 162.374 158.128 162.522 158.18ZM154.524 192.734H155.83L156.247 194.972C156.099 194.909 155.957 194.845 155.826 194.776C155.819 194.774 155.813 194.769 155.808 194.767C155.761 194.739 155.712 194.718 155.669 194.692C155.441 194.567 155.234 194.438 155.053 194.314C155.015 194.286 154.974 194.258 154.937 194.23C154.901 194.202 154.864 194.178 154.83 194.15C154.759 194.099 154.694 194.049 154.636 193.998C154.458 193.854 154.326 193.733 154.251 193.66C154.238 193.647 154.227 193.635 154.219 193.628C154.212 193.622 154.208 193.617 154.204 193.613C154.29 193.372 154.397 193.076 154.524 192.734ZM162.522 158.18C162.595 158.208 162.671 158.234 162.746 158.259C162.821 158.287 162.899 158.313 162.976 158.339C163.144 158.148 163.301 157.943 163.447 157.726L164.559 157.595L164.755 158.887L164.86 159.596C164.807 159.586 164.753 159.575 164.699 159.566C164.6 159.547 164.501 159.532 164.407 159.515C164.312 159.497 164.215 159.48 164.123 159.469C164.099 159.465 164.077 159.463 164.056 159.459C163.903 159.433 163.757 159.416 163.615 159.399C163.57 159.392 163.525 159.388 163.482 159.381C163.447 159.377 163.413 159.375 163.38 159.371C163.322 159.364 163.264 159.36 163.208 159.356C163.146 159.349 163.084 159.345 163.023 159.341C162.976 159.338 162.927 159.336 162.881 159.334C162.849 159.334 162.819 159.332 162.789 159.332C162.759 159.33 162.731 159.33 162.701 159.33C162.66 159.33 162.619 159.332 162.58 159.332C162.55 159.332 162.522 159.332 162.492 159.334C162.458 159.334 162.421 159.336 162.389 159.341C162.357 159.343 162.322 159.345 162.292 159.349L162.12 158.206V158.203L162.092 158.021C162.227 158.077 162.374 158.128 162.522 158.18ZM154.524 192.734H155.83L156.247 194.972C156.099 194.909 155.957 194.845 155.826 194.776C155.819 194.774 155.813 194.769 155.808 194.767C155.761 194.739 155.712 194.718 155.669 194.692C155.441 194.567 155.234 194.438 155.053 194.314C155.015 194.286 154.974 194.258 154.937 194.23C154.901 194.202 154.864 194.178 154.83 194.15C154.759 194.099 154.694 194.049 154.636 193.998C154.458 193.854 154.326 193.733 154.251 193.66C154.238 193.647 154.227 193.635 154.219 193.628C154.212 193.622 154.208 193.617 154.204 193.613C154.29 193.372 154.397 193.076 154.524 192.734ZM162.522 158.18C162.595 158.208 162.671 158.234 162.746 158.259C162.821 158.287 162.899 158.313 162.976 158.339C163.144 158.148 163.301 157.943 163.447 157.726L164.559 157.595L164.755 158.887L164.86 159.596C164.807 159.586 164.753 159.575 164.699 159.566C164.6 159.547 164.501 159.532 164.407 159.515C164.312 159.497 164.215 159.48 164.123 159.469C164.099 159.465 164.077 159.463 164.056 159.459C163.903 159.433 163.757 159.416 163.615 159.399C163.57 159.392 163.525 159.388 163.482 159.381C163.447 159.377 163.413 159.375 163.38 159.371C163.322 159.364 163.264 159.36 163.208 159.356C163.146 159.349 163.084 159.345 163.023 159.341C162.976 159.338 162.927 159.336 162.881 159.334C162.849 159.334 162.819 159.332 162.789 159.332C162.759 159.33 162.731 159.33 162.701 159.33C162.66 159.33 162.619 159.332 162.58 159.332C162.55 159.332 162.522 159.332 162.492 159.334C162.458 159.334 162.421 159.336 162.389 159.341C162.357 159.343 162.322 159.345 162.292 159.349L162.12 158.206V158.203L162.092 158.021C162.227 158.077 162.374 158.128 162.522 158.18ZM154.524 192.734H155.83L156.247 194.972C156.099 194.909 155.957 194.845 155.826 194.776C155.819 194.774 155.813 194.769 155.808 194.767C155.761 194.739 155.712 194.718 155.669 194.692C155.441 194.567 155.234 194.438 155.053 194.314C155.015 194.286 154.974 194.258 154.937 194.23C154.901 194.202 154.864 194.178 154.83 194.15C154.759 194.099 154.694 194.049 154.636 193.998C154.458 193.854 154.326 193.733 154.251 193.66C154.238 193.647 154.227 193.635 154.219 193.628C154.212 193.622 154.208 193.617 154.204 193.613C154.29 193.372 154.397 193.076 154.524 192.734ZM162.522 158.18C162.595 158.208 162.671 158.234 162.746 158.259C162.821 158.287 162.899 158.313 162.976 158.339C163.144 158.148 163.301 157.943 163.447 157.726L164.559 157.595L164.755 158.887L164.86 159.596C164.807 159.586 164.753 159.575 164.699 159.566C164.6 159.547 164.501 159.532 164.407 159.515C164.312 159.497 164.215 159.48 164.123 159.469C164.099 159.465 164.077 159.463 164.056 159.459C163.903 159.433 163.757 159.416 163.615 159.399C163.57 159.392 163.525 159.388 163.482 159.381C163.447 159.377 163.413 159.375 163.38 159.371C163.322 159.364 163.264 159.36 163.208 159.356C163.146 159.349 163.084 159.345 163.023 159.341C162.976 159.338 162.927 159.336 162.881 159.334C162.849 159.334 162.819 159.332 162.789 159.332C162.759 159.33 162.731 159.33 162.701 159.33C162.66 159.33 162.619 159.332 162.58 159.332C162.55 159.332 162.522 159.332 162.492 159.334C162.458 159.334 162.421 159.336 162.389 159.341C162.357 159.343 162.322 159.345 162.292 159.349L162.12 158.206V158.203L162.092 158.021C162.227 158.077 162.374 158.128 162.522 158.18ZM154.524 192.734H155.83L156.247 194.972C156.099 194.909 155.957 194.845 155.826 194.776C155.819 194.774 155.813 194.769 155.808 194.767C155.761 194.739 155.712 194.718 155.669 194.692C155.441 194.567 155.234 194.438 155.053 194.314C155.015 194.286 154.974 194.258 154.937 194.23C154.901 194.202 154.864 194.178 154.83 194.15C154.759 194.099 154.694 194.049 154.636 193.998C154.458 193.854 154.326 193.733 154.251 193.66C154.238 193.647 154.227 193.635 154.219 193.628C154.212 193.622 154.208 193.617 154.204 193.613C154.29 193.372 154.397 193.076 154.524 192.734Z" fill="#00AF8D"/>
<path d="M92.8682 139.463C93.3479 139.463 93.8255 139.265 94.1675 138.878C94.7999 138.162 94.7311 137.068 94.0148 136.436L87.7141 130.886C86.9956 130.255 85.9007 130.323 85.2682 131.039C84.6358 131.755 84.7025 132.849 85.421 133.481L91.7217 139.031C92.0508 139.321 92.4595 139.463 92.8682 139.463Z" fill="#284663"/>
<path d="M205.152 201.231C206.07 201.231 206.836 200.511 206.881 199.586L208.998 156.159C209.045 155.205 208.307 154.395 207.352 154.347C206.391 154.298 205.584 155.037 205.537 155.99L203.42 199.417C203.373 200.371 204.11 201.181 205.066 201.229C205.094 201.231 205.124 201.231 205.152 201.231Z" fill="#00AF8D"/>
<path d="M106.507 244.088L108.443 232.453C107.677 232.417 107.068 231.787 107.068 231.015V215.26C107.068 214.828 107.262 214.42 107.597 214.144L119.34 204.536C119.958 204.031 120.868 204.122 121.373 204.739C121.879 205.353 121.788 206.262 121.171 206.768L109.957 215.943V229.603L192.675 231.095L195.349 223.582C195.615 222.832 196.442 222.441 197.192 222.708C197.943 222.974 198.337 223.797 198.07 224.548L195.529 231.686L206.638 236.017C207.38 236.307 207.748 237.143 207.458 237.883C207.234 238.452 206.69 238.8 206.113 238.8C205.939 238.8 205.76 238.768 205.588 238.702L193.509 233.992L191.776 233.96L184.006 245.096C183.606 245.67 182.855 245.283 182.889 244.516L183.352 233.809L117.17 232.617L107.378 244.578C107.031 244.993 106.414 244.647 106.507 244.088Z" fill="#00AF8D"/>
<path d="M171.841 151.407C170.826 150.771 168.397 151.205 168.01 151.278C166.616 150.491 162.602 147.826 160.696 146.259C160.279 145.915 160.281 145.176 160.569 144.718C161.313 143.534 162.563 141.485 162.976 140.438C163.579 138.912 167.584 130.282 165.168 129.642C165.168 129.642 156.828 128.572 153.483 145.025C153.214 146.345 153.548 147.723 154.471 148.705C156.062 150.399 159.547 152.851 167.554 153.625C167.554 153.625 170.081 155.156 172.514 153.679C173.291 153.208 172.947 152.097 171.841 151.407Z" fill="#FFB48D"/>
<path d="M165.874 126.072C165.874 126.072 160.055 126.072 156.383 134.495C156.383 134.495 158.308 137.107 164.88 138.326C164.88 138.326 168.735 129.167 165.874 126.072Z" fill="#FBAE25"/>
<path d="M201.198 105.085C201.31 105.018 201.348 104.872 201.279 104.758L159.883 35.4736L159.474 35.7165L200.871 105.003C200.937 105.115 201.084 105.151 201.198 105.085Z" fill="white"/>
<path d="M141.366 27.0638C136.887 19.5831 137.524 10.9679 142.788 7.82125C148.052 4.67464 155.95 8.18818 160.429 15.669C164.908 23.1497 164.271 31.7649 159.007 34.9116C153.743 38.0582 145.845 34.5446 141.366 27.0638Z" fill="#00AF8D"/>
<path d="M148.162 13.3797C150.199 14.7274 152.518 14.8133 153.341 13.5731C154.163 12.3329 153.18 10.2351 151.141 8.88953C149.104 7.54184 146.785 7.45586 145.961 8.69608C145.139 9.9363 146.124 12.032 148.162 13.3797Z" fill="#CCE5C6"/>
<path d="M141.357 27.0478C139.647 24.187 138.688 21.1627 138.447 18.3405C138.929 20.2879 139.737 22.2718 140.878 24.1848C145.35 31.6691 153.247 35.192 158.517 32.056C161.772 30.1172 163.262 26.0913 162.873 21.5324C164.183 26.8222 163.092 31.8432 159.767 34.3946L160.698 34.9147C161.126 35.1533 161.137 35.7681 160.713 36.0174L159.466 36.7611C159.044 37.0126 158.506 36.7138 158.5 36.2237L158.485 35.1985C153.227 37.8272 145.688 34.2935 141.357 27.0478Z" fill="#008175"/>
<path d="M158.36 35.5338C158.401 35.5338 158.444 35.523 158.483 35.4994L160.051 34.5665C160.163 34.4999 160.201 34.3537 160.132 34.2398C160.066 34.128 159.92 34.0894 159.806 34.1581L158.237 35.091C158.125 35.1576 158.087 35.3038 158.156 35.4177C158.201 35.4929 158.278 35.5338 158.36 35.5338Z" fill="white"/>
<path d="M200.279 105.085C200.378 104.997 200.387 104.848 200.299 104.75L131.266 27.0909L130.909 27.4068L199.944 105.065C200.032 105.162 200.183 105.173 200.279 105.085Z" fill="white"/>
<path d="M111.859 21.0037C117.215 27.884 125.486 30.416 130.33 26.6567C135.175 22.8995 134.76 14.2738 129.403 7.39353C124.047 0.513226 115.776 -2.0188 110.931 1.74055C106.087 5.49989 106.502 14.1234 111.859 21.0037Z" fill="#FA412B"/>
<path d="M116.933 6.60685C119.121 7.69445 121.433 7.49671 122.098 6.16407C122.763 4.83357 121.528 2.87115 119.34 1.78354C117.153 0.695934 114.84 0.893681 114.176 2.22632C113.511 3.55897 114.746 5.51924 116.933 6.60685Z" fill="#F7BCAB"/>
<path d="M111.859 21.0037C109.811 18.3728 108.486 15.4883 107.901 12.7177C108.619 14.5919 109.665 16.4619 111.031 18.2202C116.387 25.1005 124.658 27.6325 129.502 23.8732C132.495 21.5518 133.48 17.3733 132.533 12.8961C134.484 17.9859 134.018 23.1037 131.03 26.0419L132.019 26.4439C132.475 26.6287 132.559 27.237 132.17 27.5379L131.021 28.4278C130.634 28.7287 130.064 28.4987 129.997 28.0108L129.857 26.9963C124.964 30.2505 117.045 27.6669 111.859 21.0037Z" fill="#E33115"/>
<path d="M129.746 27.3509C129.797 27.3509 129.849 27.3337 129.892 27.3015L131.333 26.1838C131.436 26.1043 131.456 25.9538 131.374 25.8506C131.292 25.7475 131.144 25.7281 131.041 25.8098L129.599 26.9275C129.496 27.0092 129.477 27.1575 129.558 27.2606C129.606 27.3187 129.675 27.3509 129.746 27.3509Z" fill="white"/>
<path d="M199.141 104.44C199.227 104.339 199.214 104.191 199.113 104.105L127.104 43.0826L126.796 43.4458L198.806 104.466C198.907 104.552 199.057 104.539 199.141 104.44Z" fill="white"/>
<path d="M106.741 42.5237C113.782 47.6737 122.432 47.8457 126.058 42.9041C129.685 37.9648 126.917 29.7841 119.874 24.634C112.833 19.484 104.183 19.3121 100.557 24.2536C96.9297 29.193 99.6983 37.3737 106.741 42.5237Z" fill="#FBAE25"/>
<path d="M107.666 27.2886C110.069 27.7357 112.237 26.9124 112.51 25.4508C112.784 23.9892 111.056 22.4416 108.653 21.9946C106.251 21.5475 104.082 22.3707 103.809 23.8323C103.536 25.2939 105.263 26.8415 107.666 27.2886Z" fill="#F4BF8C"/>
<path d="M106.741 42.5237C104.05 40.5548 101.983 38.1432 100.658 35.6391C101.862 37.2447 103.381 38.7579 105.179 40.0734C112.22 45.2234 120.87 45.3953 124.497 40.4538C126.736 37.4016 126.536 33.1135 124.395 29.0683C127.669 33.4295 128.627 38.4763 126.562 42.1218L127.622 42.2378C128.11 42.2916 128.358 42.8526 128.067 43.2481L127.209 44.4195C126.919 44.815 126.308 44.7484 126.11 44.2991L125.697 43.362C121.883 47.8285 113.558 47.5104 106.741 42.5237Z" fill="#EA911B"/>
<path d="M125.619 43.7381C125.692 43.7381 125.766 43.7037 125.811 43.6414L126.888 42.1712C126.966 42.0659 126.942 41.9176 126.837 41.838C126.731 41.7607 126.581 41.7843 126.503 41.8896L125.426 43.3598C125.348 43.4652 125.372 43.6135 125.477 43.693C125.52 43.7231 125.57 43.7381 125.619 43.7381Z" fill="white"/>
<path d="M199.361 104.868C199.466 104.79 199.49 104.642 199.412 104.535L174.1 69.8472L173.715 70.1266L199.027 104.816C199.105 104.921 199.253 104.945 199.361 104.868Z" fill="white"/>
<path d="M154.983 62.9226C149.93 55.8167 149.888 47.1784 154.888 43.6285C159.889 40.0786 168.038 42.9614 173.091 50.0673C178.144 57.1733 178.186 65.8116 173.186 69.3615C168.186 72.9113 160.036 70.0286 154.983 62.9226Z" fill="#117C93"/>
<path d="M160.681 48.7441C162.819 49.9263 165.136 49.8317 165.859 48.5313C166.582 47.2309 165.435 45.2169 163.297 44.0347C161.159 42.8526 158.842 42.9471 158.119 44.2475C157.396 45.5458 158.545 47.5598 160.681 48.7441Z" fill="#A3C2EF"/>
<path d="M154.972 62.9024C153.043 60.1834 151.849 57.243 151.386 54.4487C152.021 56.3531 152.98 58.2682 154.269 60.0845C159.315 67.1948 167.464 70.0901 172.472 66.55C175.565 64.364 176.733 60.2328 175.987 55.7169C177.71 60.8884 177.017 65.9782 173.9 68.7832L174.87 69.2281C175.318 69.4323 175.374 70.0428 174.973 70.3265L173.786 71.1648C173.386 71.4485 172.827 71.1927 172.781 70.7026L172.687 69.6817C167.653 72.7188 159.857 69.787 154.972 62.9024Z" fill="#106977"/>
<path d="M172.57 70.032C172.618 70.032 172.665 70.017 172.708 69.989L174.197 68.9358C174.304 68.8606 174.33 68.7123 174.253 68.6048C174.177 68.4973 174.029 68.4715 173.921 68.5489L172.433 69.6021C172.325 69.6774 172.299 69.8257 172.377 69.9331C172.422 69.9976 172.495 70.032 172.57 70.032Z" fill="white"/>
<path d="M199.615 100.335C199.615 100.335 198.808 103.817 197.037 103.997C195.267 104.18 192.692 101.874 195.62 99.4533C197.532 97.8928 199.64 97.996 199.615 100.335Z" fill="#FFB48D"/>
</svg>
