<svg width="160" height="286" viewBox="0 0 160 286" fill="none" xmlns="http://www.w3.org/2000/svg">
<path d="M114.967 16.9006C114.967 16.9006 127.752 25.1764 159.261 24.0499C159.261 24.0499 125.487 36.803 112.283 38.7759L106.85 17.3108L114.967 16.9006Z" fill="#E25A44"/>
<path d="M120.993 27.7097C120.993 27.7097 118.413 33.7526 112.283 38.7758L109.453 27.5912L109.635 22.1809L120.993 27.7097Z" fill="#B75742"/>
<path d="M72.3978 4.65582C72.3978 4.65582 109.317 2.16008 115.056 4.26875L120.99 27.7068C120.99 27.7068 99.9751 25.9014 79.5037 32.73L72.3978 4.65582Z" fill="#F47458"/>
<path d="M50.1614 265.917C50.1614 265.917 48.3821 268.82 48.5438 269.681C48.7056 270.542 50.8431 279.641 52.0217 280.244C53.2002 280.845 56.1841 280.73 55.514 281.911C55.0085 282.804 49.6733 283.991 46.1145 284.687C45.0746 284.889 41.721 277.041 41.0104 275.943C39.9792 274.349 37.5527 270.781 37.7781 269.43C37.8878 268.771 38.8295 267.237 40.3027 265.654C41.851 263.99 42.9486 260.879 42.9486 260.879L50.1614 265.917Z" fill="#F48C7F"/>
<path d="M75.9912 265.088C75.9912 265.088 75.3904 271.596 75.3904 271.611C75.4741 272.596 75.4453 275.091 75.6648 275.949C76.4823 279.182 89.5416 269.517 85.9135 268.913C85.5842 268.858 84.397 268.058 84.0215 266.983C83.4438 265.328 84.2815 262.853 84.2815 262.853L75.9912 265.088Z" fill="#F7A491"/>
<path d="M70.6935 148.1C70.6935 148.1 74.466 158.537 74.5065 158.696C78.8914 176.013 90.8877 208.972 91.061 212.392C91.4798 220.737 84.5934 265.588 84.5934 265.588L75.0495 266.827L74.8416 215.269L65.4565 196.871L49.3989 159.874L70.6935 148.1Z" fill="#3C8F7C"/>
<path d="M41.9983 165.443L42.81 176.036L48.6276 218.998L40.8486 264.398C40.8486 264.398 44.9013 269.693 48.8702 269.574L67.0886 220.373L71.4215 162.22L67.7761 150.466L41.9983 165.443Z" fill="#50BFA5"/>
<path d="M40.4067 265.565C40.4067 265.565 49.731 279.517 52.0506 279.716C52.6658 279.768 55.5082 279.58 56.3228 280.652C56.5683 280.975 57.0883 282.59 57.0883 282.59L45.3895 285.958C45.3895 285.958 42.2265 278.705 40.9093 275.883C40.9093 275.883 36.0709 269.392 36.2356 268.65C36.4031 267.904 40.4067 265.565 40.4067 265.565Z" fill="#13375B"/>
<path d="M75.0813 277.607L75.4366 271.535C75.4366 271.535 79.316 272.13 81.0058 271.44C82.6956 270.75 85.8673 268.895 85.8673 268.895C93.4441 269.427 99.4552 269.092 98.8833 271.209L75.0813 277.607Z" fill="#13375B"/>
<path d="M93.187 112.88L98.2333 116.751C99.2068 116.002 101.333 112.845 102.708 111.863L98.0976 106.834C97.7163 106.557 97.5141 106.097 97.5574 105.63C97.5892 105.3 97.6354 104.985 97.6845 104.855C97.8289 104.457 97.956 103.983 98.1004 103.587C98.2449 103.189 97.2916 102.391 96.7919 102.25C96.2922 102.108 96.1275 104.023 95.9109 104.595C95.2581 106.314 94.4695 111.02 94.3193 111.8L93.187 112.88Z" fill="#F48C7F"/>
<path d="M98.7764 116.259C97.3581 114.749 95.3592 113.9 93.8773 112.328L71.4879 127.745C71.4879 127.745 54.1766 107.273 44.7771 114.526C48.8904 121.453 53.8502 128.091 56.4037 131.254C62.152 138.372 70.9304 141.769 72.6433 140.983C74.5729 140.099 98.2738 116.869 98.7764 116.259Z" fill="#13375B"/>
<path d="M0.847462 65.0188C1.58694 66.9917 2.86947 70.097 2.86947 70.097C2.90703 70.9895 3.08901 74.6956 3.32298 79.2365L9.62299 75.7846C9.62299 75.7846 8.65532 68.4534 8.89796 67.971C9.10305 67.5608 9.57967 67.9854 11.2579 64.834C11.7432 63.9241 11.671 62.4133 11.671 62.4133C11.671 62.4133 11.5699 60.556 11.1337 60.4346C10.7004 60.3133 10.2585 60.6455 10.1458 60.9835C10.0332 61.3214 10.1632 62.058 10.0505 62.3931C9.93785 62.7311 9.02795 63.2308 8.62354 63.2597C8.21914 63.2886 8.01405 57.8003 8.01405 57.8003C8.01405 57.8003 8.0516 56.2317 8.10649 55.7147C8.1527 55.2727 8.38957 53.9642 8.38957 53.9642C8.38957 53.9642 8.62643 52.0808 8.04294 52.0086C7.69919 51.9653 7.02615 53.5569 6.63042 55.2034C6.20579 56.977 6.06714 58.8228 5.88516 58.8199C5.45476 58.8141 5.319 55.8071 5.319 55.8071C5.319 55.8071 5.57608 54.3917 5.48654 53.7476C5.78984 52.9099 5.8765 51.4136 5.16013 51.3789C5.02725 51.3731 4.3311 53.3432 4.3311 53.3432C4.3311 53.3432 4.12601 54.695 3.99025 55.3334C3.7476 56.4571 3.89781 58.17 3.79382 58.9441C3.70716 59.5883 3.53096 59.3485 3.46741 59.3832C3.41831 59.4092 3.40386 58.5368 3.36342 57.3381C3.3432 56.7344 3.19011 56.0555 3.27677 55.3536C3.35476 54.7066 3.33454 53.7938 3.30854 53.2449C3.23632 51.6909 2.28598 51.9653 2.11844 53.4154C2.05489 53.9671 1.99134 54.5679 1.93068 55.1803C1.68804 57.5518 1.97401 59.776 1.72559 59.8251C1.40496 59.8887 1.12766 55.81 1.12766 55.81C1.12766 55.81 0.35929 53.6262 0.119538 55.7696C-0.160655 58.2538 0.136869 60.2151 0.157089 60.3018C0.27841 60.8853 0.105095 63.0459 0.847462 65.0188Z" fill="#F8A492"/>
<path d="M45.0458 83.8725C45.0458 83.8725 41.2473 80.7268 39.0577 85.3774C39.0577 85.3774 36.8277 84.4588 35.6145 86.7235C35.6145 86.7235 31.7034 86.0447 31.4723 91.7959C31.4723 91.7959 29.4878 91.663 29.5109 94.0027C29.5341 96.3425 30.8917 97.7377 30.8917 97.7377C30.8917 97.7377 29.9009 98.688 30.6519 100.748C31.2903 102.501 32.8184 102.593 32.8184 102.593C32.8184 102.593 33.5896 105.586 35.0195 106.34C36.4493 107.097 38.1912 106.438 38.1912 106.438C38.1912 106.438 38.8671 108.03 40.3865 107.695C41.9059 107.362 43.6333 105.667 45.4357 106.117C47.2382 106.568 51.6202 105.332 51.6202 105.332C51.6202 105.332 56.369 102.489 54.2459 97.5442C54.2459 97.5442 56.5944 94.8433 53.9426 92.2667C53.9426 92.2667 55.0865 87.593 51.4353 85.3601C47.7813 83.133 45.0458 83.8725 45.0458 83.8725Z" fill="#F47458"/>
<path d="M55.7971 116.199L48.0643 112.221C48.0643 112.221 41.1952 113.224 40.3431 113.328C39.491 113.432 37.8878 145.434 37.7521 157.422C37.6163 169.409 39.0808 171.351 39.0808 171.351C39.0808 171.351 50.2741 172.483 58.2495 170.793C66.5426 169.037 75.425 163.369 75.425 163.369C75.425 163.369 65.5172 141.563 63.2381 134.657C60.9647 127.747 55.7971 116.199 55.7971 116.199Z" fill="#F7CC7F"/>
<path d="M40.6522 113.247L15.2557 92.9456C15.2557 92.9456 9.46988 71.5441 9.14636 70.7497C8.82862 69.9698 3.16121 70.2153 0.873444 70.2673C0.139743 70.2846 4.05956 93.4222 5.61651 97.1919C7.45365 101.646 27.0816 120.575 27.0816 120.575C27.0816 120.575 31.5214 131.578 31.7929 140.009C32.2435 154.013 31.247 173.471 31.9113 173.999C35.8658 175.868 49.9968 174.41 50.716 172.864C58.651 155.798 40.6522 113.247 40.6522 113.247Z" fill="#13375B"/>
<path d="M47.3971 108.062L48.5554 112.513C48.5554 112.513 50.7103 118.868 49.1042 120.338C47.4982 121.808 40.6638 113.281 40.6638 113.281L39.881 101.741L47.3971 108.062Z" fill="#F7A491"/>
<path d="M40.1352 105.479C42.0619 109.214 45.8113 111.202 48.3792 111.837L47.3971 108.062L39.881 101.739L40.1352 105.479Z" fill="#F47458"/>
<path d="M29.5832 95.0803C29.794 96.8279 30.9581 98.122 32.1829 97.9746C33.4076 97.8273 34.2309 96.2906 34.0171 94.543C33.8063 92.7954 32.6422 91.5013 31.4174 91.6486C30.1926 91.796 29.3694 93.3327 29.5832 95.0803Z" fill="#F47458"/>
<path d="M35.4152 87.4776C35.5365 88.4799 36.8451 89.1501 38.3356 88.9681C39.8261 88.789 40.9353 87.8271 40.814 86.8248C40.6927 85.8224 39.387 85.1523 37.8936 85.3343C36.4031 85.5133 35.2939 86.4724 35.4152 87.4776Z" fill="#F47458"/>
<path d="M42.4865 89.202C45.9066 87.541 49.9939 89.4533 50.9847 93.064C51.4151 94.6325 51.8715 96.617 52.1777 98.8094C52.9143 104.084 50.7998 109.558 48.3994 109.85C45.999 110.141 38.9509 107.521 37.8041 100.046C37.0935 95.4326 38.8989 90.9438 42.4865 89.202Z" fill="#F7A491"/>
<path d="M39.6441 100.424C39.7856 101.591 39.127 102.628 38.1738 102.744C37.2206 102.859 36.3338 102.007 36.1922 100.84C36.0507 99.6733 36.7093 98.6363 37.6625 98.5207C38.6129 98.4081 39.5026 99.2602 39.6441 100.424Z" fill="#F7A491"/>
<path d="M52.5647 85.3139C55.2829 86.9778 56.5106 89.8577 55.3118 91.7439C54.113 93.6302 50.9385 93.8122 48.2203 92.1483C45.505 90.4845 44.2745 87.6046 45.4733 85.7183C46.672 83.8292 49.8495 83.6501 52.5647 85.3139Z" fill="#F47458"/>
<path d="M46.2792 87.7086C46.3832 88.5607 45.4357 89.3782 44.1648 89.5313C42.8938 89.6844 41.7788 89.1182 41.6748 88.2632C41.5708 87.4111 42.5183 86.5936 43.7892 86.4405C45.0602 86.2874 46.1752 86.8536 46.2792 87.7086Z" fill="#F47458"/>
<path d="M53.9224 93.4482C54.0552 94.5458 53.284 95.5424 52.1979 95.6724C51.1118 95.8024 50.1239 95.0196 49.9939 93.9219C49.861 92.8243 50.6323 91.8277 51.7184 91.6977C52.8045 91.5677 53.7895 92.3505 53.9224 93.4482Z" fill="#F47458"/>
<path d="M62.2444 120.956C62.2444 120.956 72.9784 146.33 76.7971 155.276C77.2102 156.243 79.2871 162.566 79.3622 163.199C79.5326 164.6 73.6485 167.116 72.912 167.099C72.2534 167.081 63.6107 140.284 58.5903 127.268C56.889 122.857 54.3932 118.796 51.2273 115.283L48.7894 113.27L48.5525 112.516C48.5525 112.513 59.454 113.484 62.2444 120.956Z" fill="#13375B"/>
<path d="M72.2399 7.43338e-05L70.3162 0.487061L114.063 173.301L115.987 172.814L72.2399 7.43338e-05Z" fill="#13375B"/>
<path d="M103.649 109.604C103.58 109.223 103.456 108.83 103.3 108.44C103.121 108.024 102.829 107.522 102.633 107.374C102.506 107.282 102.413 106.978 102.295 106.669C102.257 106.571 102.205 106.476 102.145 106.389C102.145 106.386 102.142 106.386 102.142 106.383C101.96 106.135 101.734 105.924 101.48 105.745C101.24 105.575 101.035 105.352 100.77 104.974C100.564 104.679 100.293 104.428 99.9694 104.269C99.6517 104.113 99.4061 104.11 99.2935 104.307C98.7649 105.214 96.1247 108.108 97.1963 109.506C98.0918 110.676 99.2588 111.895 99.4986 112.449C99.8279 113.209 100.989 113.157 101.682 112.891C102.985 112.397 104.011 111.574 103.649 109.604Z" fill="#F7A491"/>
</svg>
