<svg width="307" height="233" viewBox="0 0 307 233" fill="none" xmlns="http://www.w3.org/2000/svg">
<path d="M123.075 161.754L80.8684 179.464L81.0407 179.874L123.248 162.165L123.075 161.754Z" fill="#92B2DD"/>
<path d="M80.9673 161.941L80.7986 162.353L123.161 179.692L123.33 179.28L80.9673 161.941Z" fill="#92B2DD"/>
<path d="M110.594 149.578L93.113 191.881L93.5246 192.051L111.005 149.748L110.594 149.578Z" fill="#92B2DD"/>
<path d="M93.5027 149.594L93.0913 149.765L110.631 192.045L111.043 191.874L93.5027 149.594Z" fill="#92B2DD"/>
<path d="M102.059 142.131C86.2173 142.131 73.3713 154.973 73.3713 170.819C73.3713 186.661 86.2133 199.507 102.059 199.507C117.901 199.507 130.747 186.665 130.747 170.819C130.747 154.973 117.901 142.131 102.059 142.131ZM102.059 193.705C89.4197 193.705 79.1729 183.458 79.1729 170.819C79.1729 158.179 89.4197 147.932 102.059 147.932C114.699 147.932 124.945 158.179 124.945 170.819C124.945 183.458 114.699 193.705 102.059 193.705Z" fill="#294A71"/>
<path d="M102.505 147.932H101.614V193.705H102.505V147.932Z" fill="#92B2DD"/>
<path d="M124.946 170.373H79.1731V171.264H124.946V170.373Z" fill="#92B2DD"/>
<path d="M86.1901 154.32L85.5603 154.95L117.926 187.316L118.556 186.686L86.1901 154.32Z" fill="#92B2DD"/>
<path d="M117.926 154.32L85.5603 186.686L86.1901 187.316L118.556 154.95L117.926 154.32Z" fill="#92B2DD"/>
<path d="M104.951 171.236C105.329 169.636 104.339 168.034 102.739 167.656C101.14 167.278 99.5373 168.269 99.1596 169.868C98.782 171.467 99.7724 173.07 101.372 173.448C102.971 173.826 104.574 172.835 104.951 171.236Z" fill="#294A71"/>
<path d="M231.442 130.552C231.729 131.41 236.348 142.467 236.348 142.467L222.413 151.75L217.867 135.265L231.442 130.552Z" fill="#294A71"/>
<path d="M63.254 120.176H39.7564C39.3434 120.176 38.9669 119.949 38.7726 119.585L35.1694 112.779C34.8293 112.135 35.1896 111.342 35.9022 111.176C36.392 111.062 36.9021 111.293 37.137 111.739L40.1126 117.358C40.307 117.722 40.6835 117.949 41.0964 117.949H63.254C63.8694 117.949 64.3673 118.447 64.3673 119.062C64.3673 119.678 63.8694 120.176 63.254 120.176Z" fill="#35A090"/>
<path d="M67.331 112.334H25.6757C25.0199 112.334 24.4895 111.803 24.4895 111.148C24.4895 110.492 25.0199 109.961 25.6757 109.961H67.335C67.9909 109.961 68.5213 110.492 68.5213 111.148C68.5172 111.803 67.9869 112.334 67.331 112.334Z" fill="#45BC9A"/>
<path d="M172.552 17.8371C173.738 15.2217 174.532 8.17325 167.872 5.71985C161.212 3.26239 150.374 2.07618 146.411 13.7197C142.451 25.3633 149.5 32.4118 149.897 32.8085C150.293 33.2053 149.739 33.679 149.261 35.266C148.787 36.8489 147.2 37.3591 147.2 37.3591L155.945 42.3145C155.945 42.3145 160.666 35.5008 161.22 34.9461C161.775 34.3915 164.864 35.5818 165.734 35.5008C166.419 35.4401 169.342 30.1203 170.342 26.9827C170.342 26.9827 171.674 25.6183 172.03 25.2621C172.386 24.9058 171.912 24.1325 171.435 23.6589C170.965 23.1892 171.427 20.4929 171.435 20.4403C171.775 19.5779 172.163 18.6954 172.552 17.8371Z" fill="#F79E86"/>
<path d="M189.244 58.792C189.244 58.792 193.734 58.2454 196.134 56.1281C198.535 54.0107 205.547 55.8001 206.766 57.46C207.985 59.1199 205.393 63.0632 204.175 62.7717C202.956 62.4802 204.402 61.6786 204.786 60.9458C205.167 60.2171 205.244 59.4843 204.632 58.9742C204.021 58.4641 203.717 60.2899 202.195 61.0187C200.673 61.7474 197.394 62.5531 195.794 61.8932C194.195 61.2373 190.612 62.1118 190.612 62.1118L189.244 58.792Z" fill="#C43F52"/>
<path d="M145.014 46.1686C144.241 47.9824 144.338 50.0552 144.387 52.0511C144.524 57.4923 146.674 63.1198 152.52 64.9619C163.645 68.4679 179.949 66.2776 183.451 65.5449C186.957 64.8161 191.677 64.2291 191.374 62.1846C191.07 60.1401 191.528 56.6705 189.086 56.5085C186.649 56.3466 164.556 61.1644 159.22 53.5734C156.986 50.3953 155.662 45.6909 152.609 43.1363C150.467 41.3428 147.553 42.7679 145.998 44.5695C145.573 45.0715 145.253 45.6099 145.014 46.1686Z" fill="#45BC9A"/>
<path d="M144.354 38.3915C144.354 38.3915 146.613 35.5413 148.99 36.2539C151.366 36.9664 156.949 41.0068 156.949 41.9583C156.949 42.9097 155.929 45.9987 155.929 45.9987L144.354 38.3915Z" fill="#B0D9AC"/>
<path d="M143.326 37.3996C143.326 37.3996 135.881 36.1324 129.387 46.9055C122.893 57.6787 117.233 73.2007 116.496 77.6379C115.76 82.0751 116.079 86.9859 117.82 88.0952C119.561 89.2045 143.326 92.5324 147.443 91.581C151.561 90.6296 151.561 86.5568 151.561 86.5568C151.561 86.5568 159.548 54.1929 157.694 48.4885C155.84 42.7882 147.917 38.0352 143.326 37.3996Z" fill="#6FC390"/>
<path d="M130.808 88.4716C130.808 88.4716 140.196 45.7597 144.354 47.8366C148.512 49.9175 155.415 52.9013 155.925 54.6746C156.435 56.4478 148.488 86.8198 148.488 86.8198L147.544 86.9089C147.544 86.9089 155.564 54.5895 155.05 54.1928C154.536 53.796 144.415 48.4317 143.763 49.0228C143.111 49.618 138.654 61.3182 136.16 70.229C133.666 79.1398 132.119 88.4676 132.119 88.4676H130.808V88.4716Z" fill="#45BC9A"/>
<path d="M137.48 47.8366C137.48 47.8366 134.452 57.8365 140.314 69.399C146.176 80.9616 151.864 85.3138 151.864 85.3138L155.929 66.5732L137.48 47.8366Z" fill="#45BC9A"/>
<path d="M138.051 45.525C137.245 47.4926 137.346 49.7436 137.399 51.9055C137.545 57.8123 139.775 63.9134 145.856 65.9134C157.419 69.715 174.37 67.3385 178.014 66.549C181.657 65.7555 186.568 65.1239 186.252 62.9053C185.937 60.6867 186.41 56.9216 183.876 56.7475C181.341 56.5694 158.37 61.8001 152.828 53.5613C150.508 50.112 149.127 45.0109 145.953 42.2376C143.727 40.2943 140.698 41.8368 139.083 43.7923C138.634 44.3348 138.302 44.9177 138.051 45.525Z" fill="#6FC390"/>
<path d="M161.224 34.9462L154.888 33.756L157.819 39.6304L161.224 34.9462Z" fill="#C43F52"/>
<path d="M174.058 11.0234C173.977 11.5335 173.657 11.6388 173.119 11.5538C171.56 11.3109 168.176 9.47285 163.524 11.1813C159.281 12.736 157.917 19.1691 157.006 23.7682C156.572 25.9584 156.245 27.7276 155.759 28.3673C154.253 30.3511 148.293 30.8126 145.208 29.1608C142.123 27.505 141.739 11.4971 146.253 4.84133C150.767 -1.81039 160.747 0.32723 160.747 0.32723C169.588 -0.0897682 174.374 9.0437 174.058 11.0234Z" fill="#45BC9A"/>
<path d="M167.135 30.4523C166.852 30.4523 166.52 30.4402 166.151 30.4038C164.949 30.2904 164.503 29.173 164.487 29.1285C164.439 29.007 164.499 28.8694 164.625 28.8208C164.746 28.7722 164.884 28.8329 164.933 28.9544C164.949 28.9908 165.293 29.8451 166.2 29.9301C167.228 30.0272 168.001 29.9301 168.009 29.9301C168.139 29.9139 168.256 30.007 168.277 30.1366C168.293 30.2661 168.2 30.3876 168.07 30.4038C168.046 30.4078 167.69 30.4523 167.135 30.4523Z" fill="#C43F52"/>
<path d="M169.669 19.5375C169.669 20.1488 169.358 20.6468 168.973 20.6468C168.588 20.6468 168.273 20.1488 168.273 19.5375C168.273 18.9261 168.584 18.4282 168.973 18.4282C169.358 18.4322 169.669 18.9261 169.669 19.5375Z" fill="#23375C"/>
<path d="M167.249 17.5537C167.755 16.9464 168.532 16.2299 169.358 16.7278C169.751 16.9667 170.111 16.3473 169.718 16.1124C168.605 15.4444 167.467 16.1813 166.743 17.0517C166.455 17.3999 166.957 17.9059 167.249 17.5537Z" fill="#23375C"/>
<g opacity="0.65">
<path d="M174.394 19.2056C173.921 23.4808 173.706 25.7804 173.058 26.4119C172.447 27.0152 161.192 26.8694 156.945 23.4768C157.856 18.8776 159.22 12.4445 163.463 10.8899C168.115 9.18142 171.5 11.0194 173.058 11.2624C173.062 11.2624 174.872 14.9303 174.394 19.2056Z" fill="white"/>
</g>
<path d="M200.94 141.499C200.94 141.499 203.017 143.637 203.329 144.163C203.641 144.69 205.09 146.617 205.88 146.524C206.665 146.43 211.839 144.139 212.637 143.293C213.434 142.447 218.458 140.775 219.867 139.892C221.276 139.009 221.074 136.669 220.106 136.147C219.139 135.621 216.135 137.317 214.875 137.746C213.616 138.175 210.685 138.301 209.062 138.669C207.438 139.034 206.114 139.107 205.463 138.771C204.815 138.435 204.28 138.078 204.28 138.078L200.94 141.499Z" fill="#92B2DD"/>
<path d="M148.488 86.7633C148.488 86.7633 163.84 84.4678 167.168 86.7633C170.496 89.0588 204.358 136.924 204.358 137.827C204.358 138.73 201.507 141.544 201.03 141.544C200.552 141.544 183.803 132.082 173.941 117.552C164.079 103.022 164.913 102.459 162.415 102.799C159.921 103.136 136.439 103.925 137.367 98.8562C138.294 93.7915 148.488 86.7633 148.488 86.7633Z" fill="#23375C"/>
<path d="M185.88 145.738C185.88 145.738 187.633 148.131 187.75 148.722C187.868 149.313 188.6 151.58 189.378 151.726C190.155 151.876 195.827 151.256 196.868 150.689C197.908 150.127 203.232 150.05 204.863 149.637C206.495 149.224 207.086 146.945 206.345 146.155C205.604 145.366 202.187 146.07 200.851 146.098C199.515 146.127 196.693 145.366 195.03 145.224C193.366 145.082 192.086 144.75 191.584 144.24C191.082 143.726 190.694 143.228 190.694 143.228L185.88 145.738Z" fill="#92B2DD"/>
<path d="M117.82 87.9696C117.82 87.9696 111.484 109.892 126.533 109.892C141.581 109.892 161.066 106.605 161.544 108.475C162.018 110.346 164.079 118.002 169.305 127.163C174.532 136.325 183.88 146.536 185.621 146.536C187.362 146.536 191.641 144.135 191.167 143.232C190.694 142.329 171.208 92.176 167.087 89.4716C162.969 86.7672 155.998 85.5688 143.164 87.3704C130.33 89.172 117.82 87.9696 117.82 87.9696Z" fill="#2D4D9D"/>
<path d="M266.317 161.753L224.11 179.463L224.282 179.874L266.489 162.164L266.317 161.753Z" fill="#92B2DD"/>
<path d="M224.212 161.938L224.043 162.35L266.406 179.688L266.575 179.276L224.212 161.938Z" fill="#92B2DD"/>
<path d="M253.836 149.577L236.355 191.88L236.767 192.05L254.247 149.747L253.836 149.577Z" fill="#92B2DD"/>
<path d="M236.751 149.59L236.339 149.76L253.879 192.041L254.291 191.87L236.751 149.59Z" fill="#92B2DD"/>
<path d="M245.304 142.131C229.462 142.131 216.616 154.973 216.616 170.819C216.616 186.661 229.458 199.507 245.304 199.507C261.146 199.507 273.992 186.665 273.992 170.819C273.988 154.973 261.146 142.131 245.304 142.131ZM245.304 193.705C232.664 193.705 222.417 183.458 222.417 170.819C222.417 158.179 232.664 147.932 245.304 147.932C257.943 147.932 268.19 158.179 268.19 170.819C268.19 183.458 257.943 193.705 245.304 193.705Z" fill="#294A71"/>
<path d="M245.749 147.932H244.858V193.705H245.749V147.932Z" fill="#92B2DD"/>
<path d="M268.19 170.373H222.418V171.264H268.19V170.373Z" fill="#92B2DD"/>
<path d="M229.434 154.32L228.804 154.95L261.17 187.316L261.799 186.686L229.434 154.32Z" fill="#92B2DD"/>
<path d="M261.17 154.32L228.804 186.686L229.434 187.316L261.799 154.95L261.17 154.32Z" fill="#92B2DD"/>
<path d="M228.806 150.434L244.931 171.187L246.563 170.151L238.855 147.171L228.806 150.434Z" fill="#92B2DD"/>
<path d="M248.202 171.242C248.58 169.642 247.59 168.04 245.99 167.662C244.391 167.284 242.788 168.275 242.411 169.874C242.033 171.474 243.023 173.076 244.623 173.454C246.222 173.832 247.825 172.841 248.202 171.242Z" fill="#294A71"/>
<path d="M141.419 116.856H62.6997C60.7969 116.856 59.2544 115.313 59.2544 113.411C59.2544 111.508 60.7969 109.965 62.6997 109.965H141.419C143.322 109.965 144.864 111.508 144.864 113.411C144.864 115.313 143.322 116.856 141.419 116.856Z" fill="#B0D9AC"/>
<path d="M242.709 130.568C239.446 134.277 226.697 132.346 222.547 139.317C218.398 146.285 213.653 160.961 208.317 161.556C202.981 162.147 61.5051 161.556 61.5051 161.556V116.856H142.2C142.2 116.856 149.759 145.321 154.872 149.544C159.985 153.77 195.123 151.321 200.904 147.766C205.641 144.851 209.981 136.362 210.495 126.05C210.608 123.775 210.535 121.415 210.244 119.006C208.612 105.662 199.572 71.2695 200.163 67.5651C200.758 63.8567 203.572 57.4843 208.171 56.0025C212.766 54.5208 217.361 55.8527 217.511 56.0025C217.661 56.1523 218.252 65.1927 217.511 66.3789C216.77 67.5651 213.952 69.0469 213.952 71.565C213.952 74.0832 230.555 100.621 236.191 109.961C241.818 119.301 245.968 126.864 242.709 130.568Z" fill="#45BC9A"/>
<path d="M217.506 66.5975C219.523 66.5975 221.158 64.2248 221.158 61.298C221.158 58.3711 219.523 55.9985 217.506 55.9985C215.49 55.9985 213.855 58.3711 213.855 61.298C213.855 64.2248 215.49 66.5975 217.506 66.5975Z" fill="#B0D9AC"/>
<path d="M224.179 114.706C224.179 114.706 232.778 120.042 230.555 123.305C228.333 126.568 221.066 123.155 219.584 119.006C218.098 114.856 221.738 112.973 224.179 114.706Z" fill="#B0D9AC"/>
<path d="M213.563 168.114C211.92 165.936 211.001 161.114 211.976 158.588C214.199 152.839 219.749 144.584 229 138.576C242.373 129.888 260.551 135.908 264.38 139.613C266.87 142.026 268.911 146.321 267.951 149.778C267.878 150.046 267.773 150.325 267.538 150.483C267.32 150.629 267.036 150.641 266.773 150.641C256.83 150.681 247.385 148.997 237.887 153.106C224.867 158.738 216.903 172.527 215.219 170.304C214.705 169.624 214.126 168.859 213.563 168.114Z" fill="#B0D9AC"/>
<path d="M97.889 34.8004H45.9626C44.3959 34.8004 43.1287 33.5332 43.1287 31.9664V29.8166C43.1287 28.2499 44.3959 26.9827 45.9626 26.9827H97.889C99.4558 26.9827 100.723 28.2499 100.723 29.8166V31.9664C100.723 33.5332 99.4558 34.8004 97.889 34.8004Z" fill="#FFD38E"/>
<path d="M95.922 34.8004H46.8013V51.2576H95.922V34.8004Z" fill="#F69782"/>
<path d="M76.2983 41.0675H66.5576C65.5333 41.0675 64.7034 40.2376 64.7034 39.2133C64.7034 38.189 65.5333 37.3591 66.5576 37.3591H76.2983C77.3226 37.3591 78.1526 38.189 78.1526 39.2133C78.1526 40.2335 77.3226 41.0675 76.2983 41.0675Z" fill="#D65F48"/>
<path d="M71.0392 52.2212C69.6465 52.2212 68.521 51.0917 68.521 49.699V27.0192C68.521 25.6265 69.6505 24.501 71.0392 24.501C72.4319 24.501 73.5614 25.6305 73.5614 27.0192V49.703C73.5574 51.0917 72.4319 52.2212 71.0392 52.2212Z" fill="#D65F48"/>
<path d="M109.945 109.961H35.0193C32.5578 109.961 30.5659 107.969 30.5659 105.508V55.7109C30.5659 53.2494 32.5578 51.2576 35.0193 51.2576H109.945C112.407 51.2576 114.399 53.2494 114.399 55.7109V105.508C114.399 107.969 112.407 109.961 109.945 109.961Z" fill="#FFD38E"/>
<path d="M52.0722 70.0833H38.2627C37.368 70.0833 36.6433 69.3586 36.6433 68.4639V62.8081C36.6433 61.9134 37.368 61.1887 38.2627 61.1887H52.0722C52.967 61.1887 53.6916 61.9134 53.6916 62.8081V68.4639C53.6957 69.3586 52.967 70.0833 52.0722 70.0833Z" fill="#F69782"/>
<path d="M106.334 104.775H81.1079C80.2132 104.775 79.4885 104.05 79.4885 103.156V89.581C79.4885 88.6862 80.2132 87.9615 81.1079 87.9615H106.334C107.229 87.9615 107.954 88.6862 107.954 89.581V103.156C107.954 104.046 107.225 104.775 106.334 104.775Z" fill="#F69782"/>
<path d="M104.553 103.083H82.8853C81.9906 103.083 81.2659 102.358 81.2659 101.463V91.2733C81.2659 90.3786 81.9906 89.6539 82.8853 89.6539H104.553C105.448 89.6539 106.172 90.3786 106.172 91.2733V101.463C106.172 102.358 105.448 103.083 104.553 103.083Z" fill="white"/>
<path d="M50.9953 88.4717H38.0077C37.2546 88.4717 36.6433 87.8604 36.6433 87.1074C36.6433 86.3544 37.2546 85.743 38.0077 85.743H50.9953C51.7484 85.743 52.3597 86.3544 52.3597 87.1074C52.3597 87.8604 51.7484 88.4717 50.9953 88.4717Z" fill="#F69782"/>
<path d="M43.8051 95.1356H38.0077C37.2546 95.1356 36.6433 94.5243 36.6433 93.7713C36.6433 93.0182 37.2546 92.4069 38.0077 92.4069H43.8051C44.5582 92.4069 45.1695 93.0182 45.1695 93.7713C45.1695 94.5283 44.5582 95.1356 43.8051 95.1356Z" fill="#F69782"/>
<path d="M105.699 63.6664H84.076C83.323 63.6664 82.7117 63.0551 82.7117 62.302C82.7117 61.549 83.323 60.9377 84.076 60.9377H105.699C106.452 60.9377 107.064 61.549 107.064 62.302C107.064 63.0551 106.452 63.6664 105.699 63.6664Z" fill="#F69782"/>
<path d="M94.5577 70.3343H84.076C83.323 70.3343 82.7117 69.723 82.7117 68.9699C82.7117 68.2169 83.323 67.6056 84.076 67.6056H94.5577C95.3107 67.6056 95.922 68.2169 95.922 68.9699C95.922 69.723 95.3107 70.3343 94.5577 70.3343Z" fill="#F69782"/>
<path d="M71.0392 118.411C69.6465 118.411 68.521 117.281 68.521 115.888V52.7395C68.521 51.3468 69.6505 50.2213 71.0392 50.2213C72.4319 50.2213 73.5614 51.3508 73.5614 52.7395V115.892C73.5574 117.285 72.4319 118.411 71.0392 118.411Z" fill="#F69782"/>
<path d="M199.904 61.2858L207.932 61.0591C208.256 61.051 208.523 61.3101 208.523 61.634V61.8607C208.523 62.1765 208.268 62.4356 207.948 62.4356H199.92C199.604 62.4356 199.345 62.1805 199.345 61.8607C199.345 61.5449 199.592 61.2939 199.904 61.2858Z" fill="#35A090"/>
<path d="M61.5007 121.686H123.933C125.646 121.686 127.123 122.876 127.492 124.548L135.649 161.766H65.193L61.5007 121.686Z" fill="#35A090"/>
<path d="M134.411 167.564H62.7439C60.2824 167.564 58.2905 165.572 58.2905 163.11V153.329C58.2905 150.867 60.2824 148.876 62.7439 148.876H134.411C136.872 148.876 138.864 150.867 138.864 153.329V163.11C138.864 165.572 136.872 167.564 134.411 167.564Z" fill="#B0D9AC"/>
<path d="M123.516 130.831V169.556C123.516 172.993 120.727 175.782 117.29 175.782H48.1329C44.6957 175.782 41.9062 172.993 41.9062 169.556V130.831C41.9062 127.394 44.6957 124.605 48.1329 124.605H117.29C120.731 124.605 123.516 127.394 123.516 130.831Z" fill="#F69782"/>
<path d="M123.516 132.345V138.171C123.516 145.702 117.444 151.803 109.95 151.803H55.4729C47.9831 151.803 41.9062 145.697 41.9062 138.171V132.345C41.9062 128.892 44.6957 126.086 48.1329 126.086H117.29C120.731 126.09 123.516 128.892 123.516 132.345Z" fill="#D65F48"/>
<path d="M53.2866 170.794H47.2583C46.6632 170.794 46.1814 170.313 46.1814 169.717C46.1814 169.122 46.6632 168.641 47.2583 168.641H53.2866C53.8817 168.641 54.3635 169.122 54.3635 169.717C54.3594 170.313 53.8776 170.794 53.2866 170.794Z" fill="#D65F48"/>
<path d="M64.1203 170.794H58.092C57.4969 170.794 57.0151 170.313 57.0151 169.717C57.0151 169.122 57.4969 168.641 58.092 168.641H64.1203C64.7154 168.641 65.1972 169.122 65.1972 169.717C65.1932 170.313 64.7154 170.794 64.1203 170.794Z" fill="#D65F48"/>
<path d="M74.9543 170.794H68.926C68.3309 170.794 67.8491 170.313 67.8491 169.717C67.8491 169.122 68.3309 168.641 68.926 168.641H74.9543C75.5494 168.641 76.0312 169.122 76.0312 169.717C76.0271 170.313 75.5494 170.794 74.9543 170.794Z" fill="#D65F48"/>
<path d="M85.7883 170.794H79.76C79.1649 170.794 78.6831 170.313 78.6831 169.717C78.6831 169.122 79.1649 168.641 79.76 168.641H85.7883C86.3834 168.641 86.8652 169.122 86.8652 169.717C86.8611 170.313 86.3834 170.794 85.7883 170.794Z" fill="#D65F48"/>
<path d="M96.6222 170.794H90.594C89.9989 170.794 89.5171 170.313 89.5171 169.717C89.5171 169.122 89.9989 168.641 90.594 168.641H96.6222C97.2174 168.641 97.6992 169.122 97.6992 169.717C97.6992 170.313 97.2174 170.794 96.6222 170.794Z" fill="#D65F48"/>
<path d="M107.456 170.794H101.428C100.833 170.794 100.351 170.313 100.351 169.717C100.351 169.122 100.833 168.641 101.428 168.641H107.456C108.051 168.641 108.533 169.122 108.533 169.717C108.533 170.313 108.051 170.794 107.456 170.794Z" fill="#D65F48"/>
<path d="M118.29 170.794H112.261C111.666 170.794 111.185 170.313 111.185 169.717C111.185 169.122 111.666 168.641 112.261 168.641H118.29C118.885 168.641 119.367 169.122 119.367 169.717C119.367 170.313 118.885 170.794 118.29 170.794Z" fill="#D65F48"/>
<path d="M123.516 130.831V136.629C123.516 144.119 117.444 150.196 109.95 150.196H55.4729C47.9831 150.196 41.9062 144.123 41.9062 136.629V130.831C41.9062 127.394 44.6957 124.605 48.1329 124.605H117.29C120.731 124.605 123.516 127.394 123.516 130.831Z" fill="#FFD38E"/>
<path d="M121.184 137.054C120.626 137.054 120.172 136.601 120.172 136.042V131.993C120.172 131.435 120.626 130.981 121.184 130.981C121.743 130.981 122.197 131.435 122.197 131.993V136.042C122.197 136.601 121.747 137.054 121.184 137.054Z" fill="#F69782"/>
<path d="M103.282 148.944H95.059C94.5003 148.944 94.0469 148.491 94.0469 147.932C94.0469 147.374 94.5003 146.92 95.059 146.92H103.286C103.844 146.92 104.298 147.374 104.298 147.932C104.294 148.491 103.84 148.944 103.282 148.944ZM86.8324 148.944H78.6058C78.0471 148.944 77.5937 148.491 77.5937 147.932C77.5937 147.374 78.0471 146.92 78.6058 146.92H86.8324C87.3911 146.92 87.8446 147.374 87.8446 147.932C87.8446 148.491 87.3911 148.944 86.8324 148.944ZM70.3833 148.944H62.1567C61.598 148.944 61.1445 148.491 61.1445 147.932C61.1445 147.374 61.598 146.92 62.1567 146.92H70.3833C70.942 146.92 71.3954 147.374 71.3954 147.932C71.3954 148.491 70.942 148.944 70.3833 148.944ZM53.9544 148.621C53.8855 148.621 53.8127 148.612 53.7398 148.596C50.756 147.953 48.0678 146.422 46.165 144.281C45.7925 143.864 45.829 143.224 46.25 142.851C46.667 142.479 47.3067 142.515 47.6792 142.936C49.2986 144.758 51.6062 146.066 54.1689 146.621C54.7155 146.738 55.0637 147.276 54.9463 147.823C54.841 148.297 54.424 148.621 53.9544 148.621ZM111.484 148.616C111.018 148.616 110.597 148.293 110.496 147.819C110.379 147.272 110.727 146.734 111.269 146.617C113.832 146.062 116.136 144.75 117.755 142.928C118.128 142.511 118.763 142.471 119.184 142.843C119.601 143.216 119.642 143.855 119.269 144.272C117.366 146.414 114.678 147.953 111.698 148.596C111.626 148.608 111.557 148.616 111.484 148.616Z" fill="#F69782"/>
<path d="M44.2382 137.054C43.6795 137.054 43.2261 136.601 43.2261 136.042V131.993C43.2261 131.435 43.6795 130.981 44.2382 130.981C44.7969 130.981 45.2503 131.435 45.2503 131.993V136.042C45.2503 136.601 44.7969 137.054 44.2382 137.054Z" fill="#F69782"/>
<path d="M85.1082 152.77H80.4402C79.1811 152.77 78.1609 151.75 78.1609 150.491C78.1609 149.232 79.1811 148.212 80.4402 148.212H85.1082C86.3672 148.212 87.3875 149.232 87.3875 150.491C87.3875 151.746 86.3672 152.77 85.1082 152.77Z" fill="white"/>
<g opacity="0.39">
<path d="M213.855 75.6217C215.583 77.8524 237.033 111.88 235.308 112.006C233.583 112.131 226.199 109.374 223.357 106.799C220.515 104.22 213.855 75.6217 213.855 75.6217Z" fill="#B0D9AC"/>
</g>
<path d="M210.907 126.103C210.907 126.103 210.013 145.054 206.025 148.876C202.037 152.698 159.009 155.337 154.507 154.317C150.006 153.297 138.864 119.33 138.864 119.33H61.5007V116.852H142.196C142.196 116.852 149.755 145.317 154.868 149.54C159.981 153.766 195.118 151.317 200.9 147.762C205.636 144.847 209.976 136.358 210.49 126.046L210.907 126.103Z" fill="#35A090"/>
<path d="M304.687 204.693H2.38821C1.49348 204.693 0.768799 203.968 0.768799 203.073V201.122C0.768799 200.227 1.49348 199.503 2.38821 199.503H304.687C305.582 199.503 306.307 200.227 306.307 201.122V203.073C306.307 203.968 305.582 204.693 304.687 204.693Z" fill="#92B2DD"/>
<path d="M175.706 218.846H29.3032C28.4085 218.846 27.6838 218.122 27.6838 217.227V215.275C27.6838 214.381 28.4085 213.656 29.3032 213.656H175.706C176.601 213.656 177.325 214.381 177.325 215.275V217.227C177.325 218.122 176.601 218.846 175.706 218.846Z" fill="#E9EEF8"/>
<path d="M275.684 218.846H194.989C194.094 218.846 193.369 218.122 193.369 217.227V215.275C193.369 214.381 194.094 213.656 194.989 213.656H275.684C276.579 213.656 277.303 214.381 277.303 215.275V217.227C277.303 218.122 276.575 218.846 275.684 218.846Z" fill="#E9EEF8"/>
<path d="M203.304 233H122.609C121.714 233 120.99 232.275 120.99 231.381V229.429C120.99 228.535 121.714 227.81 122.609 227.81H203.304C204.199 227.81 204.924 228.535 204.924 229.429V231.381C204.924 232.275 204.199 233 203.304 233Z" fill="#E9EEF8"/>
<path d="M185.912 59.1321C185.912 59.1321 188.418 58.9863 190.916 56.6908C193.414 54.3953 200.701 56.3345 201.969 58.1361C203.236 59.9377 200.543 64.217 199.276 63.8972C198.009 63.5814 199.515 62.711 199.912 61.9175C200.309 61.1239 200.386 60.3345 199.754 59.7798C199.118 59.2252 198.803 61.2049 197.22 61.9984C195.637 62.7919 192.228 63.6624 190.568 62.9498C188.904 62.2373 186.26 62.9093 186.26 62.9093L185.912 59.1321Z" fill="#F79E86"/>
<path d="M202.284 61.9093C202.284 63.1725 201.26 64.2008 199.993 64.2008C198.725 64.2008 197.701 63.1765 197.701 61.9093C197.701 60.6462 198.725 59.6179 199.993 59.6179C201.26 59.6179 202.284 60.6421 202.284 61.9093Z" fill="#B0D9AC"/>
</svg>
