<svg width="97" height="216" viewBox="0 0 97 216" fill="none" xmlns="http://www.w3.org/2000/svg">
<path d="M66.7691 0.210886C67.7398 0.427216 68.655 0.771124 69.5092 1.24261C70.369 1.7141 71.0957 2.29098 71.6892 2.97325C72.2827 3.65552 72.7154 4.43209 72.9761 5.30295C73.2368 6.17382 73.259 7.11125 73.0315 8.12078C72.8485 8.94727 72.56 9.63509 72.1718 10.1842C71.7779 10.7334 71.3286 11.2104 70.8183 11.6042C70.308 11.9981 69.7699 12.3475 69.2097 12.6415C68.6439 12.941 68.1114 13.2239 67.6122 13.4902C67.1074 13.7564 66.6526 14.0504 66.2477 14.3722C65.8427 14.6939 65.5543 15.0766 65.3934 15.5148C65.2991 15.7311 65.166 15.9086 64.983 16.0418C64.7999 16.1749 64.6002 16.2137 64.3728 16.1638L62.0209 15.6424C61.7935 15.5925 61.6104 15.4649 61.4718 15.2597C61.3331 15.0544 61.2998 14.8436 61.3719 14.6218C61.5938 13.8286 61.9155 13.1574 62.3537 12.6138C62.7864 12.0702 63.269 11.6042 63.8015 11.216C64.334 10.8277 64.8831 10.4893 65.4544 10.2009C66.0258 9.91798 66.5583 9.64064 67.052 9.36884C67.5456 9.09704 67.9617 8.81415 68.3111 8.51461C68.6606 8.21508 68.8824 7.84344 68.9767 7.41078C69.1487 6.62866 68.9656 5.90756 68.4165 5.25858C67.8674 4.60959 67.0464 4.16029 65.9537 3.91622C64.2008 3.52794 62.7198 4.12146 61.505 5.69124C61.3497 5.89647 61.2055 6.04069 61.0668 6.12944C60.9282 6.21819 60.7229 6.23483 60.4567 6.17382L57.9495 5.61913C57.7664 5.5803 57.6167 5.48045 57.5113 5.32514C57.4059 5.16983 57.3726 4.99232 57.417 4.78709C57.5945 4.07154 57.9828 3.38372 58.5707 2.72364C59.1587 2.06355 59.8798 1.50886 60.7229 1.05956C61.5716 0.610264 62.5146 0.29409 63.563 0.116589C64.6058 -0.0664595 65.6763 -0.033178 66.7691 0.210886ZM64.1176 18.0553C64.3451 18.1052 64.5226 18.2328 64.6501 18.4325C64.7777 18.6322 64.8166 18.8485 64.7666 19.0759L64.162 21.7995C64.1121 22.0269 63.9845 22.2044 63.7848 22.332C63.5851 22.4595 63.3688 22.4984 63.1414 22.4485L60.4789 21.8605C60.2514 21.8106 60.0739 21.683 59.9464 21.4833C59.8188 21.2836 59.78 21.0673 59.8299 20.8399L60.4345 18.1163C60.4844 17.8889 60.612 17.7114 60.8117 17.5838C61.0114 17.4562 61.2277 17.4174 61.4551 17.4673L64.1176 18.0553Z" fill="#27DEBF"/>
<path d="M69.731 26.2314C70.4077 26.1205 71.0789 26.1039 71.7501 26.1871C72.4212 26.2703 73.0369 26.4533 73.5916 26.7362C74.1463 27.0247 74.6234 27.4129 75.0116 27.9011C75.4055 28.3892 75.6551 28.9883 75.7716 29.6927C75.8659 30.2696 75.8548 30.7855 75.7494 31.2403C75.6385 31.6952 75.472 32.1112 75.2446 32.4995C75.0172 32.8822 74.762 33.2427 74.4791 33.5756C74.1963 33.9084 73.9245 34.2245 73.6693 34.5296C73.4141 34.8292 73.1978 35.1342 73.0203 35.4449C72.8428 35.7555 72.7596 36.0717 72.7651 36.3934C72.7596 36.5542 72.7208 36.704 72.6376 36.8371C72.5544 36.9703 72.4323 37.0479 72.277 37.0757L70.6351 37.3419C70.4743 37.3696 70.3245 37.3308 70.1858 37.2365C70.0472 37.1422 69.9695 37.0146 69.9584 36.8538C69.8974 36.288 69.9362 35.7777 70.0749 35.3173C70.2136 34.8569 70.4022 34.4353 70.6407 34.047C70.8792 33.6588 71.1454 33.3038 71.4394 32.9765C71.7334 32.6492 72.0052 32.333 72.2493 32.0335C72.4934 31.734 72.693 31.4455 72.8373 31.1626C72.9815 30.8798 73.0314 30.5858 72.9815 30.2862C72.8927 29.7426 72.5876 29.3266 72.0718 29.0493C71.5559 28.7719 70.9125 28.6943 70.1526 28.8219C68.9322 29.0215 68.1279 29.7815 67.7563 31.0961C67.7119 31.268 67.6564 31.3956 67.5899 31.4899C67.5233 31.5842 67.3957 31.6452 67.2127 31.673L65.4654 31.9614C65.3378 31.9836 65.2158 31.9559 65.1104 31.8893C65.005 31.8172 64.9385 31.7118 64.9163 31.5676C64.8497 31.0628 64.9163 30.5248 65.1271 29.9479C65.3378 29.3765 65.654 28.8329 66.0811 28.3282C66.5082 27.8234 67.0352 27.3797 67.6564 26.9969C68.2722 26.6086 68.9655 26.3535 69.731 26.2314ZM72.5987 38.3459C72.7596 38.3182 72.9038 38.357 73.0369 38.4513C73.1701 38.5456 73.2477 38.6732 73.2755 38.834L73.5861 40.7366C73.6138 40.8975 73.575 41.0417 73.4807 41.1748C73.3864 41.308 73.2588 41.3856 73.098 41.4133L71.2397 41.7184C71.0789 41.7462 70.9347 41.7073 70.8015 41.613C70.6684 41.5187 70.5852 41.3912 70.563 41.2303L70.2524 39.3277C70.2247 39.1724 70.2635 39.0226 70.3578 38.8895C70.4521 38.7564 70.5797 38.6732 70.7405 38.651L72.5987 38.3459Z" fill="#27DEBF"/>
<g opacity="0.2">
<path d="M69.731 26.2314C70.4077 26.1205 71.0789 26.1039 71.7501 26.1871C72.4212 26.2703 73.0369 26.4533 73.5916 26.7362C74.1463 27.0247 74.6234 27.4129 75.0116 27.9011C75.4055 28.3892 75.6551 28.9883 75.7716 29.6927C75.8659 30.2696 75.8548 30.7855 75.7494 31.2403C75.6385 31.6952 75.472 32.1112 75.2446 32.4995C75.0172 32.8822 74.762 33.2427 74.4791 33.5756C74.1963 33.9084 73.9245 34.2245 73.6693 34.5296C73.4141 34.8292 73.1978 35.1342 73.0203 35.4449C72.8428 35.7555 72.7596 36.0717 72.7651 36.3934C72.7596 36.5542 72.7208 36.704 72.6376 36.8371C72.5544 36.9703 72.4323 37.0479 72.277 37.0757L70.6351 37.3419C70.4743 37.3696 70.3245 37.3308 70.1858 37.2365C70.0472 37.1422 69.9695 37.0146 69.9584 36.8538C69.8974 36.288 69.9362 35.7777 70.0749 35.3173C70.2136 34.8569 70.4022 34.4353 70.6407 34.047C70.8792 33.6588 71.1454 33.3038 71.4394 32.9765C71.7334 32.6492 72.0052 32.333 72.2493 32.0335C72.4934 31.734 72.693 31.4455 72.8373 31.1626C72.9815 30.8798 73.0314 30.5858 72.9815 30.2862C72.8927 29.7426 72.5876 29.3266 72.0718 29.0493C71.5559 28.7719 70.9125 28.6943 70.1526 28.8219C68.9322 29.0215 68.1279 29.7815 67.7563 31.0961C67.7119 31.268 67.6564 31.3956 67.5899 31.4899C67.5233 31.5842 67.3957 31.6452 67.2127 31.673L65.4654 31.9614C65.3378 31.9836 65.2158 31.9559 65.1104 31.8893C65.005 31.8172 64.9385 31.7118 64.9163 31.5676C64.8497 31.0628 64.9163 30.5248 65.1271 29.9479C65.3378 29.3765 65.654 28.8329 66.0811 28.3282C66.5082 27.8234 67.0352 27.3797 67.6564 26.9969C68.2722 26.6086 68.9655 26.3535 69.731 26.2314ZM72.5987 38.3459C72.7596 38.3182 72.9038 38.357 73.0369 38.4513C73.1701 38.5456 73.2477 38.6732 73.2755 38.834L73.5861 40.7366C73.6138 40.8975 73.575 41.0417 73.4807 41.1748C73.3864 41.308 73.2588 41.3856 73.098 41.4133L71.2397 41.7184C71.0789 41.7462 70.9347 41.7073 70.8015 41.613C70.6684 41.5187 70.5852 41.3912 70.563 41.2303L70.2524 39.3277C70.2247 39.1724 70.2635 39.0226 70.3578 38.8895C70.4521 38.7564 70.5797 38.6732 70.7405 38.651L72.5987 38.3459Z" fill="black"/>
</g>
<path d="M85.4121 29.2157C85.5674 29.3266 85.6617 29.4764 85.695 29.6705C85.7283 29.8647 85.6894 30.0366 85.5785 30.1919L84.2583 32.0501C84.1474 32.2055 83.9976 32.2998 83.8035 32.333C83.6093 32.3663 83.4374 32.3275 83.2821 32.2166L81.4682 30.9241C81.3129 30.8132 81.2186 30.6634 81.1853 30.4693C81.1521 30.2751 81.1909 30.1032 81.3018 29.9479L82.622 28.0896C82.7329 27.9343 82.8827 27.84 83.0768 27.8068C83.271 27.7735 83.4429 27.8123 83.5983 27.9232L85.4121 29.2157ZM93.1001 16.6186C93.7602 17.0901 94.3426 17.6393 94.8363 18.2661C95.33 18.8929 95.6961 19.5585 95.929 20.263C96.162 20.9674 96.2341 21.6885 96.1565 22.4263C96.0788 23.164 95.7904 23.8795 95.3022 24.5674C94.9029 25.1331 94.4647 25.5603 93.9932 25.8487C93.5217 26.1371 93.0336 26.3535 92.5232 26.4866C92.0129 26.6253 91.4971 26.714 90.9812 26.7584C90.4598 26.8028 89.9717 26.8471 89.5057 26.886C89.0398 26.9248 88.6071 27.0025 88.1966 27.1189C87.7862 27.2299 87.4534 27.4296 87.1927 27.7069C87.054 27.84 86.8931 27.9288 86.7156 27.9732C86.5381 28.0175 86.3717 27.9843 86.2164 27.8733L84.6133 26.7307C84.458 26.6197 84.3582 26.4644 84.3193 26.2703C84.2805 26.0706 84.3194 25.8986 84.4469 25.7544C84.8685 25.2274 85.3233 24.8281 85.8226 24.5563C86.3218 24.2845 86.8321 24.0903 87.3591 23.9627C87.8805 23.8352 88.4074 23.7575 88.9288 23.7242C89.4502 23.6909 89.9384 23.6521 90.3932 23.6077C90.8481 23.5634 91.2585 23.4802 91.6135 23.3637C91.9685 23.2472 92.257 23.042 92.4678 22.748C92.8505 22.2155 92.9337 21.6109 92.7285 20.9452C92.5232 20.2796 92.0462 19.6805 91.3029 19.1536C90.1048 18.3049 88.8013 18.2772 87.3868 19.0704C87.2037 19.1758 87.0484 19.2368 86.9153 19.259C86.7822 19.2812 86.6269 19.2257 86.4438 19.0981L84.7298 17.8833C84.6022 17.7946 84.5246 17.6725 84.4913 17.5228C84.458 17.373 84.4969 17.2288 84.5967 17.0846C84.9628 16.602 85.4676 16.2026 86.1221 15.8975C86.7766 15.5869 87.4922 15.3983 88.2743 15.3317C89.0564 15.2596 89.8663 15.3262 90.7149 15.5259C91.5581 15.72 92.3513 16.0861 93.1001 16.6186Z" fill="#27DEBF"/>
<g opacity="0.6">
<path d="M85.4121 29.2157C85.5674 29.3266 85.6617 29.4764 85.695 29.6705C85.7283 29.8647 85.6894 30.0366 85.5785 30.1919L84.2583 32.0501C84.1474 32.2055 83.9976 32.2998 83.8035 32.333C83.6093 32.3663 83.4374 32.3275 83.2821 32.2166L81.4682 30.9241C81.3129 30.8132 81.2186 30.6634 81.1853 30.4693C81.1521 30.2751 81.1909 30.1032 81.3018 29.9479L82.622 28.0896C82.7329 27.9343 82.8827 27.84 83.0768 27.8068C83.271 27.7735 83.4429 27.8123 83.5983 27.9232L85.4121 29.2157ZM93.1001 16.6186C93.7602 17.0901 94.3426 17.6393 94.8363 18.2661C95.33 18.8929 95.6961 19.5585 95.929 20.263C96.162 20.9674 96.2341 21.6885 96.1565 22.4263C96.0788 23.164 95.7904 23.8795 95.3022 24.5674C94.9029 25.1331 94.4647 25.5603 93.9932 25.8487C93.5217 26.1371 93.0336 26.3535 92.5232 26.4866C92.0129 26.6253 91.4971 26.714 90.9812 26.7584C90.4598 26.8028 89.9717 26.8471 89.5057 26.886C89.0398 26.9248 88.6071 27.0025 88.1966 27.1189C87.7862 27.2299 87.4534 27.4296 87.1927 27.7069C87.054 27.84 86.8931 27.9288 86.7156 27.9732C86.5381 28.0175 86.3717 27.9843 86.2164 27.8733L84.6133 26.7307C84.458 26.6197 84.3582 26.4644 84.3193 26.2703C84.2805 26.0706 84.3194 25.8986 84.4469 25.7544C84.8685 25.2274 85.3233 24.8281 85.8226 24.5563C86.3218 24.2845 86.8321 24.0903 87.3591 23.9627C87.8805 23.8352 88.4074 23.7575 88.9288 23.7242C89.4502 23.6909 89.9384 23.6521 90.3932 23.6077C90.8481 23.5634 91.2585 23.4802 91.6135 23.3637C91.9685 23.2472 92.257 23.042 92.4678 22.748C92.8505 22.2155 92.9337 21.6109 92.7285 20.9452C92.5232 20.2796 92.0462 19.6805 91.3029 19.1536C90.1048 18.3049 88.8013 18.2772 87.3868 19.0704C87.2037 19.1758 87.0484 19.2368 86.9153 19.259C86.7822 19.2812 86.6269 19.2257 86.4438 19.0981L84.7298 17.8833C84.6022 17.7946 84.5246 17.6725 84.4913 17.5228C84.458 17.373 84.4969 17.2288 84.5967 17.0846C84.9628 16.602 85.4676 16.2026 86.1221 15.8975C86.7766 15.5869 87.4922 15.3983 88.2743 15.3317C89.0564 15.2596 89.8663 15.3262 90.7149 15.5259C91.5581 15.72 92.3513 16.0861 93.1001 16.6186Z" fill="white"/>
</g>
<path d="M44.1099 78.317H24.4017V30.5691C24.4017 21.9326 31.4019 14.9324 40.0385 14.9324H41.8579C50.4944 14.9324 57.4946 21.9326 57.4946 30.5691V64.9323C57.4946 72.3263 51.5039 78.317 44.1099 78.317Z" fill="#263238"/>
<path d="M22.4881 193.266C22.3273 194.464 21.9833 195.867 21.9168 199.256C21.8502 202.895 21.179 204.187 21.0903 207.172C20.9905 210.583 21.5784 211.859 22.9652 213.778C24.3519 215.697 27.9851 217.434 29.5161 214.194C31.0692 210.916 30.8529 208.83 30.3647 205.485C29.8544 202.024 29.7934 200.116 29.4994 197.476C29.2387 195.152 28.9281 193.382 28.9281 193.382L22.4881 193.266Z" fill="#263238"/>
<path d="M32.8165 169.098L20.8352 168.881C21.0127 176.88 22.2829 185.761 22.4937 193.266C22.5326 194.68 22.4604 204.243 22.993 207.15C23.7917 211.515 28.9781 210.927 29.2554 208.314C29.5328 205.702 28.9226 194.53 28.9392 193.382C28.8949 188.567 31.1469 180.441 32.334 171.799C32.3783 171.378 32.7611 169.514 32.8165 169.098Z" fill="#FFA8A7"/>
<path d="M48.2091 187.042C48.2091 187.042 47.7376 186.787 47.6377 187.292C47.5212 187.891 47.3493 189.133 47.0997 190.115C46.7502 191.485 46.4673 193.743 46.6726 194.858C46.8778 195.973 49.4849 197.415 51.1767 197.931C53.6728 198.696 55.3812 199.944 56.7458 201.231C58.4209 202.806 62.032 204.293 64.4948 204.276C67.4069 204.254 69.4371 203.306 70.3967 201.747C71.4007 200.122 69.5203 200 66.1977 197.842C65.4433 197.354 64.5835 196.799 63.6128 196.167C58.3433 192.722 56.4129 190.88 54.9208 187.436L48.2091 187.042Z" fill="#263238"/>
<path d="M54.9598 184.912C54.8711 182.432 56.5684 161.421 56.5684 161.421L45.1862 166.607C47.6213 181.151 48.1427 184.585 48.187 186.964C48.1704 187.02 48.1205 187.219 48.1205 187.574C48.1316 190.398 51.321 191.923 53.8061 193.809C54.7879 194.552 57.6445 196.749 60.5345 198.202C62.3428 199.112 66.0148 199.195 66.4697 198.03C63.441 195.717 59.0368 192.256 56.6294 189.621C55.4812 188.357 55.0486 187.386 54.9598 184.912Z" fill="#FFA8A7"/>
<path d="M25.7387 91.0471C21.3677 100.643 21.3677 108.06 22.0943 120.302C22.7544 131.528 23.8139 141.419 23.8139 141.419C23.6419 143.41 20.874 147.298 20.519 156.107C20.1862 164.338 21.0848 174.806 21.0848 174.806C21.0848 174.806 27.3029 178.25 31.9013 174.778C31.9013 174.778 36.3388 153.594 37.6368 143.288C38.7739 134.296 40.743 122.803 40.743 122.803L44.9199 143.238C44.9199 143.238 43.3335 148.275 42.9618 152.113C42.3738 158.176 45.763 170.08 45.763 170.08C45.763 170.08 52.1863 171.999 56.108 168.515C56.108 168.515 57.5779 149.162 58.1215 141.862C58.8537 132.083 57.3117 105.613 56.108 91.5963L25.7387 91.0471Z" fill="#455A64"/>
<path d="M40.7375 122.803L42.4626 107.422C42.4626 107.422 50.195 106.39 53.7007 103.095C53.7007 103.095 51.0714 107.915 44.5871 108.853L42.091 123.169L44.9144 143.244L40.7375 122.803Z" fill="#263238"/>
<path d="M72.0496 87.2641C72.5322 82.5493 72.51 79.4097 72.4712 78.8051C72.3047 76.3645 71.8665 75.9651 68.4552 71.644C63.8457 65.8031 59.9129 60.5558 55.7583 55.3361C52.7907 51.6086 49.6678 51.0317 46.617 51.2037C44.487 51.3201 48.6416 61.5653 50.7384 67.6281L62.6919 80.4858C63.058 80.9961 63.23 81.6174 63.169 82.2442L62.4368 93.1882L66.0145 97.9752C66.0145 97.9752 71.4339 93.2992 72.0496 87.2641Z" fill="#FFA8A7"/>
<path d="M35.1017 51.5309C32.7886 51.6918 28.5841 52.0579 28.5841 52.0579C26.1601 53.4113 25.5444 54.5207 25.0951 57.7435C24.9009 59.1136 26.0214 62.769 26.981 67.9664L28.8004 77.6014L28.6007 82.3828C27.6577 85.3005 25.5166 88.9227 23.6362 94.2643C32.8996 99.4341 40.6653 99.6227 47.7098 98.7185C53.0792 98.0307 55.9248 96.7272 56.8733 95.4458C56.6736 90.1652 56.302 86.9091 56.2132 81.3955C56.1744 79.0769 56.3131 76.7416 56.4018 74.0791C60.0073 71.1171 60.0462 66.197 58.0826 63.013C53.5174 55.619 49.0744 50.9651 46.1345 51.2037L35.1017 51.5309Z" fill="#27DEBF"/>
<path opacity="0.6" d="M35.1017 51.5309C32.7886 51.6918 28.5841 52.0579 28.5841 52.0579C26.1601 53.4113 25.5444 54.5207 25.0951 57.7435C24.9009 59.1136 26.0214 62.769 26.981 67.9664L28.8004 77.6014L28.6007 82.3828C27.6577 85.3005 25.5166 88.9227 23.6362 94.2643C32.8996 99.4341 40.6653 99.6227 47.7098 98.7185C53.0792 98.0307 55.9248 96.7272 56.8733 95.4458C56.6736 90.1652 56.302 86.9091 56.2132 81.3955C56.1744 79.0769 56.3131 76.7416 56.4018 74.0791C60.0073 71.1171 60.0462 66.197 58.0826 63.013C53.5174 55.619 49.0744 50.9651 46.1345 51.2037L35.1017 51.5309Z" fill="white"/>
<path opacity="0.1" d="M49.2296 74.1623C49.2296 74.1623 44.9973 77.4461 40.1715 75.7321C35.3457 74.0181 34.6413 69.8025 34.6413 69.8025C34.6413 69.8025 34.131 75.3217 40.2159 77.2021C46.0901 79.0159 49.2296 74.1623 49.2296 74.1623Z" fill="black"/>
<path d="M54.9596 36.3823C54.7766 44.3921 52.1806 46.3723 50.8771 46.9381C49.5736 47.5094 47.0608 47.16 44.6202 46.755V51.5587C44.6202 51.5587 47.438 54.5096 47.2272 56.7117C47.0109 58.9194 42.8008 59.1635 39.6391 57.0057C37.3315 55.436 35.6841 53.6388 34.963 52.7845C34.7023 52.4739 34.5581 52.0856 34.5581 51.6807V40.3761C34.5581 40.3761 33.2213 41.7906 30.8528 40.1709C28.4953 38.5567 28.2901 35.5392 29.7378 33.8363C30.7695 32.6271 33.3821 32.5383 34.6413 34.4243C35.3457 35.8054 35.4456 37.1922 36.2333 36.6208C38.3411 35.101 37.2095 31.6508 39.7611 29.9423C39.7666 29.9423 39.7666 29.9368 39.7722 29.9368C40.5321 29.5263 41.3974 29.138 42.3681 28.8052C46.9111 27.2355 50.8494 25.9153 51.7979 22.809C53.584 23.8685 55.1815 26.9359 54.9596 36.3823Z" fill="#FFA8A7"/>
<path d="M46.007 43.5378C46.5891 43.5378 47.0609 43.066 47.0609 42.4839C47.0609 41.9019 46.5891 41.43 46.007 41.43C45.425 41.43 44.9531 41.9019 44.9531 42.4839C44.9531 43.066 45.425 43.5378 46.007 43.5378Z" fill="#B16668"/>
<path d="M45.3025 35.1675C45.3358 35.7999 44.8643 36.3379 44.2542 36.3712C43.644 36.3989 43.1226 35.9108 43.0893 35.2729C43.056 34.6406 43.5275 34.1025 44.1377 34.0692C44.7478 34.0415 45.2692 34.5352 45.3025 35.1675Z" fill="#263238"/>
<path d="M53.7061 35.2785C53.7338 35.8553 53.3067 36.3435 52.752 36.3712C52.1419 36.3989 51.7258 36.0107 51.6926 35.3728C51.6648 34.7959 52.0919 34.3078 52.6466 34.28C53.2069 34.2523 53.6784 34.7016 53.7061 35.2785Z" fill="#263238"/>
<path d="M43.877 38.0187C41.8856 38.0187 40.2715 36.399 40.2715 34.4132C40.2715 31.9614 42.8009 31.9614 43.877 31.9614C44.9586 31.9614 47.4825 31.9614 47.4825 34.4132C47.4825 36.4045 45.8683 38.0187 43.877 38.0187ZM43.877 32.5272C41.6915 32.5272 40.8373 33.0542 40.8373 34.4132C40.8373 36.0883 42.2018 37.4529 43.877 37.4529C45.5521 37.4529 46.9167 36.0883 46.9167 34.4132C46.9167 33.0597 46.0625 32.5272 43.877 32.5272Z" fill="#455A64"/>
<path d="M53.0348 38.0187C51.0435 38.0187 49.4293 36.399 49.4293 34.4132C49.4293 31.9614 51.9587 31.9614 53.0348 31.9614C54.1165 31.9614 56.6403 31.9614 56.6403 34.4132C56.6459 36.4045 55.0262 38.0187 53.0348 38.0187ZM53.0348 32.5272C50.8493 32.5272 49.9951 33.0542 49.9951 34.4132C49.9951 36.0883 51.3596 37.4529 53.0348 37.4529C54.71 37.4529 56.0745 36.0883 56.0745 34.4132C56.0745 33.0597 55.2203 32.5272 53.0348 32.5272Z" fill="#455A64"/>
<path d="M48.0427 33.2483L48.2258 39.9878L51.7703 38.8895L48.0427 33.2483Z" fill="#F28F8F"/>
<path d="M44.6203 46.755C42.0465 46.4167 36.7492 44.8968 35.9227 42.8001C35.9227 42.8001 36.2001 44.1147 37.7809 45.4737C39.3618 46.8327 44.6203 48.3581 44.6203 48.3581V46.755Z" fill="#F28F8F"/>
<path d="M44.7423 29.9756L42.3904 31.4067C42.0076 30.73 42.2184 29.8591 42.8674 29.4653C43.522 29.077 44.3595 29.3044 44.7423 29.9756Z" fill="#263238"/>
<path d="M54.3109 31.5731L51.6927 30.6579C51.9202 29.9202 52.6912 29.5263 53.4123 29.7759C54.1389 30.0367 54.5383 30.8354 54.3109 31.5731Z" fill="#263238"/>
<path d="M47.1998 34.7016C47.0444 34.7016 46.9169 34.574 46.9169 34.4131C46.9169 33.9527 47.8321 33.6532 48.6475 33.6532C49.4684 33.6532 49.9954 33.9527 49.9954 34.4131C49.9954 34.5685 49.8678 34.696 49.7125 34.696C49.5572 34.696 49.4296 34.5685 49.4296 34.4131C49.4019 34.3632 49.1412 34.2245 48.6475 34.2245C48.1538 34.2245 47.5104 34.3632 47.4827 34.4187C47.4827 34.574 47.3551 34.7016 47.1998 34.7016Z" fill="#455A64"/>
<path d="M40.5656 34.4575C40.5545 34.4575 40.5434 34.4575 40.5323 34.4575L34.1922 33.8807C34.0757 33.7753 33.7762 33.4646 33.1549 33.2039L40.5989 33.8917C40.7542 33.9084 40.8651 34.0526 40.8485 34.2079C40.8318 34.3521 40.7043 34.4575 40.5656 34.4575Z" fill="#455A64"/>
<path d="M14.5339 41.0694C16.6085 38.3015 18.0229 36.2048 19.9144 33.8307C20.9905 32.4828 21.6783 31.5176 22.7101 30.1365C23.4201 29.1824 23.8361 28.3836 24.6293 28.0841C25.5168 27.7513 26.371 27.0968 26.9424 26.4977C27.3528 26.0706 27.6856 25.5769 28.0351 25.0999C29.2221 23.5024 30.6366 22.0768 32.223 20.8787C33.8926 19.6195 35.7453 18.6599 37.4593 17.4618C38.4799 16.7462 39.5782 15.5592 38.3357 14.4498C37.9641 14.117 37.4926 13.9228 37.01 13.8174C33.9925 13.1574 31.3577 14.2002 28.4067 14.9546C27.1254 15.2818 25.8607 15.6923 24.6459 16.2248C24.058 16.48 23.47 16.7629 22.9819 17.1789C22.2219 17.8279 21.7671 18.7542 21.2734 19.6251C19.9477 21.9659 17.1964 24.0293 15.2606 25.8487C12.9919 27.9843 10.9617 29.9423 8.3713 32.2998C6.0416 34.4187 3.76182 36.3767 1.62071 38.6898C-0.148754 40.6035 0.494688 42.1067 0.749846 42.6226C2.19204 45.5846 3.80619 46.6496 5.73097 48.4856C9.07021 51.664 20.569 60.8164 24.3852 63.8339C25.2006 64.4829 25.8441 65.3205 26.2545 66.2746L26.9812 67.9664C31.33 68.7651 34.231 62.2364 30.6311 54.3765C30.0486 53.1007 29.1223 52.0135 27.9852 51.187C23.4423 47.881 14.5339 41.0694 14.5339 41.0694Z" fill="#FFA8A7"/>
<path d="M14.5339 41.0694C14.5339 41.0694 12.5702 43.6987 9.21991 44.7304C9.21991 44.7304 11.9934 45.4404 15.793 42.029L14.5339 41.0694Z" fill="#F28F8F"/>
<path d="M70.9235 81.4787H70.9402L70.2302 80.8686V80.8797C70.0693 80.7521 69.8197 80.7133 69.498 80.7965L61.7989 82.8932C61.0833 83.0873 60.3123 83.814 60.0682 84.5129L54.5269 100.505C54.3993 100.876 54.4492 101.159 54.6267 101.32H54.6211L55.3533 101.952V101.941C55.5142 102.074 55.7638 102.119 56.0911 102.03L63.7902 99.9333C64.5057 99.7392 65.2768 99.0125 65.5208 98.3136C66.608 95.1685 69.975 85.467 71.0622 82.3219C71.1953 81.928 71.1288 81.634 70.9235 81.4787Z" fill="#455A64"/>
<path d="M55.2316 101.109L60.7729 85.1175C61.017 84.4186 61.788 83.6919 62.5036 83.4978L70.2027 81.4011C70.9182 81.2069 71.301 81.6174 71.0569 82.3163C69.9697 85.4614 66.6027 95.1629 65.5155 98.308C65.2715 99.007 64.5005 99.7336 63.7849 99.9277L56.0858 102.024C55.3702 102.219 54.9875 101.808 55.2316 101.109Z" fill="#27DEBF"/>
<path d="M61.6663 83.9471C61.2669 84.2632 60.923 84.7015 60.7732 85.123L55.2263 101.109C55.1043 101.47 55.1431 101.747 55.304 101.914L54.6161 101.32L54.6217 101.314C54.4386 101.154 54.3887 100.871 54.5163 100.499L60.0632 84.5073C60.1963 84.1135 60.5125 83.7141 60.8842 83.3979L61.6663 83.9471Z" fill="#37474F"/>
<path d="M68.8048 88.7673C68.2612 90.3981 66.3253 91.4853 63.1469 92.2397C59.9685 92.9941 58.2046 96.3722 58.7149 97.3983C59.2308 98.4245 64.3672 99.3786 66.4252 99.0846C68.4831 98.7906 70.5521 95.8175 71.1733 94.8967C71.7946 93.9759 72.5212 87.5526 71.8611 86.6706C71.201 85.7886 69.8088 85.9273 69.8088 85.9273L68.8048 88.7673Z" fill="#F28F8F"/>
</svg>
