<svg width="145" height="192" viewBox="0 0 145 192" fill="none" xmlns="http://www.w3.org/2000/svg">
<path d="M68.881 186.387C55.9186 178.903 55.9186 166.772 68.881 159.288C81.8434 151.804 102.86 151.804 115.822 159.288C128.785 166.772 128.785 178.903 115.822 186.387C102.86 193.871 81.8434 193.871 68.881 186.387Z" fill="#E0E0E0"/>
<path d="M108.976 150.671C108.976 150.671 110.092 140.872 114.967 133.271C119.841 125.669 126.536 120.921 132.787 120.426C139.037 119.931 144.08 125.678 137.393 129.629C130.706 133.581 118.826 137.608 113.364 152.374L108.976 150.671Z" fill="#27DEBF"/>
<path opacity="0.1" d="M108.976 150.671C108.976 150.671 110.092 140.872 114.967 133.271C119.841 125.669 126.536 120.921 132.787 120.426C139.037 119.931 144.08 125.678 137.393 129.629C130.706 133.581 118.826 137.608 113.364 152.374L108.976 150.671Z" fill="black"/>
<path d="M110.814 148.129C110.788 148.129 110.772 148.121 110.746 148.112C110.579 148.045 110.495 147.852 110.562 147.676C117.156 131.433 129.708 124.654 135.43 123.337C135.606 123.295 135.79 123.404 135.832 123.589C135.874 123.765 135.765 123.95 135.581 123.991C129.976 125.284 117.677 131.945 111.183 147.928C111.124 148.07 110.965 148.154 110.814 148.129Z" fill="white"/>
<path d="M144.189 148.314C143.626 149.589 142.234 150.252 140.933 150.772C139.641 151.292 138.232 151.854 137.535 153.062C136.126 155.496 138.441 158.927 136.923 161.293C136.285 162.291 135.102 162.812 133.945 163.021C132.98 163.206 131.998 163.197 131.016 163.281C130.547 163.273 130.077 163.239 129.624 163.172C128.281 162.979 126.821 162.912 125.597 163.6C123.658 164.691 123.063 167.132 121.888 169.02C120.479 171.277 117.987 172.754 115.369 173.114C114.497 173.232 112.877 173.383 111.997 172.888C111.929 172.846 111.871 172.812 111.812 172.77C111.804 172.77 111.804 172.762 111.795 172.754C111.669 172.619 111.518 172.443 111.451 172.342C111.434 172.326 111.426 172.309 111.418 172.284C111.074 171.017 111.636 169.708 111.661 168.399C111.661 168.315 111.661 168.24 111.661 168.164C111.611 166.646 111.56 165.136 111.527 163.625C111.46 160.84 111.426 158.054 111.443 155.269C111.46 153.457 111.241 151.477 112.013 149.774C112.861 147.903 114.967 147.861 115.764 146.015C116.082 145.285 116.25 144.496 116.561 143.758C117.484 141.585 119.715 140.016 122.081 139.907C125.764 139.723 129.062 142.701 132.745 142.432C133.693 142.357 134.624 142.072 135.564 141.896C138.542 141.333 141.99 142.189 143.668 144.706C144.365 145.772 144.709 147.156 144.189 148.314Z" fill="#27DEBF"/>
<path d="M111.116 166.503C111.107 166.503 111.099 166.503 111.091 166.495C110.923 166.453 110.822 166.277 110.872 166.109C115.957 147.03 136.067 144.27 140.766 144.605C140.933 144.622 141.068 144.765 141.059 144.941C141.051 145.117 140.9 145.243 140.724 145.235C136.126 144.899 116.46 147.601 111.476 166.268C111.435 166.436 111.275 166.528 111.116 166.503Z" fill="white"/>
<path d="M133.458 156.83C133.399 156.821 133.34 156.788 133.29 156.746C133.24 156.695 128.114 151.636 119.606 152.895C119.438 152.92 119.279 152.802 119.245 152.626C119.22 152.458 119.338 152.299 119.514 152.265C128.348 150.965 133.684 156.242 133.735 156.301C133.861 156.427 133.852 156.62 133.735 156.746C133.659 156.821 133.559 156.855 133.458 156.83Z" fill="white"/>
<path d="M79.7963 42.9283C76.2725 48.8852 72.883 54.0617 70.5003 56.5452C65.9781 58.651 55.3565 61.8811 51.2035 62.4181C50.4652 62.5104 49.7269 62.3258 49.1144 61.9231C47.4784 60.8492 46.2199 60.6814 44.4916 60.0857C43.1408 59.6159 42.5703 58.9782 42.3186 59.2215C41.9914 59.5403 41.639 60.4297 42.4612 61.3609C42.8723 61.8308 43.6274 62.3342 44.5923 62.955C44.5923 62.955 41.6223 63.7437 38.971 63.0473C35.3718 62.0993 33.677 63.836 36.1101 67.7373C36.9826 69.1384 40.4141 71.3785 47.3609 70.7744C49.3661 70.5982 52.2522 70.4304 54.744 69.9019C61.414 68.4756 68.8223 67.0996 73.378 65.7405C74.5274 65.3965 76.5829 64.0709 77.7995 62.6698C85.4595 53.9359 88.0016 47.7106 91.3575 42.0558L91.0639 32.8101C85.644 32.6507 82.7411 37.9448 79.7963 42.9283Z" fill="#FFA8A7"/>
<path d="M92.0119 32.6507C92.0119 32.6507 87.2716 31.644 83.7059 36.1997C79.9808 40.9735 73.3864 52.4341 73.3864 52.4341C73.3864 52.4341 75.5509 58.1812 81.3735 59.1293L90.7283 46.4941C90.7199 46.4941 95.1497 37.7518 92.0119 32.6507Z" fill="#455A64"/>
<path d="M112.24 161.486H106.14V172.359H112.24V161.486Z" fill="#FFA8A7"/>
<path d="M91.0974 160.899L85.0064 161.117L84.6959 149.614L91.0974 149.396V160.899Z" fill="#FFA8A7"/>
<path d="M113.096 67.3597C113.096 73.4256 112.206 122.23 112.206 122.23C112.349 123.975 113.918 127.188 113.582 133.892C113.121 142.995 112.508 166.923 112.508 166.923C112.508 166.923 109.547 168.726 105.721 167.065C105.721 167.065 100.779 133.539 99.6887 124.52C98.7322 116.642 96.2908 90.5242 96.2908 90.5242L92.9852 121.349C92.9852 121.349 94.1094 126.047 93.7402 131.442C93.455 135.612 91.4918 157.35 91.4918 157.35C91.4918 157.35 88.6224 159.38 84.4526 157.912C84.4526 157.912 80.9876 125.183 80.9121 121.349C80.8282 116.986 82.9425 67.301 82.9425 67.301L113.096 67.3597Z" fill="#37474F"/>
<path d="M106.141 169.221V168.315C105.553 168.584 104.202 173.97 101.786 176.269C99.8649 178.098 97.2389 180.204 96.5761 182.243C95.8797 184.365 100.226 185.531 102.029 185.196C104.119 184.81 107.735 183.283 108.641 181.857C109.547 180.439 109.975 178.341 110.713 177.301C111.451 176.261 113.154 175.103 113.549 173.895C113.767 173.232 113.507 171.789 113.196 170.564C112.911 169.44 112.609 168.206 112.24 168.315C112.24 168.45 112.24 169.012 112.24 169.012C111.795 169.523 110.57 170.027 109.194 170.086C108.297 170.111 106.132 169.926 106.141 169.221Z" fill="#263238"/>
<path d="M84.9392 159.162C84.6203 159.17 84.3686 159.64 83.6639 160.429C82.8165 161.377 81.4406 162.409 80.073 163.114C77.791 164.305 73.3527 166.134 71.3391 167.074C70.0807 167.661 70.1394 169.238 71.4398 170.136C72.7403 171.034 75.8697 171.68 79.6284 170.807C81.6755 170.329 84.3435 168.357 86.0298 168.466C87.7162 168.575 90.8792 168.55 92.1209 167.653C93.371 166.755 92.8676 164.85 92.5152 163.206C92.1293 161.41 91.6511 158.617 91.0806 158.742V159.363C90.3506 160.521 86.5668 160.991 84.9559 160.135L84.9392 159.162Z" fill="#263238"/>
<path d="M96.2739 90.5158C96.2739 90.5158 91.3994 89.0895 87.7833 85.4483C87.7833 85.4483 89.4194 88.6449 94.2939 91.6149L93.2535 119.142L96.2739 90.5158Z" fill="#263238"/>
<path d="M109.681 33.5568C109.681 33.5568 114.698 34.7146 114.354 43.8093L113.297 58.2902L113.322 80.0201C108.842 85.1043 88.958 84.7268 82.1538 79.6174C82.1538 79.6174 82.9257 53.9023 83.3871 44.0106C83.7143 36.9799 85.3336 33.431 92.2469 32.6591L100.746 33.0367L109.681 33.5568Z" fill="#27DEBF"/>
<path d="M103.279 14.6628C103.279 19.8813 99.2188 24.1182 94.2016 24.1182C89.1844 24.1182 86.2228 19.7723 85.1237 14.6628C83.1185 5.32486 89.1844 5.2074 94.2016 5.2074C99.2188 5.2074 103.279 9.4359 103.279 14.6628Z" fill="#263238"/>
<path d="M107.911 18.4802C107.911 18.4802 106.518 25.2928 105.964 26.4087C105.402 27.5245 104.253 27.8433 104.253 27.8433L104.353 23.0527L107.911 18.4802Z" fill="#263238"/>
<path d="M106.157 8.72276C106.157 8.72276 107.156 8.47107 108.213 10.1323C109.119 11.5502 109.329 14.7467 107.902 18.4886L105.276 18.799L106.157 8.72276Z" fill="#263238"/>
<path d="M107.122 10.1071L110.336 10.1658C110.411 9.24294 109.757 8.47946 108.867 8.46268C107.986 8.4459 107.206 9.18421 107.122 10.1071Z" fill="#263238"/>
<path d="M107.516 9.34361L109.899 7.05317C109.312 6.37358 108.305 6.33164 107.642 6.96088C106.988 7.59012 106.929 8.65564 107.516 9.34361Z" fill="#263238"/>
<path d="M104.496 18.799C105.025 19.1262 105.771 18.0775 106.417 17.3643C107.063 16.6596 109.102 15.9884 110.159 18.304C111.233 20.67 109.413 22.9101 107.902 23.6652C105.192 25.0075 104.337 23.0527 104.337 23.0527L104.118 33.8421C100.301 39.7402 91.6679 39.5305 94.7722 33.5568L94.7805 30.2764C94.7805 30.2764 92.1797 30.6875 90.9044 30.4861C88.7902 30.1422 87.4646 28.4138 86.8185 26.0311C85.7866 22.2053 85.4006 19.1178 86.2732 11.5921C87.2296 3.34483 96.4417 3.26094 101.409 6.5246C106.392 9.77988 104.496 18.799 104.496 18.799Z" fill="#FFA8A7"/>
<path d="M93.0185 10.3084C95.2167 10.0903 97.3897 9.63726 99.5962 9.47785C100.074 9.44429 100.561 9.41912 101.023 9.54497C102.709 9.99802 102.491 11.9613 102.759 13.3372C103.221 15.7031 103.607 19.7051 104.496 19.7219C104.764 19.7303 105.763 17.9852 106.417 17.3727C106.845 16.97 106.912 16.1059 107.004 15.5689C107.172 14.5873 107.265 13.5973 107.34 12.6073C107.407 11.7683 107.491 10.9209 107.483 10.0735C107.483 9.13386 107.499 8.16902 107.265 7.24614C107.055 6.40715 106.661 5.78629 106.09 5.13188C106.031 5.07315 105.981 5.00603 105.922 4.9473C104.84 3.78111 103.456 2.90017 101.987 2.2961C99.8815 1.42355 97.591 1.07956 95.3258 0.844646C93.0605 0.609729 90.77 0.483881 88.5383 0.0308264C88.4041 0.00565676 88.2699 -0.0195129 88.144 0.0224365C87.951 0.0979456 87.8671 0.324473 87.8252 0.52583C87.6238 1.55779 88.0937 2.69042 88.9662 3.28611C87.4476 3.40356 85.7026 2.61491 84.2343 2.22059C83.991 2.15347 83.7058 2.09474 83.4876 2.22059C83.3366 2.31288 83.2443 2.48068 83.194 2.64847C83.0681 3.03441 83.0933 3.46229 83.152 3.86501C83.3114 5.06476 83.7225 6.24774 84.4608 7.20419C85.5264 8.58013 87.2715 9.82183 88.9914 10.1658C90.3589 10.4427 91.6258 10.4427 93.0185 10.3084Z" fill="#263238"/>
<path d="M94.7889 30.2848C94.7889 30.2848 99.5041 29.2948 101.157 28.3803C102.264 27.7678 103.17 26.7107 103.439 26.0311C103.439 26.0311 103.128 27.491 102.147 28.7998C100.939 30.4022 94.7973 31.5852 94.7973 31.5852L94.7889 30.2848Z" fill="#F28F8F"/>
<path d="M95.9215 17.5741C95.9215 18.1362 96.341 18.5977 96.8696 18.5977C97.3897 18.5977 97.8176 18.1362 97.8176 17.5741C97.8176 17.012 97.3981 16.5505 96.8696 16.5505C96.341 16.5505 95.9215 17.0036 95.9215 17.5741Z" fill="#263238"/>
<path d="M97.4402 13.4966L99.4622 14.6628C99.7642 14.0587 99.546 13.3036 98.9923 12.9848C98.4302 12.6576 97.7338 12.8925 97.4402 13.4966Z" fill="#263238"/>
<path d="M95.2084 24.3699L93.0522 25.2089C93.262 25.8549 93.9248 26.1821 94.5205 25.9556C95.1162 25.7291 95.4266 25.0159 95.2084 24.3699Z" fill="#F28F8F"/>
<path d="M87.2464 14.3608L89.0922 12.8841C88.7146 12.3304 88.0015 12.2213 87.4897 12.624C86.9779 13.0352 86.8772 13.8154 87.2464 14.3608Z" fill="#263238"/>
<path d="M88.0602 17.2888C88.0602 17.851 88.4797 18.3124 89.0082 18.3124C89.5284 18.3124 89.9563 17.851 89.9563 17.2888C89.9563 16.7267 89.5368 16.2653 89.0082 16.2653C88.4797 16.2653 88.0602 16.7267 88.0602 17.2888Z" fill="#263238"/>
<path d="M93.1193 16.5002L93.0102 22.4738L89.6207 21.6935L93.1193 16.5002Z" fill="#F28F8F"/>
<path d="M12.6267 66.462L17.8872 63.4249L19.9679 60.8995L14.7158 63.9367L12.6267 66.462Z" fill="#27DEBF"/>
<path opacity="0.4" d="M12.6267 66.462L17.8872 63.4249L19.9679 60.8995L14.7158 63.9367L12.6267 66.462Z" fill="black"/>
<path d="M26.9314 74.7177L32.1919 71.6805L36.5798 67.796L31.3277 70.8247L26.9314 74.7177Z" fill="#27DEBF"/>
<path opacity="0.4" d="M26.9314 74.7177L32.1919 71.6805L36.5798 67.796L31.3277 70.8247L26.9314 74.7177Z" fill="black"/>
<path d="M71.6161 85.1966C72.7656 86.6649 73.6045 88.8127 73.7891 90.9185C72.6397 89.4503 71.8007 87.3025 71.6161 85.1966ZM83.8402 85.356C82.0699 73.3165 75.6013 61.4029 67.891 56.9562C64.1911 54.8168 60.768 54.7413 58.0245 56.3438C57.2191 56.8136 54.2491 58.5252 53.0745 59.1964C52.9822 59.2467 52.8815 59.297 52.7976 59.3642C52.5795 59.4816 52.3697 59.6242 52.16 59.7669C51.7656 60.0437 51.3797 60.3542 51.0189 60.7065C50.9686 60.7485 50.9183 60.8072 50.8512 60.8576C50.6917 61.017 50.5407 61.1848 50.3981 61.3609C50.2135 61.5707 50.0373 61.7804 49.8695 62.007C49.5255 62.46 49.1983 62.955 48.9047 63.492C48.7621 63.7521 48.611 64.0289 48.4768 64.3142L5.25207 39.3626L0 42.3914V45.739L0.444664 45.999L0.855769 46.2424V46.9471L0 47.4421V49.3886L6.35115 62.8292L12.6268 66.462L14.7159 63.9366L20.2532 67.2507L23.433 72.7041L26.9316 74.726L31.3195 70.8331L36.7142 73.9458L38.5264 81.4128L47.5539 86.6229C48.007 88.5358 48.5859 90.4068 49.2655 92.2358C49.3242 92.4287 49.3913 92.6133 49.4752 92.823C52.4788 100.718 57.2526 107.472 62.639 110.584C63.3269 110.979 63.9981 111.306 64.6693 111.558C65.0469 111.717 65.4244 111.835 65.8019 111.935C66.1375 112.028 66.4731 112.111 66.8087 112.162C67.9246 112.363 68.9985 112.355 70.0053 112.153C70.1479 112.12 70.2989 112.086 70.4416 112.053C70.6513 112.011 70.8527 111.952 71.054 111.868C71.2134 111.809 71.3644 111.751 71.5238 111.684C71.6917 111.625 71.8511 111.549 72.0105 111.457C72.1615 111.39 72.3125 111.314 72.4551 111.222C72.5306 111.18 72.6061 111.138 72.6817 111.096C72.7152 111.088 72.7488 111.063 72.7823 111.038C73.9821 110.35 76.9437 108.638 77.7408 108.185C81.7344 105.869 84.3184 100.013 84.3184 91.7407C84.3184 89.6265 84.159 87.4871 83.8402 85.356Z" fill="#27DEBF"/>
<path d="M70.0808 95.3568C68.0085 94.1571 66.3305 90.5998 66.3305 87.4116C66.3305 84.2234 68.0085 82.6042 70.0808 83.7955C72.1531 84.9953 73.8311 88.5526 73.8311 91.7408C73.8311 94.9289 72.1531 96.5566 70.0808 95.3568ZM78.5881 88.3848C76.8179 76.3537 70.3493 64.4401 62.639 59.9934C59.0649 57.9295 55.7676 57.7785 53.0745 59.1964C52.9822 59.2467 52.8815 59.2971 52.7976 59.3642C52.5795 59.4816 52.3697 59.6243 52.16 59.7669C51.7657 60.0438 51.3797 60.3542 51.019 60.7066C50.9686 60.7485 50.9183 60.8072 50.8512 60.8576C50.6917 61.017 50.5407 61.1848 50.3981 61.361C50.2135 61.5707 50.0373 61.7805 49.8695 62.007C49.5255 62.4601 49.1983 62.9551 48.9047 63.492C48.7621 63.7521 48.611 64.029 48.4768 64.3142C47.7637 65.7824 47.1932 67.4856 46.8156 69.4237L0 42.3914V45.739L0.444664 45.9991L0.855769 46.2424V46.9471L0 47.4421V49.3886L6.35115 62.8292L12.6268 66.462L14.7159 63.9367L20.2532 67.2507L23.433 72.7041L26.9316 74.7261L31.3195 70.8332L36.7142 73.9458L38.5264 81.4128L47.5539 86.6229C48.007 88.5358 48.5859 90.4068 49.2655 92.2358C49.3242 92.4288 49.3913 92.6133 49.4752 92.8231C52.4788 100.718 57.2526 107.472 62.639 110.584C63.3269 110.979 63.9981 111.306 64.6693 111.558C65.0469 111.717 65.4244 111.835 65.8019 111.935C66.1375 112.028 66.4731 112.111 66.8087 112.162C67.9246 112.363 68.9985 112.355 70.0053 112.153C70.1479 112.12 70.2989 112.086 70.4416 112.053C70.6513 112.011 70.8527 111.952 71.054 111.868C71.2134 111.809 71.3644 111.751 71.5239 111.684C71.6917 111.625 71.8511 111.549 72.0105 111.457C72.1615 111.39 72.3125 111.314 72.4551 111.222C72.5306 111.18 72.6061 111.138 72.6817 111.096C72.7152 111.088 72.7488 111.063 72.7823 111.038C76.6081 108.621 79.0664 102.849 79.0664 94.7695C79.0664 92.6637 78.8986 90.5242 78.5881 88.3848Z" fill="#27DEBF"/>
<path opacity="0.4" d="M73.831 91.7408C73.831 94.9289 72.153 96.5566 70.0807 95.3568C68 94.1571 66.322 90.6081 66.322 87.4116C66.322 84.215 68 82.5958 70.0807 83.7955C70.6344 84.1144 71.163 84.601 71.616 85.205C71.8006 87.3025 72.6396 89.4587 73.789 90.927C73.8226 91.1954 73.831 91.4723 73.831 91.7408Z" fill="black"/>
<path opacity="0.4" d="M84.3184 91.7324C84.3184 100.013 81.7343 105.869 77.7407 108.177C76.9353 108.63 73.982 110.341 72.7823 111.029C76.6081 108.613 79.0663 102.841 79.0663 94.7611C79.0663 92.6553 78.8901 90.5159 78.5797 88.3764C76.8094 76.3453 70.3408 64.4317 62.6305 59.985C59.0564 57.9211 55.7592 57.7701 53.066 59.188C54.2406 58.5168 57.2106 56.7969 58.0161 56.3354C60.7596 54.733 64.1827 54.8085 67.8826 56.9479C75.5929 61.3945 82.0615 73.3082 83.8318 85.3477C84.159 87.4871 84.3184 89.6265 84.3184 91.7324Z" fill="white"/>
<path d="M79.0663 94.7695C79.0663 102.849 76.608 108.621 72.7822 111.038C73.982 110.35 76.9436 108.638 77.7407 108.185C81.7342 105.869 84.3183 100.013 84.3183 91.7408C84.3183 91.4387 84.3099 91.1283 84.3016 90.8179C82.4977 91.8582 80.6687 92.9154 79.0495 93.8466C79.0579 94.1571 79.0663 94.4675 79.0663 94.7695Z" fill="#27DEBF"/>
<path opacity="0.1" d="M79.0663 94.7695C79.0663 102.849 76.608 108.621 72.7822 111.038C73.982 110.35 76.9436 108.638 77.7407 108.185C81.7342 105.869 84.3183 100.013 84.3183 91.7408C84.3183 91.4387 84.3099 91.1283 84.3016 90.8179C82.4977 91.8582 80.6687 92.9154 79.0495 93.8466C79.0579 94.1571 79.0663 94.4675 79.0663 94.7695Z" fill="black"/>
<path opacity="0.15" d="M47.0002 72.8719V74.575L0 47.4421L0.864159 46.9471V46.234L47.0002 72.8719Z" fill="black"/>
<path opacity="0.15" d="M47.0002 73.5766V74.575L0 47.4421L0.864159 46.9471V46.9387L47.0002 73.5766Z" fill="black"/>
<path opacity="0.15" d="M69.4506 107.485C76.0022 105.474 78.2627 93.9042 74.4996 81.6427C70.7365 69.3812 62.3748 61.0713 55.8232 63.082C49.2717 65.0927 47.0112 76.6626 50.7743 88.9241C54.5374 101.186 62.8991 109.495 69.4506 107.485Z" stroke="black" stroke-miterlimit="10"/>
<path opacity="0.4" d="M48.4768 64.3142C47.7637 65.7824 47.1932 67.4856 46.8156 69.4236L0 42.3914L5.25207 39.3626L48.4768 64.3142Z" fill="white"/>
<path d="M109.278 66.9402C111.736 62.3006 114.53 51.8804 115.923 46.6199C117.903 39.1529 114.698 34.4546 111.065 34.2616C108.783 34.6056 101.299 61.856 101.299 61.856C100.469 62.5188 89.0753 68.291 85.4089 69.7425C84.7629 70.0025 84.0414 69.9858 83.3786 69.7509C81.6167 69.1132 80.4253 69.2307 78.7054 69.0545C77.3546 68.9202 76.6751 68.442 76.5073 68.7273C76.2891 69.0964 76.1884 70.0277 77.1701 70.7157C77.6651 71.0597 78.4789 71.3701 79.5192 71.7393C79.5192 71.7393 77.5728 72.4104 74.9803 72.3601C71.4649 72.2846 70.1897 73.8116 72.9248 77.3773C74.6363 79.609 77.3882 80.3137 83.5799 78.1743C85.367 77.5535 87.7833 76.3537 90.0318 75.5399C94.6882 73.8451 95.8795 73.6689 99.4536 72.4608C104.597 70.7325 108.187 69.0042 109.278 66.9402Z" fill="#FFA8A7"/>
<path d="M109.681 33.5569C111.82 33.8505 113.901 34.3371 115.143 36.0654C116.384 37.7938 117.425 40.2352 116.183 46.9387C114.941 53.6423 112.374 60.7569 112.374 60.7569C112.374 60.7569 107.39 62.8879 102.096 57.4848L105.738 43.4066C105.738 43.4066 106.358 34.2616 109.681 33.5569Z" fill="#455A64"/>
</svg>
