<svg width="215" height="184" viewBox="0 0 215 184" fill="none" xmlns="http://www.w3.org/2000/svg">
<path d="M76.6427 54.3823C75.5983 54.2331 75.6251 53.8215 73.9331 53.9528C72.2411 54.084 70.6744 54.9042 69.1823 61.2423C67.6902 67.5804 73.1363 61.7643 74.703 60.1984C76.2697 58.6325 77.538 59.3782 78.8809 58.4088C80.2237 57.4395 81.0444 56.7684 79.8507 55.8736C78.657 54.9788 76.6427 54.3823 76.6427 54.3823Z" fill="#FFB287"/>
<path d="M98.7257 54.3823C97.6812 54.2331 97.7081 53.8215 96.016 53.9528C94.324 54.084 92.7573 54.9042 91.2652 61.2423C89.7731 67.5804 95.2193 61.7643 96.786 60.1984C98.3526 58.6325 99.6209 59.3782 100.964 58.4088C102.307 57.4395 103.127 56.7684 101.934 55.8736C100.74 54.9788 98.7257 54.3823 98.7257 54.3823Z" fill="#FFB287"/>
<path d="M0 180.509C0 181.329 0.805729 182 1.79051 182H205.912C206.896 182 207.702 181.329 207.702 180.509C207.702 179.688 206.896 179.017 205.912 179.017H1.79051C0.805729 179.017 0 179.688 0 180.509Z" fill="#B2C5CE"/>
<path d="M68.3885 85.7744C66.9949 84.4322 65.082 84.5068 63.9838 85.0437C62.7066 85.667 59.8269 90.1022 60.2267 91.4325C60.6266 92.7627 64.0674 98.0002 67.4156 97.2874C70.9638 96.5298 70.6087 91.1014 69.8119 88.772C69.2599 87.1792 68.3885 85.7744 68.3885 85.7744Z" fill="#0C5291"/>
<path d="M86.8636 10.7434C89.9223 18.0002 100.197 21.1558 105.124 15.3695C112.223 7.03304 116.837 6.6781 116.837 6.6781L119.093 5.01976C114.402 -3.39423 106.708 0.844082 99.1494 7.40586C94.4046 11.5249 86.8636 10.7434 86.8636 10.7434Z" fill="#542923"/>
<path d="M57.8215 92.3183C56.8576 92.3183 56.2906 92.2646 56.216 92.2557C54.3658 92.0678 53.02 90.4184 53.205 88.5721C53.39 86.7289 55.0313 85.3867 56.8755 85.5627C56.974 85.5716 62.3754 86.0041 69.5046 83.1676C79.1226 79.3379 87.1918 71.6726 93.4884 60.3833C94.3926 58.7608 96.4428 58.1791 98.0662 59.0829C99.6896 59.9866 100.271 62.0357 99.3673 63.6582C90.4446 79.6541 79.3315 86.5827 71.5816 89.5773C65.4043 91.9664 60.2984 92.3183 57.8215 92.3183Z" fill="#FFB287"/>
<path d="M68.2632 90.6719C64.3778 91.8679 60.8863 92.3153 58.5646 92.4108L58.0662 90.9702C58.0662 90.9702 58.3646 86.5469 59.1614 86.0488C59.4897 85.843 59.421 85.8102 60.0059 85.5507C60.0089 85.5507 60.1074 85.7028 60.4028 85.5507C61.4115 85.667 64.0226 84.9453 64.0226 84.9453C63.5362 85.4016 63.1155 87.3164 63.8346 89.0315C64.1092 89.6817 65.5028 91.1849 68.2632 90.6719Z" fill="#F58D6C"/>
<path d="M64.0346 84.8558C61.0504 86.4962 62.1515 97.0219 67.6096 97.2873C67.6096 97.2873 56.6278 100.947 53.3005 99.748C49.9731 98.552 50.1283 81.7687 54.1659 84.1817C57.8692 86.3948 64.0346 84.8558 64.0346 84.8558Z" fill="#008DC4"/>
<path opacity="0.4" d="M62.9901 92.8969C59.3404 93.9677 57.6932 91.8113 56.4965 88.6169C56.4965 88.6169 53.3154 90.1201 51.1578 90.0068C50.9161 94.2153 51.5875 99.1306 53.3005 99.748C56.6278 100.944 67.6096 97.2874 67.6096 97.2874C65.2491 97.171 63.8227 95.2144 62.9901 92.8969Z" fill="#0C5291"/>
<path d="M52.2918 150.36C52.3485 150.7 48.2811 152.97 43.1901 153.805C42.071 153.987 41.4891 153.892 41.319 153.537L50.1223 145.093L52.2918 150.36Z" fill="#603F34"/>
<path d="M13.7929 158.548C13.2677 158.154 12.8499 157.608 12.6141 156.946C11.9755 155.147 12.6529 153.218 14.4733 152.642C18.1886 151.467 25.0104 152.177 26.6875 149.34C28.5974 146.107 28.1557 145.868 29.7433 142.155C30.2984 140.858 30.1939 142.268 30.931 140.878C31.8233 139.19 33.9152 138.546 35.6043 139.441C37.2933 140.333 37.9349 142.423 37.0426 144.112C36.3234 145.472 35.658 146.751 35.0194 147.992C33.3542 151.234 33.575 151.163 31.7159 154.443C30.9847 155.732 29.8448 156.618 27.7141 157.038C24.151 157.742 19.7224 158.369 16.9919 158.879C15.6311 159.043 14.6911 159.222 13.7929 158.548Z" fill="#FFB287"/>
<path d="M52.5246 126.156C51.4443 135.686 44.5926 149.868 40.1671 150.837C40.1671 150.837 30.6087 150.375 28.3587 145.251C28.3587 145.251 31.7278 132.294 35.1417 125.482C38.0692 119.645 52.5246 126.156 52.5246 126.156Z" fill="#603B30"/>
<path d="M53.9421 171.546C53.8824 173.413 52.3455 174.889 50.4894 174.889C50.4506 174.889 50.4118 174.886 50.373 174.886C48.4661 174.824 46.968 173.228 47.0307 171.319C47.2127 165.685 46.4189 159.714 44.7896 154.109C44.1838 152.007 43.4557 149.955 42.6171 147.992C42.3455 147.354 42.062 146.724 41.7666 146.104C40.1193 142.65 36.6189 139.328 33.5303 136.396C29.4986 132.566 26.0161 126.276 26.225 122.332C26.3264 120.427 27.9498 118.965 29.8597 119.064C31.7427 119.165 33.1931 120.752 33.1334 122.625C33.39 123.746 36.3354 126.544 38.293 128.402C41.8173 131.746 45.8102 138.522 48.0095 143.13C48.5198 144.201 49.0003 145.299 49.4479 146.42C49.985 147.756 50.4744 149.122 50.9191 150.515C53.0886 157.298 54.1659 164.644 53.9421 171.546Z" fill="#FFB287"/>
<path d="M50.9191 150.515C50.8982 150.518 50.8773 150.518 50.8534 150.521C48.3049 150.742 46.2757 152.374 44.7896 154.109C44.1838 152.007 43.4557 149.955 42.6171 147.992C43.2438 147.753 46.213 146.668 48.866 146.447C49.0659 146.429 49.2569 146.42 49.4479 146.42C49.985 147.756 50.4744 149.122 50.9191 150.515Z" fill="#F58D6C"/>
<path d="M41.501 127.603C39.7612 125.894 36.213 125.294 35.8161 124.265C35.8161 124.268 35.9385 124.59 35.8788 125.118L24.4285 123.824C23.1035 129.446 28.0304 136.39 32.5007 140.78C36.1414 144.359 40.2029 148.35 40.8893 152.156C40.9639 152.576 41.0534 153.471 41.4085 153.587C41.4085 153.587 42.4291 152.192 48.6153 150.456C50.7072 149.868 51.6114 149.946 51.9994 150.104C52.265 150.211 52.2918 150.357 52.2918 150.357C51.2772 140.357 46.0489 132.074 41.501 127.603Z" fill="#8E5744"/>
<path opacity="0.7" d="M41.874 127.922L41.4861 127.591C39.7433 125.891 36.21 125.291 35.8161 124.265C35.8161 124.268 35.9385 124.59 35.8788 125.118L24.4285 123.824C23.1543 128.053 26.6219 134.284 29.8687 137.699C27.547 135.185 27.6365 131.224 29.7941 129.148C31.7815 127.233 38.5705 127.481 41.874 127.922Z" fill="#603B30"/>
<path d="M59.1554 61.0186C59.3673 69.6802 51.2802 77.0383 42.635 77.3217C33.9898 77.605 26.4637 73.8111 25.7953 65.1704L25.282 56.6759C24.6135 48.0352 31.1578 40.7517 39.8239 40.4862L42.8529 40.3937C51.5189 40.1313 58.7824 47.0032 58.9943 55.6648L59.1554 61.0186Z" fill="#A3412E"/>
<path d="M56.6905 94.9937L52.9543 127.454C52.9543 127.454 50.1074 128.757 36.9114 127.263C23.7153 125.768 23.6109 124.134 23.6109 124.134C23.6109 124.134 23.396 121.635 24.342 113.289C25.0373 107.166 25.479 100.228 25.8758 94.2868C25.9475 93.2012 26.0191 92.1453 26.0907 91.1372C26.5473 84.5814 29.8478 80.4445 36.2698 81.1722L39.239 81.5093L49.7433 82.6963C58.5317 83.6896 56.9382 92.7896 56.6905 94.9937Z" fill="#008DC4"/>
<path opacity="0.4" d="M43.4885 86.9705L44.333 87.0659C48.1647 87.4984 48.854 84.2861 49.0719 82.6188L47.7618 82.4697C47.4694 84.5873 46.795 86.019 44.4822 85.7565L43.6377 85.6611C43.6138 85.6581 43.5929 85.6551 43.5691 85.6521C41.2623 85.3628 38.1558 83.5106 38.0036 81.3631L36.6846 81.214C36.6905 82.6009 37.4873 83.967 38.9734 85.0974C40.2566 86.0727 41.9128 86.7676 43.4049 86.9555L43.4885 86.9705Z" fill="#0C5291"/>
<path d="M30.4357 66.7632C30.5491 68.3708 29.3345 69.7637 27.729 69.874C26.1206 69.9874 24.7269 68.7764 24.6165 67.1688L24.4434 64.7022C24.33 63.0945 25.5446 61.7016 27.1501 61.5913C28.7586 61.4779 30.1522 62.6919 30.2626 64.2965L30.4357 66.7632Z" fill="#FFB287"/>
<path d="M47.8096 82.0551C47.544 84.3965 46.9412 86.0399 44.4762 85.7595L43.6317 85.6641C41.1668 85.3867 37.7409 83.2869 38.0065 80.9456L38.3766 77.6736C38.6422 75.3323 40.8743 73.6411 43.3393 73.9215L44.1838 74.0169C46.6487 74.2943 48.4452 76.4418 48.1796 78.7832L47.8096 82.0551Z" fill="#FFB287"/>
<path d="M38.2632 78.7026C38.105 80.1074 41.4652 82.2161 43.2557 82.5502C45.0462 82.8813 47.6753 83.2571 47.8573 81.6524L48.7765 73.5337L39.054 71.7292L38.2632 78.7026Z" fill="#F58D6C"/>
<path d="M57.3202 66.781C57.2426 74.6373 52.7902 79.3528 44.9627 79.5944C37.1352 79.833 28.1856 73.2235 27.6276 65.3852L27.1978 60.6816C26.6398 52.8462 32.4261 47.8563 40.2835 47.6177L47.3649 47.3999C55.2223 47.1583 57.4694 51.9007 57.3888 59.757L57.3202 66.781Z" fill="#FFB287"/>
<path d="M38.0155 61.7971C38.0513 62.9514 39.0152 63.8581 40.1701 63.8223C41.325 63.7865 42.2322 62.8231 42.1963 61.6688C42.1605 60.5145 41.1966 59.6078 40.0418 59.6436C38.8869 59.6794 37.9797 60.6428 38.0155 61.7971Z" fill="white" stroke="white" stroke-width="0.7938" stroke-miterlimit="10"/>
<path d="M40.6923 62.4204C40.1492 62.4204 39.7045 61.9939 39.6836 61.4511C39.6628 60.8963 40.0955 60.4251 40.6535 60.4042H40.6923C41.2354 60.4042 41.6801 60.8307 41.701 61.3735C41.7218 61.9283 41.2891 62.3996 40.7311 62.4204H40.6923Z" fill="#422B27"/>
<path d="M40.6953 60.4937C41.1847 60.4937 41.5935 60.8814 41.6114 61.3765C41.6323 61.8836 41.2354 62.3101 40.7311 62.328C40.7192 62.328 40.7072 62.328 40.6953 62.328C40.2059 62.328 39.7971 61.9402 39.7792 61.4451C39.7583 60.9381 40.1552 60.5116 40.6595 60.4937C40.6714 60.4937 40.6834 60.4937 40.6953 60.4937ZM40.6953 60.3117C40.6804 60.3117 40.6655 60.3117 40.6505 60.3117C40.3581 60.3237 40.0865 60.4489 39.8866 60.6637C39.6866 60.8784 39.5822 61.1588 39.5941 61.4541C39.618 62.0476 40.1014 62.5099 40.6923 62.5099C40.7072 62.5099 40.7222 62.5099 40.7371 62.5099C41.0295 62.498 41.3011 62.3727 41.501 62.158C41.701 61.9432 41.8054 61.6629 41.7935 61.3676C41.7696 60.774 41.2891 60.3117 40.6953 60.3117Z" fill="#422B27"/>
<path d="M34.342 50.0664C36.7084 49.9948 46.8338 49.6846 51.2981 49.5474C53.1542 49.4908 54.7776 49.4102 55.8251 48.3842C59.2002 45.0765 58.3557 38.7742 58.3557 38.7742C58.3557 38.7742 56.9292 39.9672 49.248 40.2028C41.2175 40.4474 34.8732 39.493 29.3464 45.6342C27.9678 47.1613 34.342 50.0664 34.342 50.0664Z" fill="#A3412E"/>
<path d="M40.5103 48.3454C40.5461 49.5504 41.9039 49.792 39.2987 49.8725C36.6219 49.9531 32.45 51.3638 32.629 57.183C32.7036 59.6019 32.7753 61.9939 32.8081 63.0677C32.8409 64.1295 30.7132 64.7081 30.1164 63.1721C29.3226 61.132 27.2963 61.5793 27.1471 61.5883C26.034 61.636 26.5115 52.7478 27.0695 51.9842C27.6276 51.2207 30.2268 47.8384 31.0355 47.2896C31.8442 46.7408 37.9588 44.5098 37.9588 44.5098C37.9588 44.5098 40.0238 43.788 40.7908 44.814C41.5607 45.843 40.5103 48.3454 40.5103 48.3454Z" fill="#A3412E"/>
<path d="M37.4754 58.8264C37.3858 58.8264 37.2963 58.7936 37.2247 58.7309C37.0695 58.5937 37.0576 58.3551 37.1949 58.2C38.1558 57.1293 39.3047 56.7773 40.9191 57.0636C41.122 57.0994 41.2593 57.2933 41.2235 57.4991C41.1877 57.7019 40.9937 57.8391 40.7878 57.8033C39.424 57.5617 38.5437 57.8212 37.7529 58.7041C37.6783 58.7846 37.5768 58.8264 37.4754 58.8264Z" fill="#8E3925"/>
<path d="M55.1298 58.5788C54.9985 58.5788 54.8731 58.5102 54.8045 58.3909C54.2882 57.4872 52.9155 57.35 51.8233 57.6781C51.6264 57.7377 51.4145 57.6244 51.3548 57.4275C51.2951 57.2307 51.4085 57.0189 51.6055 56.9593C52.9394 56.5566 54.712 56.7177 55.4551 58.0181C55.5565 58.197 55.4939 58.4267 55.3148 58.5311C55.2551 58.5609 55.1925 58.5788 55.1298 58.5788Z" fill="#8E3925"/>
<path d="M53.4497 65.8624C53.3691 67.4701 54.6105 68.8391 56.219 68.9166C57.8275 68.9972 59.1972 67.7564 59.2778 66.1487L59.4001 63.6791C59.4807 62.0715 58.2393 60.7025 56.6308 60.6219C55.0223 60.5414 53.6526 61.7822 53.572 63.3898L53.4497 65.8624Z" fill="#FFB287"/>
<path d="M29.5673 44.3726C29.1197 42.7142 31.9487 39.153 31.9487 39.153C31.9487 39.153 33.6168 41.6643 32.9185 43.0572C32.2262 44.4501 30.0149 46.0309 29.5673 44.3726Z" fill="#A3412E"/>
<path d="M29.9731 43.949C28.0483 43.0602 24.1211 46.4216 24.1211 46.4216C24.1211 46.4216 26.8785 47.8414 28.9137 46.9227C30.4178 46.2457 31.6264 44.7126 29.9731 43.949Z" fill="#A3412E"/>
<path d="M50.743 61.4063C50.7788 62.5606 51.7427 63.4673 52.8976 63.4315C54.0525 63.3958 54.9597 62.4324 54.9239 61.2781C54.8881 60.1238 53.9242 59.2171 52.7693 59.2529C51.6144 59.2887 50.7102 60.2521 50.743 61.4063Z" fill="white" stroke="white" stroke-width="0.7938" stroke-miterlimit="10"/>
<path d="M53.5034 61.8478C53.02 61.8478 52.5992 61.5197 52.5007 61.0663C52.447 60.8188 52.4977 60.5682 52.638 60.3565C52.7872 60.1328 53.023 59.9806 53.2975 59.9299C53.3632 59.918 53.4288 59.912 53.4915 59.912C53.9749 59.912 54.3957 60.2401 54.4942 60.6935C54.5479 60.9411 54.4971 61.1916 54.3569 61.4034C54.2077 61.6271 53.9719 61.7792 53.6974 61.8299C53.6317 61.8418 53.5661 61.8478 53.5034 61.8478Z" fill="#422B27"/>
<path d="M53.4915 60.0045C53.9242 60.0045 54.3151 60.2968 54.4046 60.7144C54.5061 61.1886 54.1808 61.6509 53.6795 61.7404C53.6198 61.7523 53.5601 61.7553 53.5034 61.7553C53.0707 61.7553 52.6798 61.463 52.5902 61.0454C52.4888 60.5712 52.814 60.1089 53.3154 60.0194C53.3721 60.0105 53.4318 60.0045 53.4915 60.0045ZM53.4915 59.8226C53.4198 59.8226 53.3512 59.8285 53.2826 59.8405C52.9841 59.8942 52.7275 60.0612 52.5634 60.3058C52.4082 60.5384 52.3545 60.8128 52.4112 61.0842C52.5156 61.5793 52.9752 61.9373 53.5004 61.9373C53.572 61.9373 53.6407 61.9313 53.7093 61.9194C54.0077 61.8657 54.2644 61.6986 54.4285 61.4541C54.5837 61.2214 54.6374 60.947 54.5807 60.6756C54.4762 60.1805 54.0197 59.8226 53.4915 59.8226Z" fill="#422B27"/>
<path d="M39.9462 69.4594C39.9462 69.4594 41.8352 74.7417 47.0814 74.6194C52.8827 74.4852 52.6559 69.1671 52.6559 69.1671L39.9462 69.4594Z" fill="#8E2B30"/>
<path d="M47.9558 66.8825C49.3763 66.8407 50.561 66.0026 50.4715 65.1853C50.4386 64.8871 50.1313 64.5381 49.5822 64.8185C49.3315 64.9467 48.6451 65.1078 47.911 65.1257C47.1769 65.1436 46.7741 65.0094 46.3563 64.896C45.4431 64.6515 45.1716 65.0153 45.1566 65.3136C45.1178 66.1368 46.5353 66.9123 47.9558 66.8825Z" fill="#F58D6C"/>
<path d="M50.1074 73.8439C48.5914 72.0931 44.8701 72.2601 41.9635 72.5345C43.0975 73.6709 44.7597 74.6731 47.0784 74.6194C48.3706 74.5896 49.3643 74.3002 50.1283 73.8737C50.1223 73.8618 50.1163 73.8529 50.1074 73.8439Z" fill="#D85365"/>
<path d="M39.9731 69.528C40.0477 69.7159 40.2864 70.2677 40.7221 70.909C40.7221 70.909 40.3581 70.4258 40.564 70.4795C40.564 70.4795 50.4386 71.4071 51.7755 69.9605L52.1187 69.1761L39.9462 69.4565L39.9731 69.528Z" fill="white"/>
<path d="M46.9083 74.7238C41.7815 74.7238 39.8716 69.5459 39.8508 69.4952L39.803 69.364L52.7514 69.0687L52.7544 69.1671C52.7573 69.2596 52.8349 71.4578 51.316 73.0774C50.3312 74.1272 48.9077 74.682 47.0814 74.7238C47.0247 74.7208 46.968 74.7238 46.9083 74.7238ZM40.0955 69.5579C40.4327 70.3691 42.441 74.6283 47.0814 74.521C48.8481 74.4792 50.2268 73.9483 51.1727 72.9402C52.4559 71.5711 52.5544 69.7189 52.5604 69.2745L40.0955 69.5579Z" fill="#FFB287"/>
<path d="M28.5467 65.0392C28.5049 64.4069 27.9588 63.9267 27.3261 63.9684C27.2874 63.9714 27.2486 63.9804 27.2127 63.9863C27.1023 63.9595 26.986 63.9416 26.8666 63.9505C26.2339 63.9923 25.7535 64.5381 25.7953 65.1704L25.8967 66.6647C25.9385 67.297 26.4846 67.7773 27.1173 67.7355C27.156 67.7325 27.1919 67.7236 27.2307 67.7176C27.3411 67.7444 27.4575 67.7623 27.5768 67.7534C28.2095 67.7116 28.6899 67.1658 28.6481 66.5335L28.5467 65.0392Z" fill="#F58D6C"/>
<path d="M47.0158 168.969C47.0068 169.252 46.9442 171.239 47.0038 173.571C47.0725 176.235 53.9898 174.526 54.5777 174.185C55.1656 173.845 57.7081 172.133 57.3739 172.038C57.0367 171.943 54.2823 171.427 54.1331 171.209C53.9838 170.988 53.957 168.927 53.951 168.724C53.9451 168.521 52.5843 168.101 49.9731 168.259C47.9976 168.378 47.0247 168.686 47.0158 168.969Z" fill="white"/>
<path d="M58.0453 171.767C58.0453 171.767 57.1859 171.713 56.2458 171.447C55.5416 171.248 55.1894 171.051 53.8913 172.602C53.1572 173.476 52.5514 173.998 50.3819 174.272C47.1113 174.687 46.9233 172.393 46.8785 173.425C46.789 175.516 46.2518 178.385 48.2005 178.477C52.3455 178.671 62.9811 177.69 63.2587 175.471C63.7421 171.656 60.5699 171.507 58.0453 171.767Z" fill="#3F87AF"/>
<path d="M60.0029 175.456C57.4753 176.241 55.3476 176.652 52.3396 176.965C49.8597 177.225 46.783 176.953 46.9143 177.565C46.9173 177.58 46.9442 177.681 46.9501 177.702C47.0486 178.191 47.0277 178.722 47.6275 178.752C51.7726 178.946 62.071 176.145 63.3422 175.948C63.3751 175.942 63.384 175.316 63.3034 174.982C63.1512 174.752 61.8561 174.883 60.0029 175.456Z" fill="#D0EBF7"/>
<path d="M60.1671 176.315C57.6395 177.1 55.5118 177.511 52.5037 177.824C50.0239 178.084 47.1053 177.893 47.2336 178.504C47.3082 178.847 47.8006 178.803 48.108 178.812C52.2411 178.937 60.5132 178.167 62.8618 176.455C62.9304 176.387 63.0021 176.327 63.0707 176.282C63.1871 176.175 63.2796 176.062 63.3423 175.945C63.2497 175.692 62.071 175.725 60.1671 176.315Z" fill="#737D91"/>
<path d="M13.211 168.053C11.1967 169.017 9.88063 166.511 9.88063 166.511C8.47508 164.098 8.67502 160.796 8.7168 160.039L9.48672 153.247C9.61802 152.168 10.9012 151.989 11.6592 152.057L15.2581 152.385C16.0161 152.454 16.6816 156.132 16.604 156.889L15.655 159.857C15.5804 160.615 15.1567 162.318 15.2163 163.048C15.4998 166.622 13.6616 167.835 13.211 168.053Z" fill="#3F87AF"/>
<path d="M15.5744 160.397C15.5356 159.407 12.4679 158.756 12.1576 155.962C11.8472 153.164 13.6825 152.642 14.4792 152.49C14.4792 152.49 16.4607 152.204 17.6604 152.036C17.6604 152.036 15.9952 152.239 16.8099 155.398C17.6246 158.559 18.4005 158.658 18.9376 158.562L15.8967 159.093L15.5744 160.397Z" fill="white"/>
<path d="M46.7263 85.2525C45.661 84.3219 44.4882 83.5613 42.3873 84.4472C41.0176 85.0258 38.5288 89.5027 38.9257 90.833C39.3255 92.1632 42.2053 96.7087 45.6281 96.7773C47.0516 96.8072 47.9647 96.3777 48.6422 95.0892C49.3972 93.6515 49.4419 89.6339 48.9078 88.0382C48.3766 86.4425 46.7263 85.2525 46.7263 85.2525Z" fill="#0C5291"/>
<path d="M10.0209 166.359C8.61533 163.946 8.81527 160.644 8.85705 159.887L9.62697 153.095C9.71052 152.406 10.2626 152.084 10.8505 151.959C10.0865 151.911 8.89584 152.117 8.77051 153.155L8.00059 159.946C7.95881 160.707 7.75887 164.006 9.16442 166.419C9.16442 166.419 10.4685 168.796 12.2799 168.262C10.9669 168.053 10.0209 166.359 10.0209 166.359Z" fill="#D0EBF7"/>
<path d="M76.2966 63.6582C74.9417 66.0891 73.5362 68.3052 72.1038 70.3274C64.0853 81.6375 55.1447 86.872 48.6153 89.2969C47.8573 89.5773 47.1143 89.8278 46.3921 90.0515C42.5067 91.2476 39.1793 91.6383 36.8576 91.7337C36.3981 91.7516 35.9773 91.7606 35.6013 91.7606C34.2465 91.7606 33.4437 91.6621 33.3512 91.6502C31.51 91.4146 30.2059 89.7294 30.4416 87.8861C30.6774 86.0488 32.3515 84.7484 34.1898 84.9751C34.2584 84.981 36.0937 85.1749 39.0092 84.8021C39.0122 84.8021 39.0122 84.8021 39.0152 84.8021C39.8567 84.6917 40.7878 84.5336 41.7935 84.3129C43.2647 83.9878 44.894 83.5196 46.6278 82.8544C54.6433 79.7823 61.5935 73.9215 67.347 65.3941C68.4123 63.8163 69.4359 62.146 70.4177 60.3833C70.4595 60.3087 70.5043 60.2342 70.555 60.1626C71.5129 58.7101 73.4467 58.2209 74.9955 59.0829C75.461 59.3424 75.843 59.6973 76.1265 60.1089C76.8307 61.129 76.9411 62.501 76.2966 63.6582Z" fill="#FFB287"/>
<path d="M46.3921 90.0515C42.5067 91.2475 39.1793 91.6383 36.8576 91.7337L36.4309 90.472C36.4309 90.472 36.7293 86.0488 37.5261 85.5507C37.8543 85.3449 38.4243 85.0616 39.0092 84.8021C39.0122 84.8021 39.0122 84.8021 39.0152 84.8021C40.0238 84.9154 42.3873 84.4471 42.3873 84.4471C41.9009 84.9035 41.4801 86.8183 42.1993 88.5333C42.4739 89.1836 43.6317 90.5645 46.3921 90.0515Z" fill="#F58D6C"/>
<path d="M139.218 162.565V170.049C139.218 171.543 140.442 172.766 141.937 172.766H142.295C143.79 172.766 145.013 171.543 145.013 170.049V162.565H139.218Z" fill="#4F6177"/>
<path d="M138.072 166.818H140.555C142.617 166.818 144.291 169.052 144.291 171.808C144.291 174.564 142.62 176.798 140.555 176.798H138.069V166.818H138.072Z" fill="#4E4D4F" stroke="#4E4D4F" stroke-width="14.1717" stroke-miterlimit="10"/>
<path d="M134.345 171.808C134.345 174.564 136.016 176.798 138.081 176.798C140.143 176.798 141.817 174.564 141.817 171.808C141.817 169.052 140.146 166.818 138.081 166.818C136.016 166.818 134.345 169.052 134.345 171.808Z" fill="#323133" stroke="#323133" stroke-width="14.1717" stroke-miterlimit="10"/>
<path d="M135.897 163.171V170.654C135.897 172.148 137.12 173.371 138.615 173.371H139.869C141.364 173.371 142.587 172.148 142.587 170.654V163.171H135.897Z" fill="#556677"/>
<path d="M188.779 162.565V170.049C188.779 171.543 190.003 172.766 191.498 172.766H191.856C193.351 172.766 194.575 171.543 194.575 170.049V162.565H188.779Z" fill="#4F6177"/>
<path d="M187.633 166.818H190.119C192.181 166.818 193.855 169.052 193.855 171.808C193.855 174.564 192.184 176.798 190.119 176.798H187.633V166.818Z" fill="#4E4D4F" stroke="#4E4D4F" stroke-width="14.1717" stroke-miterlimit="10"/>
<path d="M183.906 171.808C183.906 174.564 185.577 176.798 187.642 176.798C189.704 176.798 191.379 174.564 191.379 171.808C191.379 169.052 189.707 166.818 187.642 166.818C185.577 166.818 183.906 169.052 183.906 171.808Z" fill="#323133" stroke="#323133" stroke-width="14.1717" stroke-miterlimit="10"/>
<path d="M185.458 163.171V170.654C185.458 172.148 186.681 173.371 188.176 173.371H189.43C190.925 173.371 192.148 172.148 192.148 170.654V163.171H185.458Z" fill="#556677"/>
<path d="M153.22 78.4372C152.366 78.4372 151.522 78.0673 150.94 77.3545L143.13 67.7772C143.059 67.6907 142.993 67.6013 142.933 67.5058L136.213 57.0189C135.339 55.6529 135.735 53.8364 137.102 52.9625C138.469 52.0886 140.286 52.4853 141.161 53.8514L147.792 64.1981L155.494 73.6471C156.517 74.9027 156.329 76.752 155.073 77.778C154.53 78.2224 153.873 78.4372 153.22 78.4372Z" fill="#FFB287"/>
<path d="M200.686 128.59C200.635 128.59 200.585 128.587 200.534 128.578C200.048 128.495 199.719 128.032 199.803 127.546L208.493 77.0413C208.576 76.5551 209.039 76.227 209.528 76.3105C210.015 76.394 210.343 76.8564 210.259 77.3425L201.57 127.847C201.492 128.283 201.116 128.59 200.686 128.59Z" fill="#7B8FAD"/>
<path d="M200.447 164.865H137.845C135.58 164.865 133.512 163.928 132.172 162.297C130.832 160.665 130.316 158.455 130.758 156.236L134.375 138.045C134.957 135.125 134.76 130.236 133.948 127.37L116.768 66.6796C116.141 64.4636 113.861 62.5159 111.889 62.5159H106.476C105.225 62.5159 104.211 61.5018 104.211 60.2521C104.211 59.0024 105.225 57.9883 106.476 57.9883H111.889C115.885 57.9883 119.943 61.2632 121.128 65.4448L138.308 126.135C139.314 129.688 139.537 135.304 138.818 138.925L135.201 157.116C135.022 158.014 135.189 158.834 135.673 159.421C136.156 160.009 136.926 160.334 137.842 160.334H200.447C201.698 160.334 202.712 161.348 202.712 162.598C202.712 163.851 201.698 164.865 200.447 164.865Z" fill="#8FA3C1"/>
<path d="M200.418 162.362H139.57C137.642 162.362 135.956 161.608 134.825 160.236C133.694 158.864 133.274 157.068 133.641 155.174L137.117 137.252C137.714 134.174 137.481 129.029 136.61 126.019L118.938 65.0064C118.147 62.2743 115.362 59.9687 112.859 59.9687H107.445C106.861 59.9687 106.389 59.4945 106.389 58.9129C106.389 58.3283 106.864 57.857 107.445 57.857H112.859C116.282 57.857 119.919 60.8009 120.967 64.4188L138.639 125.431C139.606 128.763 139.854 134.248 139.191 137.654L135.715 155.577C135.47 156.839 135.733 158.014 136.455 158.891C137.177 159.764 138.284 160.248 139.567 160.248H200.415C201 160.248 201.471 160.722 201.471 161.304C201.474 161.888 201.003 162.362 200.418 162.362Z" fill="#BBD7EA"/>
<path d="M191.095 129.646C191.068 129.646 191.044 129.646 191.017 129.643C190.579 129.601 190.256 129.21 190.301 128.772L195.264 78.0047C195.306 77.5662 195.7 77.2441 196.135 77.2888C196.574 77.3306 196.896 77.7213 196.852 78.1598L191.889 128.927C191.85 129.339 191.501 129.646 191.095 129.646Z" fill="#7B8FAD"/>
<path d="M179.886 130.403C179.88 130.403 179.872 130.403 179.866 130.403C179.424 130.392 179.078 130.025 179.09 129.583L180.456 78.9502C180.468 78.5087 180.832 78.1687 181.277 78.1747C181.719 78.1866 182.065 78.5535 182.053 78.9949L180.686 129.628C180.671 130.06 180.316 130.403 179.886 130.403Z" fill="#7B8FAD"/>
<path d="M169.358 131.931C168.934 131.931 168.582 131.6 168.561 131.173L165.855 77.8854C165.831 77.4439 166.171 77.0711 166.613 77.0472C167.063 77.0234 167.427 77.3634 167.451 77.8048L170.158 131.092C170.182 131.534 169.842 131.907 169.4 131.931C169.385 131.931 169.37 131.931 169.358 131.931Z" fill="#7B8FAD"/>
<path d="M158.827 133.037C158.43 133.037 158.087 132.745 158.036 132.342L150.997 78.0196C150.94 77.5811 151.247 77.1815 151.686 77.1248C152.122 77.0681 152.524 77.3753 152.581 77.8138L159.621 132.136C159.678 132.575 159.37 132.975 158.932 133.031C158.896 133.034 158.863 133.037 158.827 133.037Z" fill="#8FA3C1"/>
<path d="M158.439 132.843C158.141 132.843 157.881 132.623 157.842 132.318L156.356 120.862C156.314 120.531 156.547 120.23 156.878 120.185C157.21 120.143 157.511 120.376 157.556 120.707L159.042 132.163C159.084 132.494 158.851 132.796 158.52 132.84C158.493 132.84 158.466 132.843 158.439 132.843Z" fill="#8FA3C1"/>
<path d="M148.4 134.543C147.839 134.543 147.335 134.15 147.219 133.58L135.679 77.6438C135.544 76.9906 135.965 76.3523 136.619 76.2181C137.272 76.0839 137.911 76.5044 138.045 77.1576L149.585 133.097C149.719 133.75 149.299 134.388 148.645 134.522C148.564 134.534 148.481 134.543 148.4 134.543Z" fill="#8FA3C1"/>
<path d="M138.544 135.942H101.764C100.931 135.942 100.254 135.265 100.254 134.433C100.254 133.598 100.931 132.924 101.764 132.924H138.463L200.898 126.267C201.734 126.177 202.471 126.78 202.56 127.609C202.65 128.438 202.047 129.181 201.217 129.27L138.705 135.933C138.651 135.939 138.597 135.942 138.544 135.942Z" fill="#7B8FAD"/>
<path d="M133.071 117.638C132.662 117.638 132.313 117.325 132.277 116.91C132.238 116.472 132.563 116.084 133.002 116.045L203.996 109.731C204.437 109.692 204.822 110.017 204.861 110.456C204.9 110.894 204.575 111.282 204.136 111.321L133.142 117.635C133.118 117.638 133.094 117.638 133.071 117.638Z" fill="#8FA3C1"/>
<path d="M127.974 101.057C127.556 101.057 127.204 100.732 127.177 100.306C127.15 99.8643 127.487 99.4885 127.926 99.4617L206.535 94.7342C206.971 94.7074 207.353 95.0414 207.38 95.4829C207.407 95.9243 207.069 96.3001 206.631 96.327L128.021 101.054C128.006 101.057 127.989 101.057 127.974 101.057Z" fill="#8FA3C1"/>
<path d="M202.083 127.907C202.023 127.907 201.963 127.901 201.901 127.892C201.334 127.794 200.952 127.251 201.053 126.684L209.743 77.0115C209.842 76.4448 210.385 76.063 210.952 76.1614C211.519 76.2598 211.901 76.8027 211.799 77.3694L203.109 127.042C203.02 127.552 202.581 127.907 202.083 127.907Z" fill="#BBD7EA"/>
<path d="M106.547 56.1152C108.206 56.1152 109.552 57.9107 109.552 60.1268C109.552 62.3429 108.206 64.1384 106.547 64.1384H70.176L69.7672 56.1122H106.547V56.1152Z" fill="#E52323"/>
<path d="M157.084 122.786C161.086 122.586 162.375 128.471 158.585 128.605C156.049 128.694 157.189 128.656 155.938 128.7C152.313 128.829 150.227 126.723 150.11 123.394C150.042 121.5 149.976 119.627 149.878 116.856C149.684 111.401 156.425 113.405 160.343 114.506L158.606 119.439L157.084 122.786Z" fill="#3A2F32"/>
<path d="M157.165 122.783C161.167 122.583 162.429 127.719 158.639 127.853C156.103 127.943 157.992 127.877 156.741 127.922C153.115 128.05 151.029 125.944 150.913 122.616C150.844 120.722 150.806 119.597 150.707 116.824C150.513 111.368 157.254 113.373 161.173 114.473L159.436 119.407L157.165 122.783Z" fill="#A3412E"/>
<path d="M157.902 123.854C156.747 123.657 155.882 123.946 155.368 123.004C154.858 122.061 153.02 114.924 156.887 113.62C160.755 112.317 159.445 121.065 159.445 121.065L157.902 123.854Z" fill="#AA6F48"/>
<path d="M153.653 122.684C154.649 122.523 156.237 122.455 157.386 122.455L157.165 122.783C158.881 122.696 160.089 123.591 160.615 124.653C160.012 124.08 158.842 124.229 156.246 124.268C153.647 124.31 152.16 122.926 153.653 122.684Z" fill="#872E22"/>
<path d="M191.581 127.424C193.011 127.373 194.354 126.842 195.476 125.944C199.364 122.84 198.284 117.026 194.3 113.259L183.109 100.428L181.516 98.3611C179.499 96.494 172.674 95.3695 170.806 97.3858C168.938 99.4021 166.673 103.473 168.69 105.337L179.131 114.727L167.935 116.176C165.249 115.586 162.677 117.551 162.447 120.289C162.19 123.326 163.33 121.408 166.016 121.995L189.869 127.266C190.442 127.394 191.017 127.445 191.581 127.424Z" fill="#1D587F"/>
<path d="M184.751 126.526C186.311 125.273 187.565 123.385 187.001 119.949C186.631 117.695 185.201 115.693 182.575 113.14L166.792 97.2337C164.807 95.3338 160.985 95.5574 159.084 97.5409C157.183 99.5243 153.447 104.586 159.749 108.809L168.681 115.487L158.818 113.385C156.129 112.815 154.936 114.897 154.909 117.644C154.879 120.731 155.44 123.338 158.129 123.904L176.222 127.439C180.021 128.113 183.02 127.916 184.751 126.526Z" fill="#1D8FB2"/>
<path d="M160.698 97.8958L163.056 99.0173L165.297 100.512C161.916 101.207 159.015 108.064 162.214 110.453C153.485 105.606 156.106 101.457 157.851 99.0143C157.938 98.9576 157.989 98.9248 157.989 98.9248L160.698 97.8958Z" fill="#1D587F"/>
<path d="M185.482 22.5487C189.752 22.9454 196.052 30.5958 188.985 46.186L187.075 45.4016L180.558 33.9542L185.482 22.5487Z" fill="#B55433"/>
<path d="M176.291 64.4069C182.963 65.7371 186.264 54.0542 186.884 44.8259C186.941 44.0027 188.579 36.6058 188.579 36.6058L188.651 35.5589C189.009 30.2558 190.913 18.3939 175.95 17.684C160.134 16.9354 155.055 28.4125 154.452 37.3336L154.381 38.3805C154.381 38.3805 154.02 44.0027 153.963 44.8289C153.56 50.824 151.946 56.5715 146.789 59.1187L151.295 61.5823C151.295 61.5823 155.133 59.9836 155.894 58.8115C156.658 57.6393 153.25 62.5726 153.25 62.5726C153.25 62.5726 160.695 65.8773 167.753 66.0861C177.795 66.3844 176.291 64.4069 176.291 64.4069Z" fill="#B55433"/>
<path d="M184.986 49.4281C184.366 49.0732 182.146 47.7429 179.839 48.2738C177.532 48.8048 159.785 42.3324 159.785 42.3324C156.168 53.9677 150.254 59.1873 147.347 59.4229L151.298 61.5823C151.298 61.5823 154.619 60.1984 155.697 59.062C154.975 60.0821 153.256 62.5726 153.256 62.5726C153.256 62.5726 160.701 65.8773 167.759 66.0861C177.795 66.3844 176.881 65.5671 176.881 65.5671C182.283 66.6439 184.882 58.0419 186.234 50.2722C185.685 49.8397 185.201 49.5504 184.986 49.4281Z" fill="#A3412E"/>
<path d="M185.491 91.7665C185.21 91.7665 184.927 91.7278 184.652 91.6442C183.658 91.349 182.895 90.5496 182.644 89.5445L177.968 70.903C177.574 69.3312 178.529 67.7355 180.101 67.3418C181.674 66.9481 183.271 67.9025 183.664 69.4744L187.135 83.3167L196.126 75.028C197.32 73.9274 199.176 74.005 200.277 75.195C201.379 76.3881 201.301 78.2433 200.11 79.3439L187.481 90.9881C186.932 91.4981 186.219 91.7665 185.491 91.7665Z" fill="#FFB287"/>
<path d="M187.553 82.9379L187.138 83.3197C187.299 83.1974 187.436 83.0662 187.553 82.9379Z" fill="#F58D6C"/>
<path d="M186.237 89.2044C184.148 89.279 181.462 83.612 185.094 75.21L184.309 72.0364L184.151 72.0514L180.456 72.9461L179.731 77.9271L181.191 83.7432L182.644 89.5415C182.671 89.6489 182.707 89.7503 182.742 89.8517C183.062 90.7077 183.763 91.3758 184.652 91.6413C184.93 91.7248 185.21 91.7635 185.491 91.7635C186.219 91.7635 186.932 91.4921 187.484 90.9851L194.634 84.3935L194.694 84.2563C194.694 84.2592 189.761 89.0792 186.237 89.2044Z" fill="#F58D6C"/>
<path d="M170.967 58.2955C177.532 60.2312 186.968 55.1488 187.812 46.0249C187.887 45.2107 189.692 38.0017 189.692 38.0017L189.788 36.9667C190.274 31.7232 192.456 20.097 177.678 18.021C162.059 15.8258 156.747 26.781 155.929 35.6007L155.834 36.6356C155.834 36.6356 155.389 42.8634 165.506 45.5268C171.265 47.042 175.01 45.1481 171.229 48.9867C171.229 48.9867 163.676 46.4694 173.626 47.391C183.575 48.3096 170.967 58.2955 170.967 58.2955Z" fill="#B55433"/>
<path d="M173.838 62.7873C169.749 62.3101 164.882 61.9551 164.882 61.9551C164.882 61.9551 162.39 63.0856 161.749 69.9874L157.514 92.0379L156.544 103.446C156.544 103.446 158.857 101.508 168.033 99.918C170.439 99.5005 170.919 101.469 173.354 101.409C175.392 101.359 176.735 100.664 178.875 100.416C181.143 100.154 183.151 100.491 183.151 100.491C183.151 100.491 182.659 79.323 183.25 72.9521C183.846 66.5007 181.408 65.072 181.408 65.072C181.408 65.072 179.206 63.4136 173.838 62.7873Z" fill="#97BC26"/>
<path d="M162.912 71.3832C162.814 71.5324 165.052 69.6682 165.052 69.6682L164.655 78.4908L159.531 77.5961L161.271 71.4817L162.912 71.3832Z" fill="#748415"/>
<path d="M170.358 63.1184C172.372 64.562 172.745 66.0235 175.154 66.1905C176.672 66.2949 176.884 64.5381 177.01 63.1661L177.639 56.3836C177.917 53.3891 176.392 50.7793 174.249 50.5794L173.515 50.5108C171.373 50.314 169.394 52.5987 169.117 55.5932L168.499 62.2504C169.096 62.3936 169.481 62.492 170.358 63.1184Z" fill="#FFB287"/>
<path d="M169.117 55.5962L168.57 61.4899C170.391 60.1596 175.98 59.6287 177.296 60.088L177.639 56.3866C177.681 55.9362 177.678 55.4977 177.642 55.0712C175.592 54.0691 172.715 52.6702 170.728 51.7456C169.875 52.6672 169.263 54.0333 169.117 55.5962Z" fill="#F58D6C"/>
<path d="M185.205 113.869C185.205 113.859 185.205 113.856 185.198 113.853C185.201 113.869 185.201 113.875 185.205 113.869Z" fill="#FF4A42"/>
<path d="M191.217 45.0168C191.044 46.875 189.4 48.238 187.541 48.068C185.682 47.895 186.27 46.4336 186.443 44.5754C186.616 42.7172 186.308 41.1722 188.165 41.3452C190.024 41.5152 191.388 43.1586 191.217 45.0168Z" fill="#FFB287"/>
<path d="M190.033 46.2546C189.337 53.7708 183.906 59.8226 176.646 59.1515C168.57 58.4028 160.618 51.1103 161.313 43.5971L161.877 35.6036C162.572 28.0874 169.078 24.8483 176.598 25.5432L178.15 25.6864C185.67 26.3813 191.468 30.7628 190.77 38.279L190.033 46.2546Z" fill="#FFB287"/>
<path d="M182.581 46.186C182.605 45.9056 182.378 45.84 181.671 46.0279C181.346 46.1144 180.779 46.1979 180.137 46.1413C179.496 46.0786 178.952 45.8937 178.648 45.7505C177.986 45.4374 177.75 45.4582 177.723 45.7386C177.687 46.1234 178.764 47.385 180 47.5043C180.003 47.5043 180.006 47.5043 180.009 47.5043C180.012 47.5043 180.015 47.5043 180.018 47.5043C181.253 47.6147 182.545 46.5708 182.581 46.186Z" fill="#F58D6C"/>
<path d="M188.341 39.156C188.227 39.156 188.117 39.1052 188.042 39.0098C187.231 37.9838 186.625 37.7303 185.342 37.8764C185.136 37.9003 184.945 37.7511 184.921 37.5394C184.897 37.3306 185.046 37.1397 185.258 37.1158C186.81 36.9399 187.666 37.2978 188.645 38.5326C188.776 38.6966 188.746 38.9382 188.582 39.0695C188.508 39.1291 188.424 39.156 188.341 39.156Z" fill="#8E3925"/>
<path d="M171.498 37.438C171.39 37.438 171.286 37.3932 171.208 37.3067C171.071 37.1486 171.086 36.907 171.247 36.7698C172.548 35.6364 173.987 35.8721 175.222 36.2509C175.422 36.3135 175.536 36.5253 175.476 36.7281C175.413 36.9279 175.201 37.0442 174.998 36.9816C173.512 36.5253 172.572 36.6297 171.749 37.3455C171.677 37.4051 171.587 37.438 171.498 37.438Z" fill="#8E3925"/>
<path d="M183.241 23.7924C181.08 23.7924 176.69 23.7954 172.611 23.7954C170.916 23.7954 169.433 23.8282 168.547 24.8155C165.688 28.0069 166.899 34.3062 166.899 34.3062C166.899 34.3062 169.385 33.1609 176.407 33.1579C183.745 33.1549 188.6 32.2362 189.245 26.8317C189.466 24.9586 183.241 23.7924 183.241 23.7924Z" fill="#B55433"/>
<path d="M179.126 63.9774C181.414 64.9229 183.294 64.8066 184.297 70.5392C184.646 72.5286 184.894 73.8201 184.894 73.8201L178.627 75.1622L176.141 69.6444L179.126 63.9774Z" fill="#97BC26"/>
<path d="M164.9 77.3485C164.9 77.3485 161.02 78.0942 160.424 78.0942C160.325 78.0942 160.14 78.13 159.895 78.1956L157.216 92.1125L156.395 104.341C156.395 104.341 158.732 101.857 165.198 100.413C165.148 99.6168 165.18 96.8668 165.348 93.9021C165.371 93.4756 170.361 87.1464 170.385 86.7438C170.761 79.7764 164.9 77.3485 164.9 77.3485Z" fill="#748415"/>
<path d="M173.065 48.9539C173.065 48.9539 174.058 53.9557 178.448 54.3614C182.96 54.7789 183.694 50.0276 183.694 50.0276L173.065 48.9539Z" fill="#8E2B30"/>
<path d="M181.053 53.9796C179.982 52.2378 176.861 51.9991 174.41 51.9425C175.231 53.0878 176.508 54.1675 178.448 54.3644C179.528 54.4747 180.388 54.3166 181.071 54.0124C181.065 53.9975 181.059 53.9886 181.053 53.9796Z" fill="#D85365"/>
<path d="M173.08 49.0195C173.121 49.1984 173.259 49.7204 173.551 50.3468C173.551 50.3468 173.3 49.8725 173.465 49.9441C173.465 49.9441 181.593 51.8202 182.868 50.654L183.241 49.9829L173.062 48.9539L173.08 49.0195Z" fill="white"/>
<path d="M172.533 29.7607C172.438 30.7777 173.843 33.2503 170.743 33.3607C163.838 33.6053 163.76 42.1207 163.775 41.2885C163.808 39.5646 160.862 39.5944 159.922 39.5079C158.982 39.4214 160.307 32.0096 160.856 31.425C161.405 30.8404 163.942 28.2664 164.679 27.8876C165.416 27.5088 170.791 26.271 170.791 26.271C170.791 26.271 172.602 25.8773 173.139 26.8198C173.676 27.7653 172.533 29.7607 172.533 29.7607Z" fill="#B55433"/>
<path d="M157.947 94.4509C156.947 94.4509 156.004 94.0154 155.342 93.2429C153.629 91.2475 153.802 87.567 156.228 74.4792L156.416 73.4592C157.365 68.3082 160.319 64.9467 164.957 63.7418C166.526 63.3331 168.132 64.2727 168.541 65.8445C168.949 67.4134 168.006 69.018 166.437 69.4266C164.819 69.8472 162.877 70.8076 162.193 74.5269L162.002 75.553C161.531 78.0971 160.48 83.7582 160.161 87.2985C163.605 85.0019 169.131 80.3162 171.57 78.2522C173.333 76.7579 174.724 75.5768 175.592 74.9266C176.89 73.9543 178.732 74.2167 179.704 75.5142C180.677 76.8116 180.415 78.6519 179.117 79.6242C178.388 80.1701 176.989 81.3572 175.368 82.7292C163.724 92.5987 160.507 94.3704 158.054 94.4479C158.018 94.4509 157.983 94.4509 157.947 94.4509Z" fill="#FFB287"/>
<path d="M162.166 74.7626C162.202 74.5627 162.184 74.685 162.217 74.515L162.196 74.524C162.241 74.2764 162.295 74.0438 162.348 73.8201L158.785 72.973L156.631 72.4719C156.55 72.794 156.479 73.1221 156.419 73.4592L156.231 74.4792C156.106 75.1503 155.989 75.7916 155.876 76.4149C156.222 74.6134 161.074 74.7029 162.166 74.7626Z" fill="#F58D6C"/>
<path d="M169.287 69.5191C172.393 69.8054 170.856 64.2309 170.856 64.2309C170.624 63.1929 166.323 62.2027 165.852 62.0953C165.282 61.9641 164.637 61.97 164.375 61.9462C159.776 61.5406 157.848 64.2249 156.47 73.2861L164.055 74.6164L165.198 69.9426L169.287 69.5191Z" fill="#97BC26"/>
<path d="M159.149 41.9894C159.322 40.1312 160.967 38.7682 162.826 38.9382C164.685 39.1112 164.097 40.5727 163.924 42.4309C163.751 44.289 164.058 45.834 162.202 45.661C160.343 45.491 158.979 43.8446 159.149 41.9894Z" fill="#FFB287"/>
<path opacity="0.6" d="M186.207 40.1462C184.933 40.0269 183.799 40.9694 183.679 42.243C183.56 43.5166 184.503 44.65 185.777 44.7693L188.212 41.7836C187.947 40.9097 187.174 40.2357 186.207 40.1462Z" fill="#9B4534"/>
<path d="M183.575 42.5681C183.473 43.6716 184.285 44.6499 185.389 44.7543C186.493 44.8557 187.472 44.0445 187.577 42.9409C187.678 41.8373 186.866 40.859 185.762 40.7546C184.655 40.6502 183.676 41.4645 183.575 42.5681Z" fill="white" stroke="white" stroke-width="0.7631" stroke-miterlimit="10"/>
<path d="M185.133 43.7164C185.103 43.7164 185.073 43.7164 185.043 43.7134C184.512 43.6627 184.118 43.1914 184.166 42.6575C184.214 42.1565 184.628 41.7777 185.13 41.7777C185.16 41.7777 185.189 41.7777 185.219 41.7806C185.476 41.8045 185.712 41.9268 185.876 42.1266C186.04 42.3265 186.12 42.577 186.097 42.8365C186.052 43.3376 185.637 43.7164 185.133 43.7164Z" fill="#422B27"/>
<path d="M185.133 41.8642C185.16 41.8642 185.186 41.8642 185.216 41.8671C185.703 41.9119 186.058 42.3414 186.013 42.8275C185.971 43.2839 185.586 43.6269 185.136 43.6269C185.109 43.6269 185.082 43.6269 185.052 43.6239C184.566 43.5792 184.211 43.1497 184.255 42.6635C184.297 42.2072 184.682 41.8642 185.133 41.8642ZM185.133 41.6882C184.584 41.6882 184.13 42.0998 184.079 42.6486C184.052 42.929 184.139 43.2034 184.318 43.4211C184.497 43.6388 184.754 43.773 185.034 43.7999C185.067 43.8029 185.1 43.8059 185.133 43.8059C185.682 43.8059 186.135 43.3942 186.186 42.8454C186.213 42.5651 186.126 42.2907 185.947 42.0729C185.768 41.8552 185.512 41.721 185.231 41.6971C185.198 41.6912 185.165 41.6882 185.133 41.6882Z" fill="#422B27"/>
<path d="M186.416 42.6754C186.395 42.8902 186.207 43.0483 185.992 43.0274C185.777 43.0065 185.619 42.8186 185.64 42.6039C185.661 42.3891 185.849 42.231 186.064 42.2519C186.279 42.2728 186.437 42.4607 186.416 42.6754Z" fill="white"/>
<path opacity="0.6" d="M173.593 38.98C174.867 39.0993 175.81 40.2297 175.691 41.5062C175.571 42.7798 174.44 43.7223 173.163 43.603L171.319 40.2207C171.743 39.4095 172.629 38.8905 173.593 38.98Z" fill="#9B4534"/>
<path d="M175.68 42.1281C175.943 41.0512 175.283 39.9648 174.206 39.7015C173.128 39.4382 172.041 40.0977 171.778 41.1746C171.515 42.2515 172.174 43.338 173.252 43.6013C174.329 43.8646 175.416 43.205 175.68 42.1281Z" fill="white" stroke="white" stroke-width="0.7631" stroke-miterlimit="10"/>
<path d="M173.288 42.6188C173.259 42.6188 173.229 42.6188 173.199 42.6158C172.668 42.5651 172.274 42.0938 172.322 41.5599C172.369 41.0589 172.784 40.6801 173.285 40.6801C173.315 40.6801 173.345 40.6801 173.375 40.683C173.906 40.7338 174.3 41.205 174.252 41.7389C174.208 42.24 173.793 42.6188 173.288 42.6188Z" fill="#422B27"/>
<path d="M173.285 40.7666C173.312 40.7666 173.339 40.7666 173.369 40.7695C173.855 40.8143 174.211 41.2438 174.166 41.7299C174.124 42.1863 173.739 42.5293 173.288 42.5293C173.262 42.5293 173.235 42.5293 173.205 42.5263C172.718 42.4816 172.363 42.0521 172.408 41.5659C172.45 41.1096 172.835 40.7666 173.285 40.7666ZM173.285 40.5936C172.736 40.5936 172.283 41.0052 172.232 41.554C172.178 42.1356 172.608 42.6516 173.187 42.7053C173.22 42.7082 173.253 42.7112 173.285 42.7112C173.835 42.7112 174.288 42.2996 174.339 41.7508C174.393 41.1692 173.963 40.6532 173.384 40.5995C173.351 40.5936 173.318 40.5936 173.285 40.5936Z" fill="#422B27"/>
<path d="M174.536 41.9536C174.557 41.7389 174.399 41.551 174.184 41.5301C173.969 41.5092 173.781 41.6673 173.76 41.8821C173.739 42.0968 173.897 42.2847 174.112 42.3056C174.327 42.3265 174.515 42.1684 174.536 41.9536Z" fill="white"/>
<path d="M143.187 93.9349C143.187 95.3636 142.322 96.5178 141.253 96.5178H99.1017C98.0333 96.5178 97.1679 95.3606 97.1679 93.9349C97.1679 92.5092 98.0333 91.3519 99.1017 91.3519H141.256C142.322 91.3489 143.187 92.5062 143.187 93.9349Z" fill="#CC092E"/>
<path d="M109.388 58.8323H69.9044L69.8179 57.1501H108.556C108.932 57.6035 109.221 58.1791 109.388 58.8323Z" fill="#FF7950"/>
<path d="M126.64 127.847C124.995 127.847 123.676 126.374 123.584 124.707L122.492 106.283C122.411 104.836 122.083 102.426 121.778 101.016L117.392 80.7696C117.019 79.0456 118.126 77.2978 119.866 76.8623C121.605 76.4269 123.318 77.4738 123.691 79.1947L128.496 99.7689C128.872 101.499 129.14 104.538 129.239 106.313L129.851 124.298C129.949 126.067 128.714 127.671 126.938 127.832C126.84 127.844 126.738 127.847 126.64 127.847Z" fill="#FFB287"/>
<path d="M120.471 92.6017C120.471 92.6017 127.496 94.8864 127.532 95.635C127.568 96.3836 130.17 98.4059 130.17 98.4059L128.705 100.801C128.705 100.801 123.181 101.001 122.116 103.062C122.038 102.588 121.859 101.386 121.778 101.016L119.961 92.6285L120.471 92.6017Z" fill="#E57B5E"/>
<path d="M123.053 130.955C123.271 131.03 133.993 132.22 135.953 131.656C136.461 131.51 136.386 131.072 136.479 130.505C136.616 129.661 136.3 128.602 134.112 127.803C130.868 126.616 129.881 126.466 129.881 126.466C129.881 126.466 123.849 125.39 123.488 127.003C123.097 128.757 123.053 130.955 123.053 130.955Z" fill="#D3EEFF"/>
<path d="M123.092 129.911C123.309 129.986 134.27 131.113 136.237 130.582C136.664 130.466 137.469 128.214 134.282 127.212C130.982 126.177 130.042 125.443 130.042 125.443C130.042 125.443 124.011 124.367 123.65 125.98C123.256 127.731 123.092 129.911 123.092 129.911Z" fill="#FF4E62"/>
<path d="M123.679 126.386C123.679 126.386 124.321 127.421 125.825 127.382C127.329 127.346 127.896 126.368 128.478 125.977C129.379 125.369 130.042 125.44 130.042 125.44L129.812 121.468C129.812 121.468 129.087 122.38 126.622 122.658C124.157 122.935 123.366 122.282 123.366 122.282L123.679 126.386Z" fill="white"/>
<path d="M143.996 128.053C142.351 128.053 140.794 124.546 140.641 122.878L139.078 106.489C138.943 105.042 138.532 102.632 138.177 101.221L133.068 80.9754C132.632 79.2514 133.676 77.5036 135.401 77.0681C137.126 76.6327 138.875 77.6766 139.311 79.4005L144.849 99.9747C145.285 101.705 145.664 104.744 145.825 106.519L146.95 121.494C147.114 123.263 146.064 127.877 144.294 128.041C144.193 128.047 144.094 128.053 143.996 128.053Z" fill="#FFB287"/>
<path d="M136.565 92.6016C136.565 92.6016 143.67 94.8863 143.733 95.635C143.796 96.3836 144.264 97.6065 144.264 97.6065C144.264 97.6065 141.713 100.327 138.46 102.301C138.365 101.827 138.266 101.385 138.174 101.013L136.058 92.6255L136.565 92.6016Z" fill="#E57B5E"/>
<path d="M137.556 45.7923C139.752 47.5222 142.414 52.9089 144.676 56.4343C144.676 56.4343 141.017 61.5853 138.92 60.9142C138.92 60.9142 136.529 60.4668 132.748 56.8608C129.827 54.0751 131.996 50.5526 131.996 50.5526L137.556 45.7923Z" fill="#FFCA45"/>
<path d="M140.45 50.8985C140.436 50.6033 140.412 50.3527 140.379 50.1708C140.379 50.1708 140.394 50.4571 140.45 50.8985Z" fill="#B7BEC4"/>
<path d="M138.368 60.8963C139.6 61.6032 141.749 60.0254 142.814 58.6951C142.348 58.2954 140.352 56.3001 140.352 53.7052C140.352 50.0902 136.789 52.5449 137.517 51.3042C136.598 52.6165 134.575 54.934 132.742 56.8548C132.745 56.8578 132.745 56.8578 132.748 56.8608C136.529 60.4668 138.368 60.8963 138.368 60.8963Z" fill="#F2923B"/>
<path d="M139.621 2.9707C143.939 2.9707 150.97 10.0574 145.33 26.3485L143.342 25.7371L135.741 14.8624L139.621 2.9707Z" fill="#542923"/>
<path d="M144.434 27.1777C144.434 26.3545 145.574 18.9576 145.574 18.9576V17.9107C145.574 12.6076 146.681 0.745645 131.671 0.0357792C115.804 -0.71286 110.48 10.9283 111.495 19.6853C113.199 34.3509 122.25 35.5499 130.37 35.6842C140.43 35.8452 144.434 36.4059 144.434 27.1777Z" fill="#542923"/>
<path d="M138.46 74.9594C138.46 74.9594 139.821 60.9679 140.459 54.5523C141.107 48.0591 140.352 50.138 140.352 50.138C140.352 50.138 137.938 45.3389 132.629 44.1429C128.281 43.1646 127.833 42.9469 122.695 42.5144C122.695 42.5144 120.23 44.6112 119.537 51.5607L117.413 72.8626L138.46 74.9594Z" fill="#FFCA45"/>
<path d="M135.595 55.9094C136.237 52.2855 137.108 47.4834 135.676 45.5418C135.169 44.8498 134.196 44.4531 133.068 44.3099L133.28 44.1041C135.058 44.3308 137.126 45.0347 138.03 46.2546C139.898 48.7749 138.896 51.7695 138.585 56.139L138.009 55.9362L135.595 55.9094Z" fill="#FF3870"/>
<path d="M127.992 43.8715C130.06 45.333 130.304 46.526 132.689 46.7557C133.632 46.8451 134.336 45.2226 134.467 43.8416L135.118 37.0144C135.404 33.999 133.876 31.3653 131.719 31.1595L130.982 31.0879C128.824 30.8821 126.825 33.1787 126.538 36.1942L125.906 42.8246C126.505 42.9677 127.105 43.2451 127.992 43.8715Z" fill="#F58D6C"/>
<path d="M126.043 42.067C126.043 42.067 126.019 42.064 125.98 42.058L125.906 42.8246C126.502 42.9648 127.102 43.2451 127.992 43.8715C130.06 45.333 130.304 46.526 132.689 46.7557C133.632 46.8452 134.336 45.2226 134.467 43.8417L134.658 41.8284C134.228 41.0917 128.815 40.7367 126.043 42.067Z" fill="#FFB287"/>
<path d="M147.46 24.9706C147.46 26.8496 145.938 28.3708 144.058 28.3708C142.178 28.3708 142.632 26.8496 142.632 24.9706C142.632 23.0915 142.178 21.5704 144.058 21.5704C145.938 21.5704 147.46 23.0915 147.46 24.9706Z" fill="#FFB287"/>
<path d="M146.389 26.3187C146.389 33.9184 141.507 40.4951 134.163 40.4951C125.995 40.4951 117.341 33.9214 117.341 26.3187L117.165 18.2507C117.165 10.651 123.387 6.79443 130.994 6.79741H132.563C140.167 6.79741 146.392 10.651 146.392 18.2507V26.3187H146.389Z" fill="#FFB287"/>
<path d="M138.908 26.9451C138.908 26.6587 138.672 26.617 137.98 26.8705C137.663 26.9868 137.099 27.124 136.452 27.124C135.804 27.121 135.24 26.9868 134.924 26.8705C134.231 26.617 133.996 26.6617 133.996 26.9451C133.996 27.3328 135.192 28.499 136.443 28.505C136.446 28.505 136.449 28.505 136.452 28.505C136.452 28.505 136.458 28.505 136.461 28.505C137.711 28.499 138.911 27.3358 138.908 26.9451Z" fill="#F58D6C"/>
<path d="M143.996 19.3602C143.894 19.3602 143.793 19.3215 143.718 19.2409C142.88 18.364 141.972 18.1254 140.585 18.4147C140.376 18.4595 140.173 18.3253 140.131 18.1165C140.086 17.9077 140.221 17.7049 140.43 17.6631C142.071 17.3201 143.259 17.6422 144.276 18.71C144.422 18.8621 144.416 19.1067 144.264 19.2529C144.187 19.3244 144.091 19.3602 143.996 19.3602Z" fill="#8E3925"/>
<path d="M127.037 19.3602C126.941 19.3602 126.846 19.3244 126.771 19.2529C126.619 19.1067 126.613 18.8621 126.759 18.71C127.777 17.6422 128.964 17.3201 130.606 17.6631C130.815 17.7079 130.946 17.9107 130.904 18.1165C130.859 18.3253 130.659 18.4565 130.45 18.4147C129.06 18.1254 128.153 18.364 127.317 19.2409C127.24 19.3215 127.138 19.3602 127.037 19.3602Z" fill="#8E3925"/>
<path d="M120.319 57.1471L119.039 56.5118L118.036 66.5663L118.684 66.7244L121.188 67.0942C121.188 67.0942 121.919 67.1449 122.426 67.2225C122.933 67.3 123.858 54.8535 124.005 52.87C124.043 52.3481 124.172 51.683 124.136 51.3579C124.088 50.8955 123.602 50.7047 123.193 51.6263C122.608 52.9416 120.319 57.1471 120.319 57.1471Z" fill="#F2923B"/>
<path d="M137.487 4.42621C135.321 4.62903 130.919 5.03765 126.828 5.41644C125.127 5.57452 123.644 5.74453 122.847 6.81828C120.274 10.2841 122.08 16.488 122.08 16.488C122.08 16.488 124.467 15.11 131.507 14.4538C138.866 13.7678 143.65 12.3988 143.793 6.9167C143.841 5.01677 137.487 4.42621 137.487 4.42621Z" fill="#542923"/>
<path d="M136.413 77.7482C136.291 78.977 135.18 79.8927 133.948 79.7823L125.386 79.0128C124.154 78.9024 123.247 77.8048 123.369 76.576L125.643 53.7738C125.765 52.5449 126.872 51.6382 128.102 51.7605L136.681 52.6165C137.911 52.7388 138.818 53.8454 138.693 55.0742L136.413 77.7482Z" fill="#FF3870"/>
<path d="M144.619 96.8847C144.622 98.1374 139.445 101.397 128.46 100.336C123.462 99.8524 120.451 99.232 117.457 98.206C115.348 97.4812 113.518 96.67 111.972 95.8199C106.944 93.0699 104.9 89.9769 105.813 88.5333C106.32 87.731 109.287 84.8737 111.582 81.375C114.691 76.6356 117.284 71.0015 117.538 70.3363L117.627 70.3632L118.186 65.0601C118.186 65.0601 120.579 65.3255 122.781 65.5045C123.945 65.6029 125.058 65.6775 125.733 65.6775C127.678 65.6775 127.657 64.0221 127.657 62.7784V57.1621L129.343 68.3976L137.496 67.0942L139.203 67.3388L138.794 71.5175C138.794 71.5175 144.491 96.5417 144.619 96.8847Z" fill="#FF3870"/>
<path d="M129.621 30.6018C129.621 30.6018 131.083 35.5261 135.521 35.5261C140.086 35.5261 140.376 30.6912 140.376 30.6912L129.621 30.6018Z" fill="#8E2B30"/>
<path d="M137.983 34.8759C136.768 33.2593 133.67 33.307 131.25 33.474C132.163 34.5269 133.518 35.4754 135.449 35.4903C136.523 35.4992 137.356 35.2666 138 34.9027C137.995 34.8938 137.989 34.8848 137.983 34.8759Z" fill="#D85365"/>
<path d="M129.642 30.6674C129.701 30.8404 129.886 31.3534 130.239 31.9529C130.239 31.9529 129.943 31.4995 130.116 31.5562C130.116 31.5562 138.442 32.6836 139.612 31.3951L139.922 30.6883L129.621 30.6018L129.642 30.6674Z" fill="white"/>
<path d="M127.308 11.4056C127.308 12.4346 128.943 14.7849 125.846 15.1816C118.943 16.0704 119.657 24.6126 119.594 23.7805C119.466 22.0476 116.514 22.3518 115.565 22.3518C114.616 22.3518 115.255 14.7968 115.75 14.1585C116.246 13.5232 118.553 10.7046 119.257 10.2572C119.961 9.80986 125.234 8.068 125.234 8.068C125.234 8.068 127.013 7.50428 127.642 8.40205C128.269 9.29684 127.308 11.4056 127.308 11.4056Z" fill="#542923"/>
<path d="M108.675 77.5961C108.454 77.5961 108.23 77.5722 108.003 77.5185C106.425 77.1487 105.443 75.5708 105.81 73.993L107.866 65.1883C108.251 63.5419 108.943 61.3944 109.913 59.0083L112.909 52.2348C113.647 50.7912 116.01 50.5138 117.457 51.2505C118.902 51.9872 118.881 53.4547 118.144 54.9012L115.157 62.2296C114.599 63.3242 113.864 65.3315 113.587 66.5275L111.531 75.3322C111.217 76.6804 110.009 77.5961 108.675 77.5961Z" fill="#FFB287"/>
<path d="M110.776 57.1054L116.819 58.1105L117.72 55.9452L112.501 53.1624L110.776 57.1054Z" fill="#F58D6C"/>
<path d="M125.24 43.4569C128.236 44.3934 128.535 46.2695 128.535 46.2695C128.523 45.1987 124.497 43.3167 124.058 43.1109C123.524 42.8604 123.996 42.6396 123.733 42.6039C118.353 41.8492 114.9 45.9056 111.247 54.5731L119.57 58.7071L122.339 53.1534L125.24 43.4569Z" fill="#FFCA45"/>
<path d="M115.022 24.9109C115.022 23.0319 116.544 21.5107 118.424 21.5107C120.304 21.5107 119.851 23.0319 119.851 24.9109C119.851 26.79 120.304 28.3111 118.424 28.3111C116.544 28.3111 115.022 26.79 115.022 24.9109Z" fill="#FFB287"/>
<path opacity="0.6" d="M141.984 20.5533C140.695 20.5533 139.645 21.6032 139.645 22.8917C139.645 24.1802 140.695 25.23 141.984 25.23L144.151 22.0088C143.802 21.1528 142.96 20.5533 141.984 20.5533Z" fill="#9B4534"/>
<path d="M139.57 23.2257C139.57 24.3442 140.477 25.2479 141.593 25.2479C142.713 25.2479 143.617 24.3412 143.617 23.2257C143.617 22.1072 142.71 21.2035 141.593 21.2035C140.474 21.2005 139.57 22.1072 139.57 23.2257Z" fill="white" stroke="white" stroke-width="0.7685" stroke-miterlimit="10"/>
<path d="M142.071 24.3561C141.534 24.3561 141.095 23.9177 141.095 23.3808C141.095 22.8409 141.534 22.4055 142.071 22.4055C142.611 22.4055 143.047 22.8439 143.047 23.3808C143.05 23.9177 142.611 24.3561 142.071 24.3561Z" fill="#422B27"/>
<path d="M142.071 22.492C142.56 22.492 142.96 22.8887 142.96 23.3808C142.96 23.8729 142.563 24.2696 142.071 24.2696C141.581 24.2696 141.182 23.8729 141.182 23.3808C141.182 22.8887 141.581 22.492 142.071 22.492ZM142.071 22.316C141.483 22.316 141.006 22.7932 141.006 23.3808C141.006 23.9684 141.483 24.4456 142.071 24.4456C142.659 24.4456 143.136 23.9684 143.136 23.3808C143.136 22.7932 142.659 22.316 142.071 22.316Z" fill="#422B27"/>
<path d="M143.354 22.7992C143.354 23.0169 143.178 23.1899 142.963 23.1899C142.745 23.1899 142.572 23.0139 142.572 22.7992C142.572 22.5815 142.748 22.4085 142.963 22.4085C143.178 22.4055 143.354 22.5815 143.354 22.7992Z" fill="white"/>
<path opacity="0.6" d="M129.227 20.5533C130.516 20.5533 131.567 21.6032 131.567 22.8917C131.567 24.1802 130.516 25.23 129.227 25.23L127.06 22.0088C127.413 21.1528 128.251 20.5533 129.227 20.5533Z" fill="#9B4534"/>
<path d="M131.641 23.2257C131.641 24.3442 130.734 25.2479 129.618 25.2479C128.502 25.2479 127.595 24.3412 127.595 23.2257C127.595 22.1072 128.502 21.2035 129.618 21.2035C130.737 21.2005 131.641 22.1072 131.641 23.2257Z" fill="white" stroke="white" stroke-width="0.7685" stroke-miterlimit="10"/>
<path d="M130.092 24.3561C129.555 24.3561 129.117 23.9177 129.117 23.3808C129.117 22.8409 129.555 22.4055 130.092 22.4055C130.63 22.4055 131.068 22.8439 131.068 23.3808C131.068 23.9177 130.63 24.3561 130.092 24.3561Z" fill="#422B27"/>
<path d="M130.092 22.492C130.582 22.492 130.982 22.8887 130.982 23.3808C130.982 23.87 130.585 24.2696 130.092 24.2696C129.603 24.2696 129.203 23.8729 129.203 23.3808C129.203 22.8887 129.6 22.492 130.092 22.492ZM130.092 22.316C129.505 22.316 129.027 22.7932 129.027 23.3808C129.027 23.9684 129.505 24.4456 130.092 24.4456C130.68 24.4456 131.158 23.9684 131.158 23.3808C131.158 22.7932 130.677 22.316 130.092 22.316Z" fill="#422B27"/>
<path d="M131.373 22.7992C131.373 22.5815 131.197 22.4085 130.982 22.4085C130.764 22.4085 130.591 22.5844 130.591 22.7992C130.591 23.0169 130.767 23.1899 130.982 23.1899C131.197 23.1899 131.373 23.0139 131.373 22.7992Z" fill="white"/>
<path d="M125.607 54.1138C125.906 49.8129 125.166 44.9989 123.217 43.3227C122.525 42.7261 121.635 42.6665 120.43 42.7858L120.418 42.571C122.68 42.1117 124.312 42.4279 125.539 43.4837C128.308 45.8639 128.087 48.7153 128.311 53.1385L128.126 53.559L125.607 54.1138Z" fill="#FF3870"/>
<path d="M140.519 130.955C140.74 131.03 151.504 132.22 153.447 131.656C153.948 131.51 153.858 131.072 153.933 130.505C154.04 129.661 153.685 128.602 151.468 127.803C148.183 126.616 147.189 126.466 147.189 126.466C147.189 126.466 141.119 125.39 140.815 127.003C140.483 128.757 140.519 130.955 140.519 130.955Z" fill="#D3EEFF"/>
<path d="M140.519 129.911C140.74 129.986 151.74 131.113 153.688 130.582C154.112 130.466 154.837 128.214 151.611 127.212C148.275 126.177 147.308 125.443 147.308 125.443C147.308 125.443 141.238 124.367 140.934 125.98C140.606 127.731 140.519 129.911 140.519 129.911Z" fill="#FF4E62"/>
<path d="M140.982 126.386C140.982 126.386 141.659 127.421 143.163 127.382C144.664 127.346 145.198 126.368 145.765 125.977C146.646 125.369 147.311 125.44 147.311 125.44L146.938 121.468C146.938 121.468 146.246 122.38 143.79 122.658C141.337 122.935 140.522 122.282 140.522 122.282L140.982 126.386Z" fill="white"/>
<path d="M122.781 65.5045L122.151 70.7121C122.151 70.7121 118.15 86.9287 111.972 95.8199C106.944 93.0699 104.9 89.9769 105.813 88.5333C106.32 87.731 109.287 84.8737 111.582 81.375C114.691 76.6356 117.284 71.0015 117.538 70.3363L118.186 65.0601C118.186 65.0601 120.579 65.3255 122.781 65.5045Z" fill="#C62C63"/>
<path d="M104.724 134.027H138.406L199.716 128.008L165.464 127.299L104.724 134.027Z" fill="#7B8FAD"/>
<path d="M75.2551 55.9481C76.8844 55.9481 77.3619 57.4991 77.3619 58.8294C77.3619 60.4042 77.0516 61.0693 80.2118 61.0693C82.8409 61.0693 84.7299 58.725 84.0703 56.7803C83.2706 54.4181 82.062 54.0422 79.9343 53.9528C77.8036 53.8633 74.7955 53.9528 73.9301 53.9528C73.3721 53.9528 75.2551 55.9481 75.2551 55.9481Z" fill="#FFB287"/>
<path d="M96.9083 55.9481C98.5376 55.9481 99.0151 57.4991 99.0151 58.8294C99.0151 60.4042 98.7048 61.0693 101.865 61.0693C104.494 61.0693 106.383 58.725 105.724 56.7803C104.924 54.4181 103.715 54.0422 101.587 53.9528C99.4568 53.8633 96.6278 53.9528 95.7295 53.9528C95.1715 53.9528 96.9083 55.9481 96.9083 55.9481Z" fill="#FFB287"/>
<path d="M212.235 80.2565H205.694C204.443 80.2565 203.429 79.2424 203.429 77.9927C203.429 76.743 204.443 75.7289 205.694 75.7289H212.235C213.485 75.7289 214.5 76.743 214.5 77.9927C214.5 79.2424 213.485 80.2565 212.235 80.2565Z" fill="#FF5533"/>
<path d="M105.542 162.565V170.049C105.542 171.543 106.765 172.766 108.26 172.766H108.618C110.113 172.766 111.337 171.543 111.337 170.049V162.565H105.542Z" fill="#4F6177"/>
<path d="M104.396 166.818H106.881C108.944 166.818 110.618 169.052 110.618 171.808C110.618 174.564 108.946 176.798 106.881 176.798H104.396V166.818Z" fill="#4E4D4F" stroke="#4E4D4F" stroke-width="14.1717" stroke-miterlimit="10"/>
<path d="M100.668 171.808C100.668 174.564 102.34 176.798 104.405 176.798C106.467 176.798 108.141 174.564 108.141 171.808C108.141 169.052 106.47 166.818 104.405 166.818C102.34 166.818 100.668 169.052 100.668 171.808Z" fill="#8398B2" stroke="#323133" stroke-width="14.1717" stroke-miterlimit="10"/>
<path d="M101.922 163.171V170.654C101.922 172.148 103.145 173.371 104.64 173.371H106.192C107.687 173.371 108.911 172.148 108.911 170.654V163.171H101.922Z" fill="#7B8FAD"/>
<path d="M155.103 162.565V170.049C155.103 171.543 156.326 172.766 157.821 172.766H158.18C159.675 172.766 160.898 171.543 160.898 170.049V162.565H155.103Z" fill="#4F6177"/>
<path d="M153.957 166.818H156.443C158.505 166.818 160.179 169.052 160.179 171.808C160.179 174.564 158.508 176.798 156.443 176.798H153.957V166.818Z" fill="#4E4D4F" stroke="#4E4D4F" stroke-width="14.1717" stroke-miterlimit="10"/>
<path d="M150.23 171.808C150.23 174.564 151.901 176.798 153.966 176.798C156.028 176.798 157.702 174.564 157.702 171.808C157.702 169.052 156.031 166.818 153.966 166.818C151.901 166.818 150.23 169.052 150.23 171.808Z" fill="#8398B2" stroke="#323133" stroke-width="14.1717" stroke-miterlimit="10"/>
<path d="M151.483 163.171V170.654C151.483 172.148 152.707 173.371 154.202 173.371H155.753C157.248 173.371 158.472 172.148 158.472 170.654V163.171H151.483Z" fill="#7B8FAD"/>
<path d="M69.7672 64.1384C71.4268 64.1384 72.7722 62.3423 72.7722 60.1268C72.7722 57.9112 71.4268 56.1151 69.7672 56.1151C68.1075 56.1151 66.7621 57.9112 66.7621 60.1268C66.7621 62.3423 68.1075 64.1384 69.7672 64.1384Z" fill="#C9062B"/>
<path d="M104.81 93.9349C104.81 95.3636 103.945 96.5178 102.877 96.5178H87.1739C86.1056 96.5178 85.2402 95.3606 85.2402 93.9349C85.2402 92.5092 86.1056 91.3519 87.1739 91.3519H102.877C103.945 91.349 104.81 92.5062 104.81 93.9349Z" fill="#CC092E"/>
<path d="M163.056 164.865H101.065C98.8003 164.865 96.7322 163.928 95.3923 162.297C94.0524 160.665 93.5362 158.455 93.9778 156.236L97.5947 138.045C98.1766 135.125 97.9796 130.236 97.1679 127.37L79.988 66.6796C79.3613 64.4635 77.0814 62.5159 75.1089 62.5159H69.6955C68.4452 62.5159 67.4306 61.5018 67.4306 60.2521C67.4306 59.0023 68.4452 57.9883 69.6955 57.9883H75.1089C79.1047 57.9883 83.1632 61.2632 84.3479 65.4478L101.528 126.138C102.533 129.691 102.757 135.31 102.038 138.928L98.4213 157.119C98.2422 158.017 98.4093 158.837 98.8928 159.424C99.3762 160.012 100.146 160.337 101.062 160.337H163.056C164.306 160.337 165.321 161.351 165.321 162.601C165.321 163.851 164.306 164.865 163.056 164.865Z" fill="#7B8FAD"/>
<path d="M170.14 162.362H102.533C100.603 162.362 98.9256 161.608 97.8155 160.236C96.7054 158.864 96.3144 157.068 96.7173 155.18L100.197 138.865C100.85 135.802 100.68 130.672 99.8238 127.659L82.0978 65.1943C81.3219 62.4622 78.296 60.1536 75.4878 60.1536H69.5075C68.9226 60.1536 68.4511 59.6794 68.4511 59.0978C68.4511 58.5132 68.9256 58.0419 69.5075 58.0419H75.4878C79.224 58.0419 83.1035 60.9917 84.133 64.6186L101.859 127.084C102.808 130.427 102.99 135.909 102.265 139.307L98.7853 155.622C98.5168 156.874 98.7585 158.041 99.4568 158.908C100.158 159.773 101.25 160.251 102.53 160.251H170.14C170.725 160.251 171.197 160.725 171.197 161.306C171.199 161.888 170.725 162.362 170.14 162.362Z" fill="#BBD7EA"/>
<path d="M154.315 129.646C154.288 129.646 154.264 129.646 154.237 129.643C153.799 129.601 153.476 129.21 153.521 128.772L158.484 78.0047C158.526 77.5662 158.92 77.2441 159.355 77.2888C159.794 77.3306 160.116 77.7213 160.071 78.1598L155.109 128.927C155.067 129.339 154.721 129.646 154.315 129.646Z" fill="#7B8FAD"/>
<path d="M143.103 130.403C143.097 130.403 143.089 130.403 143.083 130.403C142.641 130.392 142.295 130.025 142.307 129.583L143.673 78.9502C143.685 78.5088 144.061 78.1687 144.494 78.1747C144.936 78.1866 145.282 78.5535 145.27 78.9949L143.903 129.628C143.891 130.06 143.536 130.403 143.103 130.403Z" fill="#7B8FAD"/>
<path d="M132.578 131.931C132.154 131.931 131.802 131.6 131.781 131.173L129.075 77.8854C129.051 77.444 129.391 77.0711 129.833 77.0473C130.28 77.0234 130.647 77.3634 130.671 77.8048L133.378 131.092C133.402 131.534 133.062 131.907 132.62 131.931C132.605 131.931 132.59 131.931 132.578 131.931Z" fill="#7B8FAD"/>
<path d="M122.047 133.037C121.65 133.037 121.307 132.745 121.256 132.342L114.217 78.0196C114.16 77.5811 114.467 77.1815 114.906 77.1248C115.342 77.0681 115.744 77.3753 115.801 77.8138L122.841 132.136C122.898 132.575 122.59 132.975 122.151 133.031C122.116 133.034 122.08 133.037 122.047 133.037Z" fill="#7B8FAD"/>
<path d="M111.62 134.132C111.25 134.132 110.916 133.872 110.838 133.493L99.2986 77.5543C99.2091 77.1218 99.4866 76.7013 99.9193 76.6118C100.349 76.5223 100.773 76.7997 100.862 77.2322L112.402 133.168C112.492 133.601 112.214 134.021 111.781 134.111C111.728 134.129 111.674 134.132 111.62 134.132Z" fill="#7B8FAD"/>
<path d="M99.7045 136.017C98.9405 136.017 98.284 135.438 98.2034 134.663C98.1169 133.833 98.7197 133.091 99.5493 133.004L164.918 126.231C165.715 126.025 166.532 126.493 166.753 127.29C166.977 128.092 166.505 128.924 165.703 129.148L165.604 129.175C165.524 129.198 165.44 129.213 165.356 129.222L99.8626 136.008C99.8089 136.014 99.7582 136.017 99.7045 136.017Z" fill="#7B8FAD"/>
<path d="M96.5621 117.304C96.0817 117.304 95.6758 116.937 95.6341 116.448C95.5923 115.935 95.9743 115.484 96.4846 115.443L167.207 109.597C167.714 109.558 168.171 109.937 168.212 110.447C168.254 110.96 167.872 111.41 167.362 111.452L96.6397 117.298C96.6129 117.301 96.589 117.304 96.5621 117.304Z" fill="#7B8FAD"/>
<path d="M91.7874 101.096C91.298 101.096 90.8862 100.714 90.8594 100.219C90.8295 99.7063 91.2204 99.2648 91.7337 99.235L169.749 94.6C170.265 94.5672 170.704 94.9609 170.734 95.4739C170.764 95.9869 170.373 96.4284 169.86 96.4582L91.8441 101.093C91.8232 101.096 91.8053 101.096 91.7874 101.096Z" fill="#7B8FAD"/>
<path d="M163.626 128.888C163.56 128.888 163.494 128.882 163.426 128.87C162.775 128.76 162.336 128.146 162.447 127.495L170.761 77.9659C170.871 77.3157 171.483 76.8772 172.137 76.9876C172.787 77.0979 173.226 77.7124 173.115 78.3626L164.801 127.892C164.703 128.474 164.196 128.888 163.626 128.888Z" fill="#7B8FAD"/>
<path d="M161.247 79.9046H86.1294C85.0581 79.9046 84.1897 79.0366 84.1897 77.9659C84.1897 76.8951 85.0581 76.0272 86.1294 76.0272H161.247C162.319 76.0272 163.187 76.8951 163.187 77.9659C163.187 79.0366 162.319 79.9046 161.247 79.9046Z" fill="#7B8FAD"/>
<path d="M161.507 77.5245H86.2637C85.7683 77.5245 85.3685 77.1248 85.3685 76.6297C85.3685 76.1346 85.7683 75.7349 86.2637 75.7349H161.504C161.999 75.7349 162.399 76.1346 162.399 76.6297C162.402 77.1248 162.002 77.5245 161.507 77.5245Z" fill="#BBD7EA"/>
<path d="M175.022 80.2327H161.247C159.997 80.2327 158.982 79.2186 158.982 77.9689C158.982 76.7192 159.997 75.7051 161.247 75.7051H175.022C176.273 75.7051 177.287 76.7192 177.287 77.9689C177.287 79.2186 176.276 80.2327 175.022 80.2327Z" fill="#C9062B"/>
<path d="M165.342 127.815C165.285 127.815 165.225 127.809 165.165 127.8C164.595 127.704 164.214 127.164 164.309 126.598L172.501 78.1627C172.596 77.5931 173.136 77.2113 173.703 77.3067C174.273 77.4022 174.655 77.942 174.56 78.5087L166.368 126.944C166.282 127.454 165.84 127.815 165.342 127.815Z" fill="#BBD7EA"/>
<path d="M174.64 127.961C174.592 127.961 174.548 127.958 174.5 127.949C174.064 127.871 173.778 127.457 173.855 127.024L182.587 78.0256C182.665 77.5931 183.077 77.3008 183.512 77.3783C183.948 77.4559 184.234 77.8705 184.16 78.3029L175.428 127.302C175.356 127.689 175.019 127.961 174.64 127.961Z" fill="#BBD7EA"/>
<path d="M193.145 127.695C193.097 127.695 193.05 127.692 193.002 127.683C192.566 127.606 192.28 127.191 192.357 126.756L201.104 78.0226C201.182 77.5901 201.596 77.3008 202.032 77.3783C202.468 77.4559 202.754 77.8704 202.677 78.3059L193.93 127.039C193.861 127.424 193.527 127.695 193.145 127.695Z" fill="#BBD7EA"/>
<path d="M183.829 127.961C183.784 127.961 183.739 127.958 183.691 127.949C183.256 127.874 182.966 127.46 183.041 127.027L191.522 78.0285C191.596 77.5931 192.011 77.3037 192.444 77.3783C192.88 77.4529 193.169 77.8675 193.094 78.2999L184.613 127.299C184.548 127.686 184.211 127.961 183.829 127.961Z" fill="#BBD7EA"/>
<path d="M177.365 80.1134C176.198 80.1134 175.252 79.1679 175.249 78.0017C175.249 76.8355 176.195 75.887 177.362 75.887L204.936 75.8781C206.102 75.8781 207.048 76.8235 207.051 77.9898C207.051 79.156 206.105 80.1044 204.939 80.1044L177.365 80.1134Z" fill="#7B8FAD"/>
<path d="M204.93 77.9898H177.395C176.81 77.9898 176.338 77.5155 176.338 76.9339C176.338 76.3493 176.813 75.8781 177.395 75.8781H204.93C205.515 75.8781 205.986 76.3523 205.986 76.9339C205.989 77.5155 205.515 77.9898 204.93 77.9898Z" fill="#BBD7EA"/>
<path d="M179.985 80.2565H172.909C171.659 80.2565 170.644 79.2424 170.644 77.9927C170.644 76.743 171.659 75.7289 172.909 75.7289H179.985C181.235 75.7289 182.25 76.743 182.25 77.9927C182.25 79.2424 181.235 80.2565 179.985 80.2565Z" fill="#FF5533"/>
<path d="M201.778 127.961H165.3C164.858 127.961 164.5 127.603 164.5 127.161C164.5 126.72 164.858 126.362 165.3 126.362H201.778C202.22 126.362 202.578 126.72 202.578 127.161C202.578 127.603 202.22 127.961 201.778 127.961Z" fill="#BBD7EA"/>
<path d="M204.44 110.894H168.49C168.048 110.894 167.69 110.536 167.69 110.095C167.69 109.653 168.048 109.295 168.49 109.295H204.44C204.882 109.295 205.24 109.653 205.24 110.095C205.24 110.536 204.882 110.894 204.44 110.894Z" fill="#BBD7EA"/>
<path d="M207.031 96.2643H171.08C170.638 96.2643 170.28 95.9064 170.28 95.465C170.28 95.0235 170.638 94.6656 171.08 94.6656H207.031C207.472 94.6656 207.83 95.0235 207.83 95.465C207.83 95.9094 207.472 96.2643 207.031 96.2643Z" fill="#BBD7EA"/>
<path d="M197.18 75.8572C198.224 75.8572 199.567 79.9821 196.383 80.0328H201.307C201.307 80.0328 202.202 76.9518 201.405 76.3553C200.609 75.7587 197.974 75.8095 197.974 75.8095L197.18 75.8572Z" fill="#7B8FAD"/>
<path d="M104.602 75.5082C103.557 75.5082 102.214 79.6332 105.398 79.6839H100.474C100.474 79.6839 98.7137 78.4998 99.224 77.6467C100.591 75.3591 103.808 75.4605 103.808 75.4605L104.602 75.5082Z" fill="#7B8FAD"/>
<path d="M109.669 75.21C110.439 75.5589 111.408 75.6067 111.408 75.6067C111.408 75.6067 109.319 76.0033 109.319 77.6945C109.319 79.3856 108.872 79.3349 108.872 79.3349L102.829 79.4334C102.829 79.4334 103.626 76.6237 103.849 76.5253C104.073 76.4269 109.146 75.2577 109.146 75.2577L109.669 75.21Z" fill="#7B8FAD"/>
<path d="M176.849 75.7617C177.974 75.7617 179.418 80.2029 175.992 80.2566H181.292C181.292 80.2566 182.256 76.9399 181.399 76.2986C180.543 75.6573 177.705 75.711 177.705 75.711L176.849 75.7617Z" fill="#C9062B"/>
<path d="M176.759 75.7319C179.125 75.7319 179.233 77.4559 179.233 78.7861C179.233 80.3609 178.923 81.0261 182.083 81.0261C184.712 81.0261 186.601 78.6817 185.941 76.7371C185.142 74.3748 183.933 73.999 181.805 73.9095C179.675 73.82 177.454 73.665 175.891 74.7119C175.425 75.022 176.759 75.7319 176.759 75.7319Z" fill="#FFB287"/>
<path d="M111.408 75.6096C108.523 75.6096 107.804 77.1636 107.804 78.4938C107.804 80.0687 108.18 81.2945 105.019 81.2945C102.93 81.2945 101.089 80.0866 101.089 77.7004C101.089 75.207 103.145 74.2674 105.276 74.178C107.407 74.0885 109.627 73.9334 111.191 74.9803C111.656 75.2875 111.408 75.6096 111.408 75.6096Z" fill="#FFB287"/>
<path d="M197.239 75.8632C199.633 75.8632 200.086 77.5454 200.086 78.8756C200.086 80.4504 199.776 81.1156 202.936 81.1156C206.332 81.1156 207.786 78.7712 207.126 76.8265C206.326 74.4643 204.786 74.0885 202.659 73.999C200.528 73.9095 198.018 73.483 196.338 74.861C195.906 75.2159 197.239 75.8632 197.239 75.8632Z" fill="#FFB287"/>
<path d="M42.3873 84.4471C38.9257 86.4425 41.1906 96.6878 45.849 96.8191C45.849 96.8191 34.6672 100.676 31.3399 99.4796C28.0125 98.2836 28.0065 84.2712 32.7007 84.5784C37.2277 84.8796 42.3873 84.4471 42.3873 84.4471Z" fill="#008DC4"/>
<path opacity="0.4" d="M41.2981 92.1006C39.2122 92.8283 35.9355 92.888 32.9931 92.378C32.8141 92.3362 32.6111 92.3004 32.3873 92.2646C31.2892 92.0409 30.9042 91.9485 30.0179 91.5667C27.4813 90.6958 28.1796 87.3522 29.4211 85.6253C30.7639 83.7611 33.1513 81.9716 36.7323 82.1953C37.3351 82.234 37.8156 82.2281 38.1856 82.1923L37.9439 81.3631L36.2727 81.1722C29.8508 80.4445 26.5503 84.5814 26.0937 91.1372C26.0877 91.2356 26.0788 91.337 26.0728 91.4354C26.043 91.7695 26.0131 92.1364 25.9863 92.539C25.9863 92.6136 25.9833 92.6941 25.9803 92.7717C25.9475 93.2698 25.9117 93.7738 25.8788 94.2868C25.8908 94.2958 25.9027 94.3018 25.9146 94.3107C25.8878 94.7521 25.8579 95.2174 25.8221 95.6916C25.8102 95.6946 25.7953 95.6946 25.7833 95.6976C25.7266 96.5596 25.667 97.4395 25.6073 98.3283C25.3924 100.786 25.1656 103.109 25.1656 104.04C25.1656 104.234 25.1626 104.317 25.1746 104.326C24.9388 107.369 24.6673 110.417 24.342 113.289C23.396 121.632 23.6109 124.134 23.6109 124.134C23.6109 124.134 23.6586 124.877 27.729 125.819C27.8424 122.473 28.8063 110.119 29.1943 106.504C29.5583 103.121 29.7911 99.9419 34.3658 99.5929C38.863 99.2499 46.4518 96.7356 46.4518 96.7356C44.339 96.6759 42.1128 94.6119 41.2981 92.1006Z" fill="#0C5291"/>
<path d="M54.0107 151.747C53.9928 151.84 53.9659 151.908 53.948 151.941C53.957 151.908 53.9809 151.843 54.0107 151.747Z" fill="#FFB287"/>
<path d="M172.137 48.6407C173.256 49.0881 181.164 50.9523 184.297 49.9083L182.432 48.7899L173.852 47.5968L172.137 48.6407Z" fill="#FFB287"/>
</svg>
