<svg width="134" height="193" viewBox="0 0 134 193" fill="none" xmlns="http://www.w3.org/2000/svg">
<path d="M131.742 51.2843C134.591 52.9246 134.611 55.5857 131.786 57.2309L124.953 61.1953C122.128 62.8405 117.529 62.8355 114.68 61.1903L64.8773 32.4337C62.0279 30.7934 62.0081 28.1323 64.8377 26.4871L71.6664 22.5177C74.4959 20.8775 79.0897 20.8824 81.9391 22.5276L131.742 51.2843Z" fill="#FCDA4C"/>
<path d="M62.7316 29.4356L62.5631 88.6487C62.5582 89.7389 63.2767 90.8241 64.7138 91.6467L64.8773 32.4336C63.4452 31.611 62.7267 30.5208 62.7316 29.4356Z" fill="#EA8A33"/>
<path d="M64.8773 32.4336L64.7138 91.6467L114.521 120.403L114.69 61.1903L64.8773 32.4336Z" fill="#FECC2F"/>
<path d="M133.892 54.2824C133.892 54.5302 133.848 54.7829 133.768 55.0307C133.764 55.0555 133.754 55.0753 133.749 55.1001C133.664 55.328 133.545 55.5609 133.402 55.7789C133.372 55.8235 133.352 55.8582 133.322 55.8979C133.164 56.1209 132.971 56.329 132.748 56.5322C132.599 56.6709 132.406 56.7948 132.227 56.9237C132.079 57.0277 131.955 57.1368 131.791 57.2359L124.958 61.2003C124.522 61.453 124.036 61.6562 123.53 61.8296C123.352 61.8891 123.169 61.9485 122.985 61.9931C122.743 62.0675 122.505 62.1269 122.252 62.1814C121.965 62.2409 121.667 62.2954 121.37 62.3301C121.296 62.34 121.231 62.3549 121.162 62.3598C120.76 62.4044 120.349 62.4243 119.938 62.4243C119.868 62.4292 119.804 62.4292 119.739 62.4292C119.338 62.4243 118.927 62.4044 118.535 62.3598C118.476 62.3549 118.416 62.345 118.352 62.34C117.96 62.2905 117.569 62.226 117.182 62.1368C117.113 62.117 117.049 62.1021 116.979 62.0823C116.632 61.9981 116.295 61.894 115.968 61.7751C115.909 61.7553 115.844 61.7404 115.79 61.7156C115.398 61.567 115.027 61.3935 114.685 61.1903L114.521 120.403C114.848 120.592 115.2 120.76 115.572 120.909C115.592 120.919 115.607 120.919 115.626 120.929C115.686 120.949 115.745 120.968 115.805 120.988C116.018 121.067 116.231 121.147 116.454 121.211C116.573 121.246 116.692 121.271 116.816 121.3C116.88 121.315 116.95 121.34 117.024 121.355C117.088 121.365 117.153 121.39 117.217 121.399C117.455 121.444 117.693 121.489 117.941 121.523C118.025 121.533 118.109 121.543 118.198 121.548C118.253 121.553 118.307 121.558 118.367 121.563C118.461 121.578 118.555 121.588 118.644 121.598C118.877 121.618 119.115 121.632 119.358 121.632C119.432 121.637 119.507 121.632 119.576 121.632C119.64 121.632 119.7 121.632 119.764 121.632C119.873 121.632 119.982 121.632 120.096 121.632C120.369 121.622 120.636 121.603 120.904 121.573C120.934 121.573 120.959 121.563 120.988 121.563C121.063 121.553 121.132 121.543 121.206 121.533C121.414 121.504 121.628 121.479 121.836 121.444C121.92 121.434 122.004 121.399 122.098 121.38C122.346 121.33 122.584 121.271 122.827 121.201C122.951 121.167 123.084 121.142 123.208 121.102C123.268 121.082 123.312 121.048 123.367 121.033C123.877 120.854 124.363 120.656 124.799 120.403L131.628 116.434C131.652 116.414 131.687 116.399 131.712 116.385C131.846 116.305 131.935 116.211 132.049 116.127C132.237 115.998 132.43 115.874 132.579 115.735C132.599 115.72 132.614 115.716 132.629 115.701C132.797 115.547 132.951 115.384 133.08 115.215C133.114 115.175 133.129 115.141 133.159 115.101C133.184 115.061 133.213 115.022 133.243 114.977C133.283 114.913 133.332 114.843 133.377 114.779C133.451 114.645 133.521 114.511 133.57 114.368C133.58 114.348 133.58 114.333 133.59 114.308C133.6 114.278 133.605 114.254 133.615 114.229C133.64 114.14 133.674 114.055 133.689 113.961C133.719 113.823 133.734 113.689 133.739 113.545C133.739 113.525 133.739 113.505 133.739 113.486L133.882 61.8742L133.902 54.3369C133.892 54.322 133.892 54.3022 133.892 54.2824Z" fill="#EA8A33"/>
<path d="M83.5149 18.7565C83.5694 18.2263 83.6388 17.7208 83.733 17.2253C83.7429 17.1608 83.7627 17.0915 83.7726 17.027C83.8668 16.5464 83.9857 16.0855 84.1145 15.6445C84.1393 15.5701 84.1641 15.4958 84.1889 15.4215C84.3078 15.0498 84.4515 14.693 84.5952 14.3461C84.6299 14.2569 84.6646 14.1677 84.7043 14.0835C84.8579 13.7564 85.0264 13.4591 85.1948 13.1667C85.2494 13.0825 85.294 12.9834 85.3485 12.8942C85.5665 12.5522 85.8044 12.2351 86.0521 11.9378C86.1215 11.8585 86.1909 11.7841 86.2603 11.7098C86.4585 11.4918 86.6666 11.2886 86.8797 11.0953C86.964 11.0309 87.0383 10.9566 87.1225 10.8872C87.4149 10.6543 87.7122 10.4363 88.0294 10.2529C87.7717 10.4016 87.519 10.5552 87.2613 10.6989C87.182 10.7435 87.0829 10.803 87.0086 10.8476C86.964 10.8723 86.9194 10.8971 86.8748 10.9219L82.9104 13.2262C82.5932 13.4145 82.2959 13.6325 82.0085 13.8654C81.9193 13.9299 81.8449 14.0042 81.7607 14.0785C81.5476 14.2668 81.3444 14.47 81.1512 14.6831C81.0768 14.7624 81.0075 14.8417 80.9331 14.921C80.6953 15.2084 80.4624 15.5057 80.2493 15.8377C80.2443 15.8476 80.2394 15.8625 80.2294 15.8774C80.1749 15.9616 80.1303 16.0657 80.0758 16.1598C79.9272 16.4076 79.7785 16.6603 79.6447 16.9329C79.6249 16.9725 79.61 17.0221 79.5951 17.0568C79.5555 17.146 79.5159 17.2451 79.4762 17.3442C79.3969 17.5176 79.3176 17.696 79.2483 17.8843C79.1838 18.0528 79.1293 18.2312 79.0699 18.4096C79.0451 18.479 79.0253 18.5484 79.0005 18.6178C78.9856 18.6673 78.9658 18.7119 78.9559 18.7615C78.8716 19.034 78.8023 19.3214 78.7379 19.6138C78.7081 19.7327 78.6833 19.8665 78.6586 19.9904C78.6437 20.0598 78.6288 20.1242 78.6189 20.1886C78.604 20.263 78.5892 20.3324 78.5743 20.4116C78.5297 20.6792 78.4851 20.9518 78.4554 21.2243C78.4306 21.3928 78.4207 21.5712 78.4058 21.7447C78.3959 21.7843 78.391 21.8289 78.386 21.8735C78.3811 21.9231 78.3711 21.9726 78.3711 22.0222C78.3464 22.2848 78.3365 22.5574 78.3216 22.825C78.3067 23.0926 78.3018 23.3651 78.3018 23.6377C78.3018 23.6575 78.3018 23.6724 78.3018 23.6872L78.272 35.0155L83.391 32.0422L83.4257 20.7139C83.4257 20.0895 83.4555 19.485 83.51 18.9101C83.505 18.8606 83.51 18.811 83.5149 18.7565Z" fill="#FECC2F"/>
<path d="M124.606 40.6052C124.596 40.2881 124.576 39.9709 124.561 39.6488C124.551 39.5101 124.541 39.3664 124.532 39.2227C124.527 39.1582 124.522 39.0889 124.512 39.0244C124.502 38.9154 124.497 38.8014 124.482 38.6924C124.457 38.3703 124.418 38.0532 124.378 37.7261C124.338 37.399 124.289 37.067 124.234 36.74C124.234 36.7301 124.234 36.7251 124.234 36.7201C124.229 36.7053 124.224 36.6855 124.219 36.6656C124.175 36.3584 124.12 36.0462 124.066 35.739C124.001 35.397 123.932 35.0551 123.858 34.7132C123.828 34.5942 123.798 34.4753 123.773 34.3514C123.754 34.282 123.744 34.2077 123.724 34.1334C123.689 33.9847 123.654 33.836 123.62 33.6775C123.531 33.3256 123.441 32.9837 123.342 32.6319C123.273 32.3841 123.198 32.1363 123.124 31.8935C123.109 31.834 123.089 31.7746 123.075 31.7151C123.06 31.6755 123.05 31.6309 123.04 31.5863C122.936 31.2493 122.822 30.9074 122.713 30.5704C122.604 30.2334 122.485 29.9014 122.361 29.5694C122.336 29.505 122.316 29.4405 122.292 29.3811C122.277 29.3365 122.257 29.2968 122.247 29.2572C122.163 29.0391 122.088 28.8261 122.004 28.613C121.875 28.2909 121.747 27.9787 121.618 27.6566C121.524 27.4336 121.429 27.2155 121.335 26.9975C121.31 26.938 121.291 26.8934 121.266 26.834C121.246 26.7943 121.231 26.7547 121.211 26.7101C121.073 26.3929 120.929 26.0758 120.775 25.7586C120.617 25.4117 120.448 25.0648 120.28 24.7279C120.25 24.6734 120.22 24.6188 120.195 24.5594C120.166 24.5049 120.141 24.4504 120.106 24.3959C119.963 24.1134 119.819 23.8309 119.67 23.5485C119.487 23.2115 119.289 22.8795 119.1 22.5375C119.001 22.3641 118.907 22.1907 118.808 22.0172C118.773 21.9528 118.734 21.8834 118.694 21.819C118.525 21.5365 118.347 21.259 118.174 20.9815C117.906 20.5454 117.643 20.1143 117.361 19.6881C117.311 19.6188 117.272 19.5444 117.222 19.4701C116.821 18.8754 116.409 18.2857 115.983 17.7109C115.696 17.3194 115.408 16.9428 115.116 16.5711C114.873 16.2589 114.621 15.9567 114.373 15.6544C114.373 15.6494 114.368 15.6494 114.368 15.6494C114.363 15.6395 114.358 15.6395 114.353 15.6346C114.1 15.3323 113.847 15.0349 113.595 14.7426C113.342 14.4551 113.084 14.1677 112.832 13.8952C112.792 13.8456 112.742 13.806 112.703 13.7614C112.658 13.7168 112.614 13.6672 112.564 13.6177C112.386 13.4294 112.207 13.2411 112.024 13.0527C111.751 12.7752 111.474 12.4977 111.191 12.2301C111.107 12.1508 111.028 12.0765 110.944 11.9972C110.874 11.9328 110.8 11.8634 110.735 11.804C110.597 11.6801 110.468 11.5512 110.334 11.4273C110.047 11.1647 109.754 10.912 109.457 10.6642C109.333 10.5601 109.204 10.4561 109.075 10.352C109.006 10.2975 108.937 10.238 108.867 10.1835C108.773 10.1042 108.679 10.0249 108.58 9.95061C108.297 9.72266 108.005 9.50462 107.718 9.28658C107.509 9.13791 107.301 8.98925 107.093 8.84554C107.049 8.81581 107.004 8.78112 106.959 8.75634C106.925 8.73156 106.89 8.70679 106.86 8.68696C106.583 8.49866 106.305 8.3153 106.028 8.13195C105.75 7.95851 105.468 7.79002 105.19 7.61658C105.126 7.58189 105.061 7.54225 104.997 7.50756L96.6767 2.70569C96.4686 2.58181 96.2605 2.46783 96.0523 2.35386C95.7847 2.21015 95.5122 2.07139 95.2396 1.93759C95.0612 1.8484 94.8878 1.76911 94.7094 1.68486C94.6747 1.67 94.645 1.66009 94.6103 1.64027C94.5558 1.61549 94.5013 1.58576 94.4468 1.56098C94.1792 1.44205 93.9264 1.33303 93.6588 1.22896C93.3912 1.11994 93.1286 1.02083 92.866 0.926676C92.8214 0.906854 92.7768 0.891987 92.7223 0.877121C92.6925 0.86721 92.6529 0.857299 92.6132 0.842432C92.4348 0.782967 92.2564 0.718545 92.0731 0.66899C91.8055 0.584747 91.528 0.510415 91.2653 0.445994C91.1365 0.411305 91.0126 0.386528 90.8838 0.36175C90.8243 0.346884 90.7648 0.332017 90.7054 0.322106C90.6211 0.302285 90.5418 0.282463 90.4576 0.262641C90.1702 0.20813 89.8828 0.158576 89.5953 0.123887C89.4219 0.0991097 89.2534 0.0842432 89.08 0.0693768C89.0205 0.0644213 88.9561 0.0594658 88.8917 0.0545103C88.8372 0.0445994 88.7777 0.0396439 88.7232 0.0346884C88.411 0.00495549 88.1037 0 87.8015 0C87.6677 0 87.5339 0.00991097 87.41 0.0198219C87.3059 0.0198219 87.1969 0.0297329 87.0978 0.0346884C86.9937 0.0396439 86.8797 0.0346884 86.7806 0.0495548C86.3891 0.0842432 86.0175 0.138754 85.6458 0.213086C85.6409 0.218041 85.631 0.218041 85.621 0.218041C85.5418 0.232908 85.4773 0.262641 85.3931 0.282463C85.0115 0.371661 84.6349 0.465816 84.2732 0.594658C84.2434 0.604569 84.2186 0.624391 84.184 0.634302C83.6636 0.827566 83.1532 1.05552 82.6775 1.33303C81.9936 1.72946 81.3147 2.1259 80.6309 2.52234C79.8628 2.97329 79.0947 3.41928 78.3266 3.86032C78.0689 4.01394 77.8162 4.15765 77.5585 4.30632C78.0342 4.03376 78.5446 3.80086 79.0699 3.61255C79.4564 3.46884 79.8529 3.35982 80.2642 3.26566C80.3484 3.24584 80.4178 3.21611 80.507 3.20124C80.9827 3.10709 81.4733 3.04762 81.9788 3.01293C82.0779 3.01293 82.1869 3.00798 82.286 3.00302C82.7766 2.9832 83.2721 2.99311 83.7776 3.03276C83.842 3.03771 83.9015 3.04267 83.9659 3.04762C84.4962 3.10213 85.0363 3.18142 85.5913 3.2954C85.6508 3.30531 85.7102 3.32513 85.7697 3.33504C86.3396 3.45893 86.9095 3.62246 87.4992 3.81572C87.5339 3.83059 87.5735 3.8405 87.6132 3.85537C88.2276 4.0635 88.852 4.31623 89.4863 4.60365C89.526 4.62347 89.5706 4.64329 89.6102 4.65816C90.2544 4.95548 90.9036 5.29246 91.5627 5.66907L99.8829 10.4759C100.547 10.8624 101.206 11.2787 101.855 11.7296C101.89 11.7544 101.925 11.7792 101.959 11.804C102.569 12.2301 103.178 12.686 103.773 13.1618C103.823 13.2113 103.877 13.251 103.932 13.2956C104.501 13.7614 105.066 14.2569 105.626 14.7723C105.686 14.8318 105.75 14.8912 105.815 14.9457C106.375 15.471 106.92 16.0211 107.455 16.5811C107.5 16.6306 107.539 16.6752 107.589 16.7248C108.159 17.3293 108.709 17.9537 109.249 18.6029C109.254 18.6128 109.264 18.6178 109.274 18.6277C109.824 19.2917 110.354 19.9756 110.874 20.6792C110.879 20.6891 110.889 20.6941 110.894 20.709C111.36 21.3383 111.806 21.9875 112.242 22.6416C112.519 23.0529 112.772 23.4791 113.035 23.9053C113.258 24.267 113.491 24.6238 113.704 24.9955C113.793 25.154 113.887 25.3176 113.976 25.4811C114.318 26.0906 114.665 26.715 114.977 27.3444C115.012 27.4038 115.042 27.4683 115.076 27.5327C115.458 28.2909 115.815 29.054 116.152 29.8271C116.167 29.8617 116.182 29.8964 116.196 29.9311C116.523 30.6844 116.826 31.4425 117.113 32.2057C117.133 32.2552 117.148 32.3098 117.173 32.3643C117.455 33.1423 117.723 33.9252 117.961 34.7132C117.97 34.7479 117.985 34.7925 117.99 34.8371C118.223 35.6002 118.426 36.3683 118.605 37.1265C118.62 37.186 118.63 37.2504 118.644 37.3049C119.006 38.8857 119.259 40.4615 119.388 42.0076C119.398 42.0671 119.398 42.1216 119.403 42.1761C119.467 42.9442 119.497 43.7074 119.497 44.4656L119.457 58.7968L124.576 55.8235L124.616 41.4873C124.621 41.1999 124.616 40.9026 124.606 40.6052Z" fill="#FECC2F"/>
<path d="M99.8779 10.4809C110.75 16.7545 119.536 31.9678 119.497 44.4705L119.457 58.8018L112.965 55.0554L113 43.7272C113.03 33.846 106.632 22.1312 98.7184 17.5672L92.6727 14.0736C84.7637 9.50958 78.3265 13.8109 78.2968 23.6922L78.2671 35.0204L71.7754 31.2741L71.815 16.9379C71.8448 4.43021 80.6903 -0.604565 91.5577 5.66908L99.8779 10.4809Z" fill="#EA8A33"/>
<path d="M88.3861 63.336C85.9381 61.9237 83.9361 63.0536 83.9262 65.8782C83.9213 67.459 84.5605 69.2232 85.5318 70.7247L83.8766 84.0153L92.7668 89.1393L91.1909 73.9953C92.1771 73.6236 92.8114 72.5929 92.8163 71.017C92.8213 68.1875 90.8441 64.7583 88.3861 63.336Z" fill="#2D1D1F"/>
<path opacity="0.1" d="M9.88148 162.917C-2.03646 169.795 -2.10584 180.954 9.73777 187.838C21.5863 194.726 40.8533 194.716 52.7613 187.838C64.6842 180.954 64.7486 169.8 52.9 162.917C41.0515 156.038 21.8044 156.038 9.88148 162.917Z" fill="black"/>
<path d="M23.9502 169.745C24.1137 169.775 32.3249 169.517 30.4964 172.377C29.312 174.22 27.6618 174.547 26.4329 174.582C25.1989 174.611 22.9591 173.952 22.404 174.284C21.8391 174.611 19.064 176.415 17.4684 174.606C17.1413 174.24 16.9332 173.189 17.1413 172.515C17.3594 171.841 23.0433 169.582 23.9502 169.745Z" fill="#5BB0FF"/>
<path d="M30.5013 172.377C29.317 174.22 27.6668 174.547 26.4378 174.582C25.2039 174.611 22.964 173.952 22.409 174.284C21.8441 174.611 19.069 176.415 17.4734 174.606C17.2999 174.403 17.1513 174.007 17.0967 173.571C18.2117 175.107 20.9372 174.686 21.6954 174.175C22.5577 173.61 23.8065 173.318 24.8769 173.531C25.9472 173.734 28.2862 173.487 29.4557 172.431C30.1594 171.797 30.1247 171.058 29.986 170.583C30.7095 170.979 31.0316 171.539 30.5013 172.377Z" fill="#3D93FF"/>
<path d="M35.7591 175.092C41.6511 174.314 47.8356 175.28 45.5511 178.293C44.0694 180.251 41.9782 180.563 40.4172 180.583C38.8513 180.603 35.987 179.854 35.2784 180.201C34.5797 180.548 31.0712 182.421 29.0147 180.474C28.5984 180.077 27.9492 178.358 28.2069 177.644C28.4596 176.936 34.5995 175.241 35.7591 175.092Z" fill="#5BB0FF"/>
<path d="M17.9391 107.945C17.9391 107.945 13.5089 116.583 18.0977 128.516C18.0977 128.516 21.621 138.595 20.8381 141.965C19.9114 146.013 18.5338 144.869 17.5476 158.263C16.6755 170.087 16.73 168.219 16.9232 172.565C16.9877 173.942 22.5229 175.117 23.4149 171.653C25.6845 162.807 31.1901 144.304 30.1841 133.59C29.1782 122.886 28.5339 112.866 28.5339 112.866C28.5339 112.866 21.4625 110.993 17.9391 107.945Z" fill="#223A7A"/>
<path d="M23.2464 112.94C23.2464 112.94 20.6399 122.291 27.5825 132.435C27.5825 132.435 32.8105 143.853 32.092 147.673C31.3536 151.633 30.0751 151.301 28.7223 163.402C27.86 171.088 27.3149 173.036 27.9244 177.981C28.1524 179.82 35.1991 179.988 35.6104 177.411C37.0376 168.427 43.7621 149.101 42.7463 138.392C41.7403 127.683 39.5847 115.626 39.5847 115.626C39.5847 115.626 27.9046 115.537 23.2464 112.94Z" fill="#2C4481"/>
<path d="M45.5511 178.288C44.0694 180.246 41.9782 180.558 40.4172 180.578C38.8513 180.598 35.987 179.849 35.2784 180.196C34.5797 180.543 31.0712 182.416 29.0146 180.469C28.7867 180.256 28.4299 179.582 28.3407 179.121C29.7728 180.771 33.4201 180.608 34.3814 180.077C35.4667 179.488 37.0475 179.205 38.4152 179.443C39.778 179.676 42.7512 179.443 44.223 178.338C45.1101 177.669 45.3777 176.371 45.1943 175.855C46.116 176.281 46.2102 177.416 45.5511 178.288Z" fill="#3D93FF"/>
<path d="M42.7463 138.397C43.7572 149.106 37.0376 168.432 35.6104 177.416C35.427 178.576 33.8859 179.175 32.2258 179.324C35.1743 171.395 39.7185 148.228 40.3478 144.933C41.0466 141.271 42.4143 127.648 37.1565 125.706C31.9037 123.763 27.2208 117.163 27.2208 117.163L33.9949 115.334C37.1119 115.606 39.5897 115.631 39.5897 115.631C39.5897 115.631 41.7403 127.693 42.7463 138.397Z" fill="#223A7A"/>
<path d="M50.5164 69.7881C50.5164 69.7881 54.7286 66.6166 57.3897 68.0834C60.0557 69.5502 60.2391 70.244 58.802 70.5562C57.36 70.8585 53.5145 71.8 54.0497 72.1865C54.5948 72.583 56.017 72.7515 55.6999 73.242C55.3728 73.7376 51.126 73.0934 51.126 73.0934L48.7672 70.8882L50.5164 69.7881Z" fill="#FFAA83"/>
<path d="M20.9124 76.9636C20.9124 76.9636 15.9421 76.7605 15.9123 81.8101C15.8876 87.167 26.4725 85.2145 26.4725 85.2145C26.4725 85.2145 35.6302 84.2928 38.4647 83.1233C42.2359 81.5673 51.9189 73.7872 51.9189 73.7872C51.9189 73.7872 51.1756 70.685 49.0398 69.9219C49.0398 69.9219 39.8721 76.1658 36.3636 76.924C32.538 77.7367 21.7499 76.7803 20.9124 76.9636Z" fill="#1AB8C2"/>
<path d="M39.7185 88.5991C39.7185 88.5991 40.9326 82.9102 31.4181 79.4959C21.8986 76.0815 16.0362 76.2153 15.9123 81.5177C15.7885 86.83 18.2563 93.9114 18.5982 96.3049C18.8708 98.1979 20.7241 99.8579 18.4149 105.368C16.1453 110.819 12.9589 115.369 27.637 118.352C30.2238 118.872 41.6115 119.918 40.224 113.813C38.4994 106.181 38.6233 94.9173 39.7185 88.5991Z" fill="#48D7F6"/>
<path d="M30.8928 73.4254C30.8928 73.4254 29.9017 77.4542 31.8641 79.8973C32.9246 81.2204 28.6975 82.598 25.2832 80.8537C25.2832 80.8537 24.9809 73.9705 22.4536 71.5721L30.8928 73.4254Z" fill="#FFAA83"/>
<path d="M30.6599 76.3194C30.6599 76.3194 28.2565 75.9378 26.8491 75.2044L26.6955 75.3035L25.9274 76.4135L25.4814 75.7743C25.4814 75.7743 26.2594 79.9666 31.3239 79.0598C31.3239 79.0548 30.8036 77.9497 30.6599 76.3194Z" fill="#F79F7C"/>
<path d="M31.6113 58.3657C31.6113 58.3657 34.8869 59.109 35.6649 64.1735C36.4082 68.9754 37.9147 73.1231 35.541 75.1995C33.1327 77.3105 24.2623 76.7654 21.3584 70.6404C18.4496 64.5204 22.7509 55.5807 31.6113 58.3657Z" fill="#FFAA83"/>
<path d="M36.7402 63.45C36.6758 64.2181 36.2546 65.8088 34.6986 66.4481C32.5231 67.3401 29.9463 67.236 29.7134 68.7028C29.4755 70.1746 28.1276 71.8892 32.7511 80.0212C34.203 82.5633 23.965 84.3176 20.3822 79.1837C19.2077 77.5038 17.5873 66.8544 20.4615 60.6849C20.4615 60.6849 22.8748 55.9871 28.6083 56.8047C28.6033 56.8047 37.2804 57.4093 36.7402 63.45Z" fill="#3A2528"/>
<path d="M27.8005 72.355C28.866 73.3858 30.2733 73.6088 30.9621 72.8555C31.646 72.1073 31.3338 70.6603 30.2733 69.6295C29.2129 68.6037 27.7956 68.3758 27.1167 69.129C26.4427 69.8773 26.75 71.3193 27.8005 72.355Z" fill="#FFAA83"/>
<path d="M60.2044 107.063C60.2044 107.063 65.2838 108.481 67.2313 106.146C69.1689 103.807 69.0896 103.089 67.6327 103.332C66.1758 103.57 62.256 104.1 62.6128 103.54C62.9745 102.98 64.2382 102.296 63.7575 101.959C63.2768 101.622 59.5652 103.763 59.5652 103.763L58.1677 106.677L60.2044 107.063Z" fill="#FFAA83"/>
<path d="M38.7422 84.6248C38.7422 84.6248 36.0018 80.4969 32.0374 83.7229C27.8451 87.1372 35.531 94.3772 35.531 94.3772C35.531 94.3772 41.5817 101.141 44.1338 102.668C47.5382 104.69 59.2579 107.484 59.2579 107.484C59.2579 107.484 61.245 104.898 60.5959 102.683C60.5959 102.683 50.3876 99.3327 47.7562 96.9986C44.9019 94.4614 39.3666 85.1798 38.7422 84.6248Z" fill="#1AB8C2"/>
</svg>
