<svg width="12" height="12" viewBox="0 0 12 12" fill="none" xmlns="http://www.w3.org/2000/svg">
<path d="M0 6.21134C0 6.07065 0 5.92997 0 5.7896C0.0259483 5.78491 0.022822 5.76271 0.0275115 5.74489C0.14975 5.26876 0.590246 4.93549 1.12516 4.94143C2.35942 4.95519 3.59368 4.94456 4.82826 4.94831C4.9258 4.94862 4.94831 4.92549 4.948 4.82826C4.94425 3.57055 4.94487 2.31284 4.94581 1.05481C4.94612 0.584306 5.24125 0.186953 5.68862 0.0450188C5.7227 0.0340767 5.76803 0.0418925 5.78897 0C5.91403 0 6.03908 0 6.16413 0C6.19946 0.0468945 6.25604 0.0253231 6.30138 0.0393914C6.75219 0.179762 7.05388 0.580554 7.05419 1.05513C7.05513 2.31284 7.05575 3.57055 7.052 4.82826C7.05169 4.9258 7.07482 4.94831 7.17205 4.948C8.42976 4.94425 9.68747 4.94487 10.9452 4.94581C11.4251 4.94612 11.8243 5.25 11.9625 5.7105C11.9725 5.74396 11.9556 5.79116 12 5.81273C12 5.9456 12 6.07847 12 6.21134C11.9741 6.21603 11.9769 6.23791 11.9722 6.25604C11.8509 6.72843 11.4148 7.06576 10.8748 7.0595C9.64058 7.04544 8.406 7.05638 7.17174 7.05263C7.0742 7.05231 7.05169 7.07545 7.052 7.17268C7.05575 8.43445 7.05544 9.69623 7.05388 10.958C7.05325 11.4026 6.76282 11.8018 6.34483 11.9481C6.28512 11.969 6.21634 11.9572 6.16351 12.0009C6.03845 12.0009 5.9134 12.0009 5.78835 12.0009C5.78397 11.9753 5.76209 11.9766 5.74396 11.9722C5.30596 11.8678 4.93205 11.4463 4.93956 10.8639C4.9555 9.6337 4.94331 8.40319 4.94675 7.17268C4.94706 7.07545 4.92455 7.05231 4.82701 7.05263C3.5693 7.05638 2.31159 7.05575 1.05388 7.05481C0.583993 7.0545 0.185077 6.75813 0.0434556 6.31201C0.0337641 6.27762 0.0412672 6.2326 0 6.21134Z" fill="white"/>
</svg>
