<svg width="21" height="19" viewBox="0 0 21 19" fill="none" xmlns="http://www.w3.org/2000/svg">
<path d="M20.4865 9.17436C19.9913 10.5204 19.2238 11.7091 18.3077 12.8073C16.7854 14.6349 14.9629 16.1327 13.0212 17.4954C12.3463 17.97 11.6547 18.4182 10.956 18.8553C10.6445 19.0502 10.3499 19.0474 10.037 18.8525C8.26924 17.7515 6.56881 16.56 5.01149 15.1778C3.34474 13.6996 1.86318 12.0724 0.88108 10.0485C0.443346 9.14513 0.143105 8.20139 0.0392838 7.19919C0.0364778 7.16579 0.0336718 7.13099 0 7.1115V5.81003C0.0687467 5.48154 0.115045 5.14747 0.211852 4.82732C0.928782 2.46381 2.437 0.854723 4.84173 0.140657C5.65687 -0.101541 6.49726 0.00981448 7.31801 0.169888C8.49933 0.40095 9.53614 0.91736 10.385 1.77758C10.4719 1.86666 10.521 1.86806 10.6108 1.77758C11.6448 0.739192 12.923 0.243661 14.3638 0.0613163C16.0755 -0.154435 17.4869 0.445492 18.7286 1.54513C19.8762 2.56124 20.6198 3.8126 20.8948 5.32285C21.1347 6.6452 20.9467 7.92579 20.4865 9.17436Z" fill="#FC6C00"/>
</svg>
