<svg width="17" height="20" viewBox="0 0 17 20" fill="none" xmlns="http://www.w3.org/2000/svg">
<path d="M16.3607 7.636C16.3431 7.48876 16.3288 7.34092 16.3066 7.19486C16.0728 5.68783 15.4731 4.35786 14.565 3.16559C13.6625 1.97987 12.5173 1.15304 11.1901 0.584322C10.831 0.430519 10.4524 0.337522 10.0733 0.23916C9.31683 0.0430317 8.5592 -0.0332736 7.7856 0.013225C7.30331 0.0281283 6.82844 0.103241 6.35926 0.218892C5.62671 0.398924 4.92494 0.662416 4.27448 1.06481C3.62231 1.41414 3.04425 1.8684 2.52548 2.4073C1.89041 3.02669 1.3762 3.74265 0.976572 4.54862C0.686972 5.09408 0.469202 5.66995 0.307299 6.27026C-0.0552712 7.61395 -0.0803546 8.97611 0.144827 10.3389C0.38483 11.7911 0.907023 13.1377 1.68632 14.3682C3.22326 16.7926 5.31716 18.5471 7.76565 19.8747C8.07235 20.0404 8.34998 20.0422 8.65611 19.8776C9.52548 19.4115 10.3584 18.8857 11.1388 18.2716C11.6946 17.8347 12.2328 17.3774 12.727 16.8588C13.052 16.5172 13.3872 16.1882 13.6825 15.8174C14.2549 15.1545 14.7451 14.4319 15.1408 13.6391C15.5347 12.9488 15.818 12.2096 16.0232 11.4364C16.3664 10.1916 16.505 8.92783 16.3607 7.636ZM14.0753 12.6882C13.6745 13.471 13.1865 14.1905 12.6472 14.8743C11.832 15.8263 10.9273 16.6734 9.92397 17.4037C9.41603 17.7739 8.89212 18.1178 8.34884 18.4296C8.26048 18.4803 8.19093 18.497 8.09515 18.4409C5.95793 17.192 4.09833 15.6177 2.76719 13.4346C1.7838 11.8233 1.29525 10.0623 1.38361 8.14212C1.42294 7.2968 1.62874 6.49083 1.944 5.71347C1.98561 5.61093 2.02723 5.50899 2.06941 5.40646C2.4622 4.62314 2.96216 3.92387 3.571 3.30926C4.11714 2.81089 4.71458 2.39419 5.36504 2.06035C5.94481 1.81355 6.53542 1.61087 7.1568 1.51012C7.85116 1.39745 8.54381 1.40758 9.23816 1.49939C11.9272 2.02578 13.7498 3.62759 14.7007 6.31139C14.7104 6.33881 14.7223 6.36564 14.7337 6.39247C14.9469 7.18115 15.0718 7.98176 15.0484 8.80383C15.0319 9.39043 14.9504 9.96808 14.8426 10.5422C14.6608 11.2867 14.4025 12.0009 14.0753 12.6882Z" fill="url(#paint0_linear_174_820)"/>
<path d="M13.5359 7.28183C13.2423 6.00014 12.6084 4.93127 11.6193 4.10443C10.9677 3.56016 10.2346 3.20605 9.41878 3.00873C8.47302 2.78041 7.54835 2.80783 6.6271 3.11484C5.86604 3.33362 5.19791 3.72767 4.61415 4.28148C3.9483 4.86629 3.4643 5.58702 3.14905 6.43293C2.58923 7.8565 2.57783 9.29855 3.14106 10.7066C4.13813 13.1997 6.34947 14.538 8.91426 14.2459C9.65593 14.1612 10.3543 13.9126 10.9888 13.4906C11.7892 13.0166 12.4174 12.3603 12.8814 11.5311C13.3221 10.8056 13.5707 10.0127 13.6385 9.15727C13.7451 8.52358 13.6761 7.89525 13.5359 7.28183ZM10.0008 12.445C9.36861 12.7394 8.71074 12.8897 8.0141 12.864C6.07697 12.7925 4.37015 11.1442 4.1444 9.1364C4.07713 8.53431 4.12844 7.95069 4.26925 7.37005C4.4836 6.61356 4.89634 5.98404 5.40542 5.41473C5.46699 5.34618 5.57701 5.33604 5.60666 5.22993C5.90652 5.04871 6.18244 4.82754 6.50111 4.67552C6.91214 4.4788 7.34654 4.37984 7.78607 4.29579C8.8316 4.22067 9.79503 4.46509 10.6427 5.12441C11.5948 5.86422 12.1284 6.86513 12.2925 8.08721H12.292C12.3798 8.9826 12.2144 9.82613 11.8222 10.6238C11.389 11.4208 10.7784 12.0247 10.0008 12.445Z" fill="url(#paint1_linear_174_820)"/>
<defs>
<linearGradient id="paint0_linear_174_820" x1="2.6267" y1="16.7531" x2="14.3036" y2="1.73179" gradientUnits="userSpaceOnUse">
<stop offset="0.0897" stop-color="#F8B41E"/>
<stop offset="0.4395" stop-color="#F7AB2B"/>
<stop offset="0.7599" stop-color="#F6A137"/>
</linearGradient>
<linearGradient id="paint1_linear_174_820" x1="2.7239" y1="8.5718" x2="13.6905" y2="8.5718" gradientUnits="userSpaceOnUse">
<stop stop-color="#F8B41E"/>
<stop offset="0.3259" stop-color="#F7AD28"/>
<stop offset="0.716" stop-color="#F6A137"/>
</linearGradient>
</defs>
</svg>
