<svg width="14" height="18" viewBox="0 0 14 18" fill="none" xmlns="http://www.w3.org/2000/svg">
<path d="M6.92513 17.9994C5.76434 17.9994 4.60356 18.0011 3.44278 17.9988C1.54342 17.9947 0.00322987 16.4499 0.000916399 14.5483C-0.000818702 13.1712 0.000338032 11.7935 0.000916399 10.4164C0.00149477 8.79409 1.03909 7.43782 2.6082 7.02486C2.74642 6.98842 2.77361 6.93984 2.77303 6.8126C2.7684 5.89705 2.76782 4.98091 2.77129 4.06536C2.77939 2.05842 4.3485 0.290356 6.34329 0.0364529C8.60239 -0.250995 10.5954 1.18798 11.0205 3.41932C11.0622 3.63794 11.0819 3.86062 11.0807 4.0856C11.0766 4.99422 11.0807 5.90283 11.0766 6.81144C11.0761 6.93521 11.098 6.98842 11.2386 7.02544C12.8106 7.43955 13.847 8.79293 13.8482 10.4152C13.8488 11.7779 13.8493 13.1411 13.8482 14.5037C13.847 16.476 12.3201 17.9982 10.3427 18C9.20331 18 8.06393 17.9994 6.92513 17.9994ZM6.92339 16.6142C8.04832 16.6142 9.17266 16.6165 10.2976 16.6136C11.5596 16.6101 12.4589 15.7125 12.4624 14.4499C12.4659 13.1232 12.4659 11.7964 12.4624 10.4696C12.4589 9.20646 11.5607 8.3071 10.2987 8.30537C8.04947 8.30247 5.79962 8.30247 3.55035 8.30537C2.28836 8.3071 1.38842 9.20704 1.38553 10.4685C1.38264 11.7952 1.38553 13.122 1.38437 14.4488C1.38437 14.6443 1.40346 14.8369 1.45204 15.026C1.69785 15.9838 2.49831 16.6072 3.50582 16.6125C4.6452 16.6194 5.78459 16.6142 6.92339 16.6142ZM6.91992 6.92018C7.78516 6.92018 8.64982 6.9196 9.51505 6.92076C9.62032 6.92076 9.69955 6.93464 9.6984 6.77327C9.68914 5.87969 9.69551 4.98554 9.6903 4.09138C9.68914 3.93407 9.67121 3.77386 9.63883 3.61944C9.33923 2.19608 8.09805 1.29093 6.74525 1.39215C5.25943 1.50261 4.16921 2.68075 4.15648 4.14749C4.14896 5.01272 4.15995 5.87796 4.1507 6.74262C4.14896 6.90572 4.2068 6.92365 4.34677 6.92249C5.20448 6.91729 6.0622 6.92018 6.91992 6.92018Z" fill="#3AA756"/>
<path d="M6.23165 12.8033C6.23165 12.753 6.22587 12.7015 6.23281 12.6524C6.26635 12.4158 6.18943 12.2568 5.99336 12.0908C5.38666 11.576 5.38434 10.6344 5.95635 10.0786C6.52604 9.52398 7.45605 9.56504 7.97543 10.1671C8.49653 10.7715 8.404 11.6963 7.76548 12.1741C7.65443 12.2568 7.60585 12.3348 7.61337 12.4737C7.62551 12.7038 7.61973 12.9346 7.61568 13.1654C7.60932 13.55 7.30915 13.8444 6.92743 13.8455C6.5457 13.8467 6.2409 13.5517 6.23223 13.1717C6.22991 13.0485 6.23223 12.9259 6.23165 12.8033Z" fill="#3AA756"/>
</svg>
