<svg width="18" height="19" viewBox="0 0 18 19" fill="none" xmlns="http://www.w3.org/2000/svg">
<path d="M10.2153 19C10.4232 18.9345 10.6412 18.914 10.8477 18.8376C11.9774 18.4201 12.7102 17.3859 12.7155 16.1853C12.7176 15.7217 12.7176 15.2581 12.7155 14.7945C12.7137 14.3788 12.4164 14.0727 12.0183 14.0702C11.61 14.0681 11.3152 14.3742 11.3064 14.7987C11.2954 15.3321 11.3391 15.8661 11.2778 16.3988C11.2116 16.9755 10.6885 17.4937 10.1086 17.5645C9.93881 17.5852 9.77007 17.5919 9.59991 17.5919C7.37527 17.5916 5.15028 17.593 2.92564 17.5909C2.32113 17.5905 1.84943 17.351 1.56267 16.7997C1.44924 16.582 1.41155 16.3445 1.41155 16.1036C1.40979 12.0245 1.40943 7.94585 1.41119 3.86681C1.41155 3.14992 1.80751 2.61868 2.47367 2.43268C2.61986 2.39182 2.77275 2.37843 2.92564 2.37843C5.2151 2.37878 7.50421 2.37808 9.79367 2.37914C10.5299 2.37949 11.0566 2.76101 11.2507 3.43492C11.293 3.58146 11.3074 3.73365 11.3074 3.88654C11.3074 4.31491 11.306 4.74328 11.3078 5.172C11.3095 5.5965 11.61 5.90263 12.0183 5.90051C12.4167 5.8984 12.7141 5.59192 12.7155 5.17623C12.7172 4.6774 12.726 4.17822 12.7126 3.67975C12.675 2.25971 11.5325 1.12855 10.2685 1.00314C10.2442 1.00067 10.2227 0.99785 10.2153 0.970373C7.62081 0.970373 5.02593 0.970373 2.43139 0.970373C2.42118 1.00772 2.38947 1.00278 2.36129 1.00701C1.03355 1.21521 0.00560262 2.38829 0.00384123 3.72977C-0.00179523 7.8997 -0.000738397 12.0703 0.00384123 16.2406C0.00489806 17.3816 0.763354 18.4367 1.83886 18.8225C2.03261 18.8922 2.23377 18.9415 2.43175 19C5.02628 19 7.62081 19 10.2153 19Z" fill="#3AA756"/>
<path d="M17.9993 9.52734C17.8496 9.01195 17.4842 8.65263 17.114 8.29401C16.718 7.91038 16.3344 7.51371 15.9409 7.12726C15.7295 6.91942 15.472 6.86235 15.1965 6.96592C14.9285 7.06667 14.7724 7.27275 14.74 7.55951C14.7122 7.80504 14.8164 8.00197 14.9869 8.17141C15.2948 8.47754 15.6003 8.78614 15.9085 9.09192C15.9494 9.13243 15.9997 9.16378 16.0526 9.2043C15.9691 9.26806 15.9029 9.2441 15.843 9.2441C13.1142 9.24551 10.3858 9.24516 7.65707 9.24586C7.19277 9.24586 6.88347 9.55939 6.90566 10.0026C6.92257 10.3418 7.21144 10.6328 7.55139 10.6522C7.61586 10.6557 7.68032 10.6539 7.74514 10.6539C10.4387 10.6539 13.1318 10.6539 15.8254 10.6539C15.8888 10.6539 15.9518 10.6539 16.0462 10.6539C15.9927 10.7138 15.9582 10.7557 15.9201 10.7941C15.5858 11.132 15.2441 11.4628 14.9186 11.8083C14.7079 12.032 14.6759 12.3332 14.8147 12.5908C14.9619 12.8638 15.1944 12.9959 15.5069 12.9758C15.6774 12.9649 15.8225 12.8923 15.942 12.7729C16.4898 12.2254 17.0361 11.6766 17.5829 11.1281C17.7939 10.916 17.8872 10.6388 18 10.3725C17.9993 10.091 17.9993 9.80916 17.9993 9.52734Z" fill="#3AA756"/>
</svg>
