<svg width="8" height="13" viewBox="0 0 8 13" fill="none" xmlns="http://www.w3.org/2000/svg">
<path d="M0.793947 13C0.572922 12.9223 0.36396 12.8327 0.210254 12.6517C-0.059801 12.334 -0.0722531 11.864 0.196245 11.5463C0.25228 11.4801 0.315708 11.4182 0.379914 11.3585C2.09325 9.77024 3.80697 8.18199 5.52341 6.59661C5.6063 6.51997 5.61213 6.48435 5.52536 6.40411C3.7988 4.8101 2.07651 3.21213 0.351897 1.61596C0.0503223 1.33674 -0.0831487 1.0165 0.0538245 0.62789C0.165893 0.310527 0.404429 0.114064 0.749975 0.026268C0.77449 0.0201511 0.806399 0.0298653 0.821186 0C0.93987 0 1.05855 0 1.17763 0C1.53057 0.0942736 1.76249 0.339672 2.00919 0.568159C3.88752 2.3097 5.76623 4.05087 7.6465 5.79097C7.95235 6.07415 8.08193 6.39691 7.94652 6.79164C7.89398 6.94492 7.79476 7.06942 7.67452 7.1806C5.68957 9.02109 3.70307 10.8601 1.7189 12.7013C1.56442 12.8449 1.37686 12.9298 1.17763 13C1.0496 13 0.92197 13 0.793947 13Z" fill="#1C1C1C"/>
</svg>
