<svg width="21" height="19" viewBox="0 0 21 19" fill="none" xmlns="http://www.w3.org/2000/svg">
<path d="M0 5.81022C0.0687458 5.48171 0.115044 5.14763 0.211849 4.82748C0.92877 2.46389 2.43837 0.85475 4.84167 0.140661C5.6568 -0.101544 6.49718 0.0098148 7.31792 0.169893C8.49923 0.399571 9.53603 0.91739 10.3848 1.77624C10.4732 1.86533 10.5209 1.86672 10.6107 1.77764C11.6447 0.739215 12.9228 0.243668 14.3637 0.0613183C16.0753 -0.15444 17.4867 0.445506 18.7283 1.54518C19.876 2.56133 20.6195 3.81272 20.8945 5.32302C21.1358 6.64541 20.9478 7.92604 20.4863 9.17465C19.9896 10.5207 19.2236 11.7095 18.3074 12.8077C16.7838 14.6354 14.9627 16.1318 13.021 17.4959C12.3462 17.9692 11.6545 18.4188 10.9558 18.8559C10.6444 19.0508 10.3498 19.0466 10.0369 18.8517C8.26914 17.7507 6.56873 16.5591 5.01143 15.1783C3.3461 13.7 1.86315 12.0728 0.882472 10.0488C0.444743 9.14542 0.143104 8.20026 0.0406863 7.19942C0.0364774 7.16601 0.0336714 7.13261 0 7.11173C0 6.67882 0 6.24452 0 5.81022ZM5.94581 1.48532C5.25414 1.47697 4.79116 1.58137 4.08406 2.01427C2.43697 3.02207 1.53065 4.4767 1.47453 6.41573C1.44647 7.38177 1.69059 8.29352 2.07781 9.17187C2.71336 10.6167 3.6758 11.8347 4.77292 12.9511C6.45088 14.6605 8.37857 16.058 10.3918 17.3498C10.4858 17.411 10.549 17.3888 10.6289 17.3345C11.1663 16.9739 11.7134 16.6259 12.2424 16.2543C14.0438 14.9904 15.7442 13.6109 17.1612 11.9169C18.1026 10.7921 18.8855 9.57693 19.2867 8.15154C19.6922 6.70944 19.6234 5.30771 18.8658 3.98393C18.2331 2.8787 17.3225 2.0797 16.1104 1.63844C15.444 1.39623 14.7621 1.45609 14.0873 1.58137C12.8414 1.81383 11.8046 2.37619 11.134 3.49535C10.8254 4.01038 10.1421 3.99646 9.84608 3.47308C9.63423 3.10002 9.35925 2.78543 9.02815 2.51817C8.13165 1.79295 7.08082 1.51734 5.94581 1.48532Z" fill="#BFBFBF"/>
</svg>
