<svg width="21" height="26" viewBox="0 0 21 26" fill="none" xmlns="http://www.w3.org/2000/svg">
<path d="M19.6617 14.236C19.5071 14.1023 19.4474 13.9953 19.4766 13.7674C19.7458 11.6966 19.5887 9.64867 18.8908 7.69502C17.662 4.25386 15.2517 2.30277 11.7759 1.78825C11.7746 1.66854 11.7746 1.54755 11.7722 1.42783C11.76 0.976994 11.4994 0.626765 11.0865 0.503229C10.7114 0.39243 10.312 0.549077 10.0806 0.895486C9.89665 1.17057 9.9271 1.48514 9.92588 1.79335C9.85159 1.81245 9.7773 1.83665 9.70179 1.85066C6.43539 2.43777 4.14818 4.33665 2.90106 7.53583C2.12282 9.53022 1.9718 11.6367 2.22147 13.7686C2.24827 13.9991 2.18615 14.1023 2.03635 14.2373C0.943899 15.2218 0.496932 16.4749 0.772176 17.951C1.0389 19.3761 1.8695 20.3466 3.17874 20.8484C3.68295 21.0419 4.21882 21.1056 4.74495 21.21C5.29788 21.3196 5.85446 21.4151 6.4086 21.5157C6.51456 22.4849 6.89576 23.328 7.52663 24.0335C9.34495 26.0674 12.3203 26.0763 14.152 24.0552C14.795 23.3458 15.1823 22.4951 15.2907 21.5157C15.8449 21.4151 16.4014 21.3221 16.9544 21.2113C17.6473 21.0712 18.3562 20.9884 18.9968 20.6433C21.351 19.3761 21.7042 16.0025 19.6617 14.236ZM12.6223 22.9319C11.3094 24.1673 9.20002 23.7126 8.44857 22.0455C8.39986 21.9372 8.3414 21.8303 8.37185 21.7016C10.0233 21.8303 11.676 21.8303 13.3275 21.7016C13.2763 22.2276 12.9706 22.6033 12.6223 22.9319ZM17.6291 19.0985C15.3869 19.5799 13.1253 19.8639 10.8235 19.8371C8.54966 19.8639 6.29899 19.5735 4.06659 19.0985C3.2579 18.9253 2.72568 18.3445 2.57344 17.4785C2.44678 16.7602 2.79267 16.0037 3.44911 15.5605C4.0678 15.1441 4.23465 14.6996 4.12626 13.9571C3.79499 11.694 3.95454 9.48055 4.98853 7.43012C6.26367 4.89956 8.86753 3.39931 11.6699 3.74571C14.5332 4.09976 16.6682 6.1693 17.3721 9.12014C17.763 10.7618 17.83 12.4059 17.5548 14.0717C17.45 14.7098 17.6973 15.2103 18.2295 15.5465C18.6789 15.8293 18.9797 16.233 19.093 16.7679C19.3268 17.8695 18.6935 18.8705 17.6291 19.0985Z" fill="#1C1C1C"/>
<path d="M16.4873 9.90594C18.9796 9.90594 21 7.7932 21 5.18701C21 2.58082 18.9796 0.468079 16.4873 0.468079C13.995 0.468079 11.9747 2.58082 11.9747 5.18701C11.9747 7.7932 13.995 9.90594 16.4873 9.90594Z" fill="#DC2402"/>
</svg>
