<svg width="22" height="15" viewBox="0 0 22 15" fill="none" xmlns="http://www.w3.org/2000/svg">
<path d="M11.1437 0C12.8633 0.0107794 14.5582 0.596672 16.1472 1.52243C18.383 2.82547 20.2174 4.57935 21.7982 6.61095C22.0537 6.93941 22.0708 7.27484 21.8254 7.58998C20.0094 9.92213 17.8903 11.903 15.2069 13.2118C13.8227 13.8871 12.363 14.2707 10.8089 14.2358C9.35681 14.2035 7.99797 13.804 6.7038 13.1712C4.62338 12.1541 2.8917 10.6856 1.33629 8.99193C0.93555 8.55505 0.553198 8.10295 0.196843 7.62865C-0.0567904 7.29132 -0.0701062 6.95589 0.184795 6.62934C1.87653 4.45697 3.84345 2.5953 6.28594 1.28212C7.75511 0.492048 9.31369 0.0038045 11.1437 0ZM10.9731 12.7127C12.3947 12.6956 13.692 12.2942 14.9203 11.6424C16.9829 10.5473 18.6588 8.99067 20.1654 7.23172C20.2491 7.13407 20.2256 7.08081 20.1552 6.99774C18.9093 5.53428 17.5308 4.21729 15.9082 3.17422C14.6013 2.33406 13.2095 1.71773 11.642 1.56492C10.0226 1.40703 8.53313 1.83821 7.11976 2.57628C5.03553 3.665 3.34887 5.23499 1.83341 7.00725C1.75035 7.1049 1.77317 7.16007 1.84356 7.2425C3.25186 8.89365 4.81994 10.3609 6.71649 11.4452C8.04172 12.2023 9.44875 12.6918 10.9731 12.7127Z" fill="#D3D3D3"/>
<path d="M14.8391 6.89375C14.8366 8.8518 13.3116 10.5074 11.3472 10.6843C8.99982 10.8955 7.01641 8.96911 7.16352 6.62046C7.2878 4.63515 8.9567 3.05121 10.9414 3.03599C11.4081 3.03219 11.7505 3.33845 11.7581 3.76709C11.767 4.22109 11.4442 4.54511 10.9706 4.55779C9.72141 4.59076 8.77599 5.51906 8.69166 6.7942C8.6181 7.91273 9.50011 8.9932 10.6598 9.14855C11.5888 9.27283 12.3668 8.95009 12.8982 8.16699C13.4378 7.37185 13.4524 6.52725 12.9806 5.68963C12.8462 5.45185 12.746 5.22104 12.8252 4.95219C12.9127 4.65544 13.1118 4.46458 13.4225 4.41449C13.7599 4.36059 14.0256 4.48424 14.2152 4.76958C14.6121 5.36688 14.8397 6.14173 14.8391 6.89375Z" fill="#D3D3D3"/>
</svg>
