<svg width="23" height="25" viewBox="0 0 23 25" fill="none" xmlns="http://www.w3.org/2000/svg">
<path d="M11.8134 0C12.1018 0.0572922 12.3928 0.103517 12.6786 0.17383C14.8356 0.701178 16.1292 2.12632 16.6826 4.20902C17.3799 6.83274 16.93 9.33016 15.6253 11.6856C15.525 11.866 15.538 11.9435 15.6962 12.0717C16.8942 13.0431 18.1539 13.9018 19.6084 14.4591C20.4411 14.7781 21.0257 15.3966 21.3805 16.215C22.0863 17.842 22.333 19.5483 22.2367 21.3114C22.2152 21.7014 22.1924 22.0907 22.1247 22.4761C21.9841 23.2762 21.3923 23.911 20.6045 24.0686C18.4573 24.497 16.2913 24.7769 14.1044 24.9084C12.3564 25.0139 10.6083 25.0295 8.8596 24.9488C6.94877 24.8602 5.04967 24.6604 3.16293 24.3427C2.69027 24.2632 2.21826 24.1799 1.74886 24.0848C0.826325 23.8973 0.233221 23.2912 0.11408 22.3544C-0.14699 20.2964 0.0203289 18.284 0.821117 16.3471C1.21175 15.4018 1.87451 14.7417 2.8309 14.3797C4.26451 13.8367 5.48392 12.9519 6.65841 11.9923C6.75802 11.9109 6.73002 11.8549 6.67924 11.7709C6.0002 10.6433 5.58157 9.41935 5.39017 8.12247C5.11347 6.23964 5.22871 4.40368 6.19161 2.7051C7.07573 1.14584 8.44423 0.300133 10.2034 0.054688C10.2541 0.0475265 10.3218 0.0761725 10.3485 0.000651047C10.8368 0 11.3251 0 11.8134 0ZM11.1318 23.4377C12.092 23.4371 13.051 23.4019 14.0094 23.3466C16.0901 23.2268 18.1507 22.9527 20.1963 22.5594C20.4463 22.5113 20.5811 22.368 20.6019 22.1154C20.6266 21.8159 20.6611 21.5165 20.6774 21.2163C20.7575 19.7098 20.5518 18.2495 19.9567 16.855C19.7633 16.4018 19.4424 16.0574 18.9801 15.8843C17.3987 15.2931 16.0296 14.3588 14.7399 13.2937C14.5843 13.1655 14.5035 13.1564 14.3518 13.3055C12.5947 15.0366 9.7001 15.0509 7.92209 13.3172C7.75021 13.1499 7.66427 13.1772 7.49826 13.3126C6.23783 14.3471 4.90774 15.271 3.36541 15.8478C2.83025 16.0477 2.47608 16.4233 2.26123 16.9468C1.56982 18.631 1.44287 20.3791 1.66292 22.1669C1.69092 22.396 1.83935 22.5152 2.06592 22.5594C5.06074 23.1421 8.08225 23.4377 11.1318 23.4377ZM6.83158 6.55735C6.83614 7.25136 6.91557 7.93627 7.07898 8.61075C7.4019 9.94279 7.94357 11.1629 8.94293 12.1362C9.80166 12.9734 10.8316 13.2267 11.9775 12.9291C12.8727 12.6967 13.5074 12.0782 13.9996 11.3308C15.2802 9.3881 15.6865 7.25397 15.2646 4.974C15.0817 3.98701 14.6533 3.10615 13.8609 2.44729C12.9924 1.72462 11.9618 1.53387 10.8687 1.56707C9.13434 1.62046 7.82704 2.54364 7.23133 4.14196C6.94161 4.91996 6.83093 5.72987 6.83158 6.55735Z" fill="#F7B220"/>
</svg>
