<svg width="17" height="18" viewBox="0 0 17 18" fill="none" xmlns="http://www.w3.org/2000/svg">
<path d="M6.48066 17.9995C6.26412 17.9258 6.03632 17.9474 5.81415 17.9333C4.68451 17.8628 3.56145 17.7398 2.44543 17.5533C2.03585 17.4847 1.6258 17.4171 1.21951 17.333C0.596212 17.2043 0.159858 16.7421 0.0809478 16.1099C-0.0839181 14.7882 -0.00970498 13.4857 0.421952 12.2137C0.628152 11.605 0.902459 11.0465 1.44825 10.6642C1.62157 10.543 1.80429 10.4415 2.00297 10.3673C3.049 9.97653 3.9405 9.3382 4.79489 8.63881C4.85924 8.58621 4.86206 8.55051 4.82025 8.48193C4.29278 7.60969 3.98183 6.66136 3.85924 5.65432C3.6986 4.33304 3.80663 3.0484 4.50931 1.87508C5.16783 0.776448 6.1575 0.183213 7.42429 0.0390141C8.30217 -0.0610327 9.15703 0.0206956 9.96116 0.408671C11.0682 0.942723 11.7319 1.85395 12.0354 3.01224C12.5328 4.91172 12.2228 6.71679 11.274 8.42087C11.2073 8.54064 11.2092 8.59701 11.3191 8.68578C12.1871 9.38752 13.1007 10.0056 14.1528 10.4124C14.8827 10.6942 15.3026 11.2809 15.5638 12C15.979 13.1451 16.1279 14.3232 16.0307 15.5345C16.0142 15.7384 16.0086 15.9446 15.9724 16.1456C15.8536 16.8126 15.4135 17.2353 14.7385 17.3631C13.4952 17.5979 12.2439 17.775 10.9837 17.884C10.5398 17.9225 10.0941 17.9375 9.64927 17.9662C9.60277 17.969 9.54218 17.9333 9.50977 18C9.31015 18 9.11053 18 8.9109 18C8.73476 17.9408 8.55862 17.945 8.38248 18C8.13589 18 7.8893 18 7.64317 18C7.46703 17.9455 7.29089 17.9403 7.11476 18C6.90339 17.9995 6.69202 17.9995 6.48066 17.9995ZM8.05698 16.876C8.67511 16.8661 9.31391 16.8469 9.9527 16.8135C11.4994 16.7332 13.0302 16.5317 14.5506 16.2428C14.7568 16.2039 14.8442 16.1099 14.8616 15.9014C14.8813 15.6684 14.9029 15.435 14.9142 15.2015C14.964 14.1423 14.8108 13.1165 14.3919 12.1367C14.2524 11.8107 14.0203 11.5651 13.6868 11.4406C12.553 11.0179 11.5708 10.349 10.645 9.58855C10.5328 9.49649 10.4675 9.47629 10.3496 9.59184C9.08328 10.8323 6.99733 10.8361 5.72913 9.60499C5.60137 9.48099 5.53279 9.4932 5.40691 9.59607C4.48489 10.3504 3.50978 11.0193 2.38015 11.4378C2.03444 11.566 1.801 11.8234 1.65774 12.1625C1.14248 13.3809 1.05182 14.6496 1.20448 15.9474C1.22374 16.1118 1.32378 16.2104 1.48724 16.2396C2.34492 16.3941 3.20401 16.5359 4.07014 16.6383C5.38719 16.7947 6.70987 16.8619 8.05698 16.876ZM4.92829 4.72149C4.93298 4.81543 4.93627 4.90937 4.94238 5.00284C4.94848 5.09631 4.956 5.18978 4.96445 5.28325C5.0645 6.34196 5.37403 7.32975 5.99263 8.20481C6.31485 8.66042 6.70236 9.05638 7.24111 9.24661C8.17253 9.57587 9.11381 9.37672 9.79911 8.52796C11.0551 6.9723 11.3975 5.19542 10.9212 3.26963C10.7009 2.37908 10.1721 1.70223 9.29324 1.35512C8.74463 1.13859 8.16924 1.0935 7.58258 1.15973C6.74134 1.25508 6.04994 1.60688 5.56896 2.31848C5.07765 3.04512 4.9513 3.86991 4.92829 4.72149Z" fill="#3AA756"/>
<path d="M7.11475 17.9996C7.29088 17.94 7.46702 17.9451 7.64316 17.9996C7.46702 17.9996 7.29088 17.9996 7.11475 17.9996Z" fill="#3AA756"/>
<path d="M8.38248 17.9996C8.55862 17.9446 8.73475 17.9404 8.91089 17.9996C8.73475 17.9996 8.55862 17.9996 8.38248 17.9996Z" fill="#3AA756"/>
</svg>
