<svg width="18" height="18" viewBox="0 0 18 18" fill="none" xmlns="http://www.w3.org/2000/svg">
<path d="M13.7372 17.999C12.4762 17.9936 11.463 17.6985 10.48 17.2842C8.53477 16.4643 6.85787 15.2414 5.32317 13.8129C3.78793 12.3834 2.45875 10.7843 1.4247 8.95231C0.845702 7.92685 0.379926 6.8547 0.147574 5.69348C-0.108389 4.41421 -0.0772652 3.15908 0.610668 2.00751C1.13601 1.12855 1.84058 0.423981 2.85584 0.115967C3.86198 -0.189363 4.8912 0.107918 5.4981 1.01157C6.11252 1.92595 6.77148 2.81082 7.40307 3.71393C7.67674 4.10512 7.88709 4.52582 7.91231 5.01896C7.94075 5.56953 7.70786 6.01867 7.36819 6.41951C7.13047 6.69962 6.87075 6.96149 6.61371 7.22443C6.53859 7.30116 6.53054 7.35214 6.59332 7.44068C7.68049 8.97807 8.97479 10.3067 10.5299 11.3762C10.6345 11.4481 10.6882 11.4379 10.7751 11.352C11.1405 10.9904 11.4883 10.6094 11.9379 10.3432C12.5196 9.9987 13.111 9.99333 13.7184 10.2616C14.1187 10.4382 14.4632 10.7033 14.8169 10.9539C15.5359 11.4636 16.2346 12.0062 16.9778 12.4778C17.9313 13.0831 18.2029 14.1832 17.8396 15.1475C17.2938 16.5968 16.2523 17.5203 14.7289 17.8718C14.3436 17.9604 13.9524 18.0076 13.7372 17.999ZM1.30021 4.44426C1.31202 4.75227 1.3469 5.12414 1.42685 5.49118C1.68657 6.6846 2.19688 7.77284 2.83652 8.80313C4.2301 11.0478 6.02398 12.9211 8.15378 14.474C9.24578 15.2703 10.4097 15.9416 11.7045 16.3607C12.5776 16.6435 13.4673 16.826 14.3822 16.6242C15.4924 16.379 16.2764 15.7302 16.6381 14.6329C16.7927 14.1633 16.658 13.8446 16.255 13.5591C15.8514 13.2736 15.449 12.9865 15.0455 12.7011C14.5384 12.3421 14.0372 11.975 13.5215 11.6278C12.9586 11.249 12.7386 11.271 12.2347 11.7298C12.012 11.9326 11.8038 12.1505 11.5897 12.3619C11.0923 12.8535 10.5342 12.913 9.94445 12.5342C9.1991 12.0555 8.52082 11.4926 7.88011 10.8836C6.97592 10.0239 6.15223 9.09612 5.45249 8.05993C5.14662 7.60703 5.08491 6.8708 5.59416 6.41683C5.83295 6.2038 6.04598 5.96018 6.2617 5.72246C6.71245 5.22502 6.72372 5.05223 6.35882 4.49523C5.7326 3.53953 5.04145 2.62944 4.38625 1.69413C4.33366 1.61901 4.26283 1.55247 4.18931 1.49613C3.77881 1.18275 3.34898 1.22675 2.93579 1.47305C1.83843 2.12664 1.30075 3.10381 1.30021 4.44426Z" fill="#1C1C1C"/>
</svg>
