<svg width="12" height="12" viewBox="0 0 12 12" fill="none" xmlns="http://www.w3.org/2000/svg">
<path d="M5.17115 8.69521C5.17076 8.14187 5.16529 7.58892 5.17427 7.03558C5.17701 6.87418 5.12934 6.82495 4.96599 6.82573C3.85306 6.83198 2.74012 6.82964 1.62719 6.82768C1.27314 6.8269 1.01288 6.66004 0.869468 6.34038C0.72996 6.02971 0.772164 5.72764 0.991 5.4627C1.16372 5.25363 1.3935 5.16922 1.66431 5.17C2.74481 5.17313 3.82492 5.17118 4.90542 5.17078C5.17037 5.17078 5.17076 5.17039 5.17076 4.90779C5.17115 3.81439 5.16998 2.721 5.17232 1.6276C5.1731 1.27395 5.3384 1.01291 5.65845 0.869885C5.96912 0.730768 6.2708 0.772191 6.53613 0.991026C6.75184 1.16883 6.83156 1.40642 6.83039 1.68348C6.82648 2.75734 6.82883 3.8312 6.82883 4.90506C6.82883 5.17078 6.82922 5.17078 7.09143 5.17078C8.18483 5.17118 9.27822 5.17 10.3716 5.17235C10.7343 5.17313 10.9988 5.34663 11.1375 5.67645C11.2724 5.99689 11.2196 6.30404 10.9828 6.56547C10.8062 6.76086 10.5779 6.83159 10.3161 6.83081C9.23563 6.8269 8.15552 6.83433 7.07502 6.82495C6.87924 6.82338 6.82218 6.87184 6.82414 7.07309C6.8343 8.17274 6.82961 9.27278 6.82765 10.3728C6.82687 10.7269 6.65962 10.9871 6.34035 11.1305C6.03008 11.27 5.72801 11.2282 5.46306 11.0086C5.26064 10.841 5.16919 10.6194 5.17037 10.3552C5.1731 9.8015 5.17154 9.24855 5.17115 8.69521Z" fill="#F9FBFC"/>
</svg>
