<svg width="18" height="18" viewBox="0 0 18 18" fill="none" xmlns="http://www.w3.org/2000/svg">
<path d="M0 9.74017C0 9.24836 0 8.75612 0 8.26431C0.0383053 8.25507 0.0330218 8.22337 0.0352232 8.19519C0.0660436 7.81038 0.124162 7.42996 0.210019 7.05352C0.720315 4.81068 1.9069 3.00328 3.77857 1.67801C5.936 0.150641 8.33602 -0.330596 10.9214 0.220207C13.1581 0.696601 14.9602 1.88142 16.2894 3.73593C17.8454 5.90656 18.3355 8.3264 17.7776 10.9369C17.3012 13.1665 16.1063 14.9488 14.2707 16.293C13.0128 17.2141 11.5995 17.7557 10.0474 17.9366C9.90874 17.9529 9.75992 17.9238 9.62827 17.9978C9.18314 17.9978 8.73801 17.9978 8.29287 17.9978C8.27922 17.9498 8.23828 17.9666 8.20657 17.9622C7.91158 17.923 7.61394 17.8992 7.32247 17.8428C5.72598 17.5346 4.30252 16.8592 3.08203 15.7818C1.44239 14.3346 0.441611 12.5307 0.0990654 10.3654C0.0664839 10.1571 0.0801329 9.94094 0 9.74017ZM1.40188 8.99388C1.39484 13.1912 4.76967 16.5766 8.97884 16.5951C13.1805 16.6135 16.58 13.2255 16.5897 9.01017C16.5998 4.81156 13.2246 1.42528 9.01319 1.40899C4.81326 1.39314 1.40893 4.78558 1.40188 8.99388Z" fill="#707070"/>
<path d="M8.06727 8.98595C7.39927 8.31486 6.76385 7.67504 6.12624 7.03786C5.89946 6.81109 5.8039 6.55217 5.92324 6.24216C6.1007 5.78112 6.68239 5.64814 7.05184 5.98853C7.28874 6.2065 7.51024 6.44076 7.73834 6.66842C8.13244 7.0612 8.52919 7.45179 8.91758 7.84986C9.01005 7.94497 9.06025 7.95466 9.15977 7.85382C9.75555 7.24879 10.361 6.653 10.9599 6.05061C11.1928 5.81635 11.4628 5.7296 11.7736 5.84894C12.2378 6.02728 12.3518 6.6191 11.9982 6.99691C11.8062 7.20211 11.6019 7.39542 11.4029 7.59402C10.9801 8.01631 10.5596 8.44036 10.1325 8.85825C10.0506 8.93839 10.051 8.98066 10.1329 9.06125C10.7419 9.66187 11.3443 10.2687 11.9515 10.8706C12.1127 11.0305 12.2171 11.2128 12.2061 11.4444C12.192 11.7328 12.0533 11.9433 11.7877 12.0609C11.5275 12.1758 11.2809 12.1375 11.0665 11.9574C10.9189 11.8337 10.7877 11.6901 10.6508 11.5536C10.1532 11.0573 9.65295 10.5637 9.16197 10.0608C9.06333 9.95955 9.01533 9.97188 8.92418 10.0648C8.32752 10.6689 7.72469 11.2674 7.12406 11.868C6.89904 12.093 6.63836 12.1912 6.32703 12.0758C5.89153 11.9138 5.73521 11.3735 6.02011 11.0036C6.11215 10.8838 6.22664 10.7803 6.33408 10.6725C6.85985 10.1458 7.38562 9.62004 7.91359 9.09603C7.95719 9.05112 8.01751 9.02073 8.06727 8.98595Z" fill="#707070"/>
</svg>
