<svg width="24" height="24" viewBox="0 0 24 24" fill="none" xmlns="http://www.w3.org/2000/svg">
<path d="M14.1055 19.231C12.3442 19.2076 10.4825 18.6398 8.82096 17.4549C8.65676 17.3377 8.58161 17.3434 8.44963 17.4972C7.33751 18.7936 6.21151 20.078 5.0994 21.3744C4.95225 21.5458 4.87836 21.5597 4.71417 21.3902C4.01255 20.6666 3.29703 19.9564 2.57773 19.2505C2.44448 19.12 2.44448 19.0551 2.5872 18.9322C3.89887 17.8022 5.20297 16.6627 6.51401 15.5321C6.646 15.418 6.6662 15.3487 6.55821 15.1981C5.53452 13.768 4.96046 12.1742 4.807 10.4208C4.39272 5.6846 7.55602 1.32334 12.1977 0.250041C17.3693 -0.946154 22.5332 2.26429 23.7451 7.4291C24.9671 12.6349 21.6743 17.8615 16.4592 19.0003C15.7734 19.1503 15.0812 19.231 14.1055 19.231ZM14.3727 1.90127C10.0973 1.91891 6.63968 5.38838 6.66242 9.63872C6.68452 13.901 10.144 17.3465 14.3904 17.3365C18.6531 17.3264 22.129 13.8355 22.0968 9.59775C22.0634 5.3241 18.6108 1.88362 14.3727 1.90127Z" fill="#565656"/>
<path d="M2.06678 24C1.17255 24.0019 0.438717 23.5027 0.140006 22.7521C-0.156178 22.0072 0.0257009 21.1519 0.608596 20.6055C0.861205 20.3686 1.13339 20.1536 1.38916 19.9198C1.48073 19.836 1.53188 19.8429 1.61777 19.9293C2.43306 20.7511 3.25152 21.5698 4.07376 22.3847C4.16659 22.4767 4.15017 22.5271 4.07313 22.6128C3.84073 22.8693 3.62538 23.1422 3.38793 23.3937C3.00712 23.7964 2.52653 23.983 2.06678 24Z" fill="#565656"/>
</svg>
